<?xml version="1.0" encoding="UTF-8"?>
<svg xmlns="http://www.w3.org/2000/svg" width="1440" height="1060" viewBox="0 0 1440 1060">
<style>
text{font-family:-apple-system,BlinkMacSystemFont,'Segoe UI',sans-serif;fill:#202124}
.title{font-size:24px;font-weight:650}.panel-title{font-size:15px;font-weight:600}
.axis{stroke:#5f6368;stroke-width:1}.grid{stroke:#dadce0;stroke-width:1}
.tick{font-size:11px;fill:#5f6368}.legend{font-size:12px}
</style>
<rect width="100%" height="100%" fill="#ffffff"/>
<text class="title" x="64" y="38">cstr policy comparison</text>
<text class="tick" x="64" y="62">trajectory seed: 0; return seeds: 0, 1, 2, 3, 4, 5, 6, 7, 8, 9, 10, 11, 12, 13, 14, 15, 16, 17, 18, 19</text>
<line x1="720" y1="34" x2="744" y2="34" stroke="#d95f02" stroke-width="3"/>
<text class="legend" x="750" y="38">pid</text>
<line x1="865" y1="34" x2="889" y2="34" stroke="#1b75bb" stroke-width="3"/>
<text class="legend" x="895" y="38">mpc</text>
<line x1="1010" y1="34" x2="1034" y2="34" stroke="#111111" stroke-width="2" stroke-dasharray="7 5"/>
<text class="legend" x="1040" y="38">reference</text>
<text class="panel-title" x="76.0" y="120">Output: reactant_concentration [mol/L]</text>
<defs><clipPath id="panel-clip-0"><rect x="76.0" y="136.0" width="604.0" height="144.0"/></clipPath></defs>
<line class="grid" x1="76.00" y1="136.00" x2="76.00" y2="280.00"/>
<text class="tick" text-anchor="middle" x="76.00" y="298.00">0</text>
<line class="grid" x1="227.00" y1="136.00" x2="227.00" y2="280.00"/>
<text class="tick" text-anchor="middle" x="227.00" y="298.00">25</text>
<line class="grid" x1="378.00" y1="136.00" x2="378.00" y2="280.00"/>
<text class="tick" text-anchor="middle" x="378.00" y="298.00">50</text>
<line class="grid" x1="529.00" y1="136.00" x2="529.00" y2="280.00"/>
<text class="tick" text-anchor="middle" x="529.00" y="298.00">75</text>
<line class="grid" x1="680.00" y1="136.00" x2="680.00" y2="280.00"/>
<text class="tick" text-anchor="middle" x="680.00" y="298.00">100</text>
<line class="grid" x1="76.0" y1="280.00" x2="680.0" y2="280.00"/>
<text class="tick" text-anchor="end" x="68.0" y="284.00">0.0647</text>
<line class="grid" x1="76.0" y1="232.00" x2="680.0" y2="232.00"/>
<text class="tick" text-anchor="end" x="68.0" y="236.00">0.0839</text>
<line class="grid" x1="76.0" y1="184.00" x2="680.0" y2="184.00"/>
<text class="tick" text-anchor="end" x="68.0" y="188.00">0.103</text>
<line class="grid" x1="76.0" y1="136.00" x2="680.0" y2="136.00"/>
<text class="tick" text-anchor="end" x="68.0" y="140.00">0.122</text>
<line class="axis" x1="76.0" y1="280.0" x2="680.0" y2="280.0"/>
<line class="axis" x1="76.0" y1="136.0" x2="76.0" y2="280.0"/>
<text class="tick" text-anchor="middle" x="378.00" y="314.0">time [s]</text>
<g clip-path="url(#panel-clip-0)">
<polyline points="82.04,147.08 88.08,147.08 94.12,147.08 100.16,147.08 106.20,147.08 112.24,147.08 118.28,147.08 124.32,147.08 130.36,147.08 136.40,147.08 142.44,147.08 148.48,147.08 154.52,147.08 160.56,147.08 166.60,147.08 172.64,147.08 178.68,147.08 184.72,147.08 190.76,147.08 196.80,147.08 202.84,147.08 208.88,147.08 214.92,147.08 220.96,147.08 227.00,147.08 233.04,147.08 239.08,147.08 245.12,147.08 251.16,147.08 257.20,147.08 263.24,147.08 269.28,147.08 275.32,147.08 281.36,147.08 287.40,147.08 293.44,147.08 299.48,147.08 305.52,147.08 311.56,147.08 317.60,147.08 323.64,147.08 329.68,147.08 335.72,147.08 341.76,147.08 347.80,147.08 353.84,147.08 359.88,147.08 365.92,147.08 371.96,147.08 378.00,147.08 384.04,147.08 390.08,147.08 396.12,147.08 402.16,147.08 408.20,147.08 414.24,147.08 420.28,147.08 426.32,147.08 432.36,147.08 438.40,147.08 444.44,147.08 450.48,147.08 456.52,147.08 462.56,147.08 468.60,147.08 474.64,147.08 480.68,147.08 486.72,147.08 492.76,147.08 498.80,147.08 504.84,147.08 510.88,147.08 516.92,147.08 522.96,147.08 529.00,147.08 535.04,147.08 541.08,147.08 547.12,147.08 553.16,147.08 559.20,147.08 565.24,147.08 571.28,147.08 577.32,147.08 583.36,147.08 589.40,147.08 595.44,147.08 601.48,147.08 607.52,147.08 613.56,147.08 619.60,147.08 625.64,147.08 631.68,147.08 637.72,147.08 643.76,147.08 649.80,147.08 655.84,147.08 661.88,147.08 667.92,147.08 673.96,147.08 680.00,147.08" fill="none" stroke="#111111" stroke-width="1.8" stroke-dasharray="7 5"/>
<polyline points="82.04,268.35 88.08,273.45 94.12,271.30 100.16,264.07 106.20,253.15 112.24,239.40 118.28,223.40 124.32,205.60 130.36,190.75 136.40,177.99 142.44,167.35 148.48,159.18 154.52,153.31 160.56,149.27 166.60,146.59 172.64,144.86 178.68,143.79 184.72,143.15 190.76,142.79 196.80,142.61 202.84,142.55 208.88,142.55 214.92,142.58 220.96,142.64 227.00,142.72 233.04,142.80 239.08,142.88 245.12,142.96 251.16,143.04 257.20,143.13 263.24,143.21 269.28,143.28 275.32,143.36 281.36,143.44 287.40,143.51 293.44,143.58 299.48,143.65 305.52,143.72 311.56,143.79 317.60,143.86 323.64,143.92 329.68,143.99 335.72,144.05 341.76,144.11 347.80,144.17 353.84,144.23 359.88,144.29 365.92,144.35 371.96,144.40 378.00,144.46 384.04,144.51 390.08,144.56 396.12,144.61 402.16,144.66 408.20,144.71 414.24,144.76 420.28,144.81 426.32,144.85 432.36,144.90 438.40,144.94 444.44,144.99 450.48,145.03 456.52,145.07 462.56,145.11 468.60,145.15 474.64,145.19 480.68,145.23 486.72,145.27 492.76,145.31 498.80,145.34 504.84,145.38 510.88,145.41 516.92,145.45 522.96,145.48 529.00,145.51 535.04,145.55 541.08,145.58 547.12,145.61 553.16,145.64 559.20,145.67 565.24,145.70 571.28,145.73 577.32,145.75 583.36,145.78 589.40,145.81 595.44,145.83 601.48,145.86 607.52,145.88 613.56,145.91 619.60,145.93 625.64,145.96 631.68,145.98 637.72,146.00 643.76,146.02 649.80,146.05 655.84,146.07 661.88,146.09 667.92,146.11 673.96,146.13 680.00,146.15" fill="none" stroke="#d95f02" stroke-width="2.2"/>
<polyline points="82.04,268.35 88.08,273.45 94.12,271.30 100.16,264.07 106.20,253.15 112.24,239.40 118.28,223.40 124.32,205.59 130.36,189.05 136.40,176.58 142.44,167.76 148.48,161.62 154.52,157.35 160.56,154.36 166.60,152.27 172.64,150.79 178.68,149.74 184.72,149.00 190.76,148.46 196.80,148.08 202.84,147.80 208.88,147.61 214.92,147.46 220.96,147.36 227.00,147.28 233.04,147.23 239.08,147.19 245.12,147.16 251.16,147.14 257.20,147.12 263.24,147.11 269.28,147.10 275.32,147.10 281.36,147.09 287.40,147.09 293.44,147.08 299.48,147.08 305.52,147.08 311.56,147.08 317.60,147.08 323.64,147.08 329.68,147.08 335.72,147.08 341.76,147.08 347.80,147.08 353.84,147.08 359.88,147.08 365.92,147.08 371.96,147.08 378.00,147.08 384.04,147.08 390.08,147.08 396.12,147.08 402.16,147.08 408.20,147.08 414.24,147.08 420.28,147.08 426.32,147.08 432.36,147.08 438.40,147.08 444.44,147.08 450.48,147.08 456.52,147.08 462.56,147.08 468.60,147.08 474.64,147.08 480.68,147.08 486.72,147.08 492.76,147.08 498.80,147.08 504.84,147.08 510.88,147.08 516.92,147.08 522.96,147.08 529.00,147.08 535.04,147.08 541.08,147.08 547.12,147.08 553.16,147.08 559.20,147.08 565.24,147.08 571.28,147.08 577.32,147.08 583.36,147.08 589.40,147.08 595.44,147.08 601.48,147.08 607.52,147.08 613.56,147.08 619.60,147.08 625.64,147.08 631.68,147.08 637.72,147.08 643.76,147.08 649.80,147.08 655.84,147.08 661.88,147.08 667.92,147.08 673.96,147.08 680.00,147.08" fill="none" stroke="#1b75bb" stroke-width="2.2"/>
</g>
<text class="panel-title" x="76.0" y="345">Output: reactor_temperature [degC]</text>
<defs><clipPath id="panel-clip-2"><rect x="76.0" y="361.0" width="604.0" height="144.0"/></clipPath></defs>
<line class="grid" x1="76.00" y1="361.00" x2="76.00" y2="505.00"/>
<text class="tick" text-anchor="middle" x="76.00" y="523.00">0</text>
<line class="grid" x1="227.00" y1="361.00" x2="227.00" y2="505.00"/>
<text class="tick" text-anchor="middle" x="227.00" y="523.00">25</text>
<line class="grid" x1="378.00" y1="361.00" x2="378.00" y2="505.00"/>
<text class="tick" text-anchor="middle" x="378.00" y="523.00">50</text>
<line class="grid" x1="529.00" y1="361.00" x2="529.00" y2="505.00"/>
<text class="tick" text-anchor="middle" x="529.00" y="523.00">75</text>
<line class="grid" x1="680.00" y1="361.00" x2="680.00" y2="505.00"/>
<text class="tick" text-anchor="middle" x="680.00" y="523.00">100</text>
<line class="grid" x1="76.0" y1="505.00" x2="680.0" y2="505.00"/>
<text class="tick" text-anchor="end" x="68.0" y="509.00">58.6</text>
<line class="grid" x1="76.0" y1="457.00" x2="680.0" y2="457.00"/>
<text class="tick" text-anchor="end" x="68.0" y="461.00">67.8</text>
<line class="grid" x1="76.0" y1="409.00" x2="680.0" y2="409.00"/>
<text class="tick" text-anchor="end" x="68.0" y="413.00">77</text>
<line class="grid" x1="76.0" y1="361.00" x2="680.0" y2="361.00"/>
<text class="tick" text-anchor="end" x="68.0" y="365.00">86.2</text>
<line class="axis" x1="76.0" y1="505.0" x2="680.0" y2="505.0"/>
<line class="axis" x1="76.0" y1="361.0" x2="76.0" y2="505.0"/>
<text class="tick" text-anchor="middle" x="378.00" y="539.0">time [s]</text>
<g clip-path="url(#panel-clip-2)">
<polyline points="82.04,497.58 88.08,497.58 94.12,497.58 100.16,497.58 106.20,497.58 112.24,497.58 118.28,497.58 124.32,497.58 130.36,497.58 136.40,497.58 142.44,497.58 148.48,497.58 154.52,497.58 160.56,497.58 166.60,497.58 172.64,497.58 178.68,497.58 184.72,497.58 190.76,497.58 196.80,497.58 202.84,497.58 208.88,497.58 214.92,497.58 220.96,497.58 227.00,497.58 233.04,497.58 239.08,497.58 245.12,497.58 251.16,497.58 257.20,497.58 263.24,497.58 269.28,497.58 275.32,497.58 281.36,497.58 287.40,497.58 293.44,497.58 299.48,497.58 305.52,497.58 311.56,497.58 317.60,497.58 323.64,497.58 329.68,497.58 335.72,497.58 341.76,497.58 347.80,497.58 353.84,497.58 359.88,497.58 365.92,497.58 371.96,497.58 378.00,497.58 384.04,497.58 390.08,497.58 396.12,497.58 402.16,497.58 408.20,497.58 414.24,497.58 420.28,497.58 426.32,497.58 432.36,497.58 438.40,497.58 444.44,497.58 450.48,497.58 456.52,497.58 462.56,497.58 468.60,497.58 474.64,497.58 480.68,497.58 486.72,497.58 492.76,497.58 498.80,497.58 504.84,497.58 510.88,497.58 516.92,497.58 522.96,497.58 529.00,497.58 535.04,497.58 541.08,497.58 547.12,497.58 553.16,497.58 559.20,497.58 565.24,497.58 571.28,497.58 577.32,497.58 583.36,497.58 589.40,497.58 595.44,497.58 601.48,497.58 607.52,497.58 613.56,497.58 619.60,497.58 625.64,497.58 631.68,497.58 637.72,497.58 643.76,497.58 649.80,497.58 655.84,497.58 661.88,497.58 667.92,497.58 673.96,497.58 680.00,497.58" fill="none" stroke="#111111" stroke-width="1.8" stroke-dasharray="7 5"/>
<polyline points="82.04,367.55 88.08,380.47 94.12,394.26 100.16,408.35 106.20,422.43 112.24,436.29 118.28,449.82 124.32,462.97 130.36,475.25 136.40,486.85 142.44,493.69 148.48,496.74 154.52,498.00 160.56,498.42 166.60,498.45 172.64,498.35 178.68,498.21 184.72,498.08 190.76,497.97 196.80,497.89 202.84,497.84 208.88,497.80 214.92,497.77 220.96,497.75 227.00,497.74 233.04,497.74 239.08,497.73 245.12,497.73 251.16,497.72 257.20,497.72 263.24,497.72 269.28,497.72 275.32,497.72 281.36,497.71 287.40,497.71 293.44,497.71 299.48,497.71 305.52,497.71 311.56,497.71 317.60,497.71 323.64,497.70 329.68,497.70 335.72,497.70 341.76,497.70 347.80,497.70 353.84,497.70 359.88,497.70 365.92,497.69 371.96,497.69 378.00,497.69 384.04,497.69 390.08,497.69 396.12,497.69 402.16,497.69 408.20,497.68 414.24,497.68 420.28,497.68 426.32,497.68 432.36,497.68 438.40,497.68 444.44,497.68 450.48,497.68 456.52,497.67 462.56,497.67 468.60,497.67 474.64,497.67 480.68,497.67 486.72,497.67 492.76,497.67 498.80,497.67 504.84,497.66 510.88,497.66 516.92,497.66 522.96,497.66 529.00,497.66 535.04,497.66 541.08,497.66 547.12,497.66 553.16,497.66 559.20,497.65 565.24,497.65 571.28,497.65 577.32,497.65 583.36,497.65 589.40,497.65 595.44,497.65 601.48,497.65 607.52,497.65 613.56,497.65 619.60,497.64 625.64,497.64 631.68,497.64 637.72,497.64 643.76,497.64 649.80,497.64 655.84,497.64 661.88,497.64 667.92,497.64 673.96,497.64 680.00,497.64" fill="none" stroke="#d95f02" stroke-width="2.2"/>
<polyline points="82.04,367.55 88.08,380.47 94.12,394.26 100.16,408.35 106.20,422.43 112.24,436.29 118.28,449.82 124.32,462.75 130.36,472.33 136.40,479.11 142.44,483.99 148.48,487.55 154.52,490.15 160.56,492.07 166.60,493.49 172.64,494.54 178.68,495.32 184.72,495.90 190.76,496.33 196.80,496.65 202.84,496.89 208.88,497.07 214.92,497.20 220.96,497.30 227.00,497.37 233.04,497.43 239.08,497.47 245.12,497.50 251.16,497.52 257.20,497.54 263.24,497.55 269.28,497.56 275.32,497.56 281.36,497.57 287.40,497.57 293.44,497.58 299.48,497.58 305.52,497.58 311.56,497.58 317.60,497.58 323.64,497.58 329.68,497.58 335.72,497.58 341.76,497.58 347.80,497.58 353.84,497.58 359.88,497.58 365.92,497.58 371.96,497.58 378.00,497.58 384.04,497.58 390.08,497.58 396.12,497.58 402.16,497.58 408.20,497.58 414.24,497.58 420.28,497.58 426.32,497.58 432.36,497.58 438.40,497.58 444.44,497.58 450.48,497.58 456.52,497.58 462.56,497.58 468.60,497.58 474.64,497.58 480.68,497.58 486.72,497.58 492.76,497.58 498.80,497.58 504.84,497.58 510.88,497.58 516.92,497.58 522.96,497.58 529.00,497.58 535.04,497.58 541.08,497.58 547.12,497.58 553.16,497.58 559.20,497.58 565.24,497.58 571.28,497.58 577.32,497.58 583.36,497.58 589.40,497.58 595.44,497.58 601.48,497.58 607.52,497.58 613.56,497.58 619.60,497.58 625.64,497.58 631.68,497.58 637.72,497.58 643.76,497.58 649.80,497.58 655.84,497.58 661.88,497.58 667.92,497.58 673.96,497.58 680.00,497.58" fill="none" stroke="#1b75bb" stroke-width="2.2"/>
</g>
<text class="panel-title" x="796.0" y="120">Applied action: feed_pump [normalized_flow]</text>
<defs><clipPath id="panel-clip-1"><rect x="796.0" y="136.0" width="604.0" height="144.0"/></clipPath></defs>
<line class="grid" x1="796.00" y1="136.00" x2="796.00" y2="280.00"/>
<text class="tick" text-anchor="middle" x="796.00" y="298.00">0</text>
<line class="grid" x1="947.00" y1="136.00" x2="947.00" y2="280.00"/>
<text class="tick" text-anchor="middle" x="947.00" y="298.00">25</text>
<line class="grid" x1="1098.00" y1="136.00" x2="1098.00" y2="280.00"/>
<text class="tick" text-anchor="middle" x="1098.00" y="298.00">50</text>
<line class="grid" x1="1249.00" y1="136.00" x2="1249.00" y2="280.00"/>
<text class="tick" text-anchor="middle" x="1249.00" y="298.00">75</text>
<line class="grid" x1="1400.00" y1="136.00" x2="1400.00" y2="280.00"/>
<text class="tick" text-anchor="middle" x="1400.00" y="298.00">100</text>
<line class="grid" x1="796.0" y1="280.00" x2="1400.0" y2="280.00"/>
<text class="tick" text-anchor="end" x="788.0" y="284.00">0</text>
<line class="grid" x1="796.0" y1="232.00" x2="1400.0" y2="232.00"/>
<text class="tick" text-anchor="end" x="788.0" y="236.00">0.333</text>
<line class="grid" x1="796.0" y1="184.00" x2="1400.0" y2="184.00"/>
<text class="tick" text-anchor="end" x="788.0" y="188.00">0.667</text>
<line class="grid" x1="796.0" y1="136.00" x2="1400.0" y2="136.00"/>
<text class="tick" text-anchor="end" x="788.0" y="140.00">1</text>
<line class="axis" x1="796.0" y1="280.0" x2="1400.0" y2="280.0"/>
<line class="axis" x1="796.0" y1="136.0" x2="796.0" y2="280.0"/>
<text class="tick" text-anchor="middle" x="1098.00" y="314.0">time [s]</text>
<g clip-path="url(#panel-clip-1)">
<polyline points="802.04,136.00 808.08,136.00 814.12,136.00 820.16,136.00 826.20,136.00 832.24,136.00 838.28,136.00 844.32,136.15 850.36,151.15 856.40,163.79 862.44,174.80 868.48,184.11 874.52,191.33 880.56,196.58 886.60,200.24 892.64,202.72 898.68,204.35 904.72,205.41 910.76,206.09 916.80,206.52 922.84,206.78 928.88,206.95 934.92,207.05 940.96,207.12 947.00,207.17 953.04,207.20 959.08,207.23 965.12,207.25 971.16,207.26 977.20,207.28 983.24,207.30 989.28,207.31 995.32,207.33 1001.36,207.34 1007.40,207.36 1013.44,207.37 1019.48,207.39 1025.52,207.40 1031.56,207.41 1037.60,207.43 1043.64,207.44 1049.68,207.45 1055.72,207.46 1061.76,207.47 1067.80,207.49 1073.84,207.50 1079.88,207.51 1085.92,207.52 1091.96,207.53 1098.00,207.54 1104.04,207.55 1110.08,207.56 1116.12,207.57 1122.16,207.58 1128.20,207.59 1134.24,207.60 1140.28,207.61 1146.32,207.62 1152.36,207.62 1158.40,207.63 1164.44,207.64 1170.48,207.65 1176.52,207.66 1182.56,207.66 1188.60,207.67 1194.64,207.68 1200.68,207.69 1206.72,207.69 1212.76,207.70 1218.80,207.71 1224.84,207.71 1230.88,207.72 1236.92,207.72 1242.96,207.73 1249.00,207.74 1255.04,207.74 1261.08,207.75 1267.12,207.75 1273.16,207.76 1279.20,207.76 1285.24,207.77 1291.28,207.77 1297.32,207.78 1303.36,207.78 1309.40,207.79 1315.44,207.79 1321.48,207.80 1327.52,207.80 1333.56,207.81 1339.60,207.81 1345.64,207.82 1351.68,207.82 1357.72,207.82 1363.76,207.83 1369.80,207.83 1375.84,207.84 1381.88,207.84 1387.92,207.84 1393.96,207.85 1400.00,207.85" fill="none" stroke="#d95f02" stroke-width="2.2"/>
<polyline points="802.04,136.00 808.08,136.00 814.12,136.00 820.16,136.00 826.20,136.00 832.24,136.00 838.28,136.00 844.32,136.00 850.36,143.90 856.40,159.23 862.44,172.67 868.48,182.76 874.52,189.99 880.56,195.11 886.60,198.73 892.64,201.31 898.68,203.16 904.72,204.49 910.76,205.44 916.80,206.14 922.84,206.64 928.88,207.00 934.92,207.27 940.96,207.46 947.00,207.60 953.04,207.71 959.08,207.79 965.12,207.84 971.16,207.88 977.20,207.91 983.24,207.94 989.28,207.95 995.32,207.96 1001.36,207.97 1007.40,207.98 1013.44,207.99 1019.48,207.99 1025.52,207.99 1031.56,207.99 1037.60,208.00 1043.64,208.00 1049.68,208.00 1055.72,208.00 1061.76,208.00 1067.80,208.00 1073.84,208.00 1079.88,208.00 1085.92,208.00 1091.96,208.00 1098.00,208.00 1104.04,208.00 1110.08,208.00 1116.12,208.00 1122.16,208.00 1128.20,208.00 1134.24,208.00 1140.28,208.00 1146.32,208.00 1152.36,208.00 1158.40,208.00 1164.44,208.00 1170.48,208.00 1176.52,208.00 1182.56,208.00 1188.60,208.00 1194.64,208.00 1200.68,208.00 1206.72,208.00 1212.76,208.00 1218.80,208.00 1224.84,208.00 1230.88,208.00 1236.92,208.00 1242.96,208.00 1249.00,208.00 1255.04,208.00 1261.08,208.00 1267.12,208.00 1273.16,208.00 1279.20,208.00 1285.24,208.00 1291.28,208.00 1297.32,208.00 1303.36,208.00 1309.40,208.00 1315.44,208.00 1321.48,208.00 1327.52,208.00 1333.56,208.00 1339.60,208.00 1345.64,208.00 1351.68,208.00 1357.72,208.00 1363.76,208.00 1369.80,208.00 1375.84,208.00 1381.88,208.00 1387.92,208.00 1393.96,208.00 1400.00,208.00" fill="none" stroke="#1b75bb" stroke-width="2.2"/>
</g>
<text class="panel-title" x="796.0" y="345">Applied action: cooling [normalized_cooling]</text>
<defs><clipPath id="panel-clip-3"><rect x="796.0" y="361.0" width="604.0" height="144.0"/></clipPath></defs>
<line class="grid" x1="796.00" y1="361.00" x2="796.00" y2="505.00"/>
<text class="tick" text-anchor="middle" x="796.00" y="523.00">0</text>
<line class="grid" x1="947.00" y1="361.00" x2="947.00" y2="505.00"/>
<text class="tick" text-anchor="middle" x="947.00" y="523.00">25</text>
<line class="grid" x1="1098.00" y1="361.00" x2="1098.00" y2="505.00"/>
<text class="tick" text-anchor="middle" x="1098.00" y="523.00">50</text>
<line class="grid" x1="1249.00" y1="361.00" x2="1249.00" y2="505.00"/>
<text class="tick" text-anchor="middle" x="1249.00" y="523.00">75</text>
<line class="grid" x1="1400.00" y1="361.00" x2="1400.00" y2="505.00"/>
<text class="tick" text-anchor="middle" x="1400.00" y="523.00">100</text>
<line class="grid" x1="796.0" y1="505.00" x2="1400.0" y2="505.00"/>
<text class="tick" text-anchor="end" x="788.0" y="509.00">0</text>
<line class="grid" x1="796.0" y1="457.00" x2="1400.0" y2="457.00"/>
<text class="tick" text-anchor="end" x="788.0" y="461.00">0.333</text>
<line class="grid" x1="796.0" y1="409.00" x2="1400.0" y2="409.00"/>
<text class="tick" text-anchor="end" x="788.0" y="413.00">0.667</text>
<line class="grid" x1="796.0" y1="361.00" x2="1400.0" y2="361.00"/>
<text class="tick" text-anchor="end" x="788.0" y="365.00">1</text>
<line class="axis" x1="796.0" y1="505.0" x2="1400.0" y2="505.0"/>
<line class="axis" x1="796.0" y1="361.0" x2="796.0" y2="505.0"/>
<text class="tick" text-anchor="middle" x="1098.00" y="539.0">time [s]</text>
<g clip-path="url(#panel-clip-3)">
<polyline points="802.04,361.00 808.08,361.00 814.12,361.00 820.16,361.00 826.20,361.00 832.24,361.00 838.28,361.00 844.32,361.00 850.36,361.00 856.40,361.00 862.44,406.22 868.48,443.47 874.52,460.26 880.56,467.29 886.60,469.69 892.64,470.02 898.68,469.55 904.72,468.86 910.76,468.20 916.80,467.67 922.84,467.28 928.88,467.00 934.92,466.82 940.96,466.70 947.00,466.62 953.04,466.58 959.08,466.56 965.12,466.55 971.16,466.55 977.20,466.55 983.24,466.56 989.28,466.57 995.32,466.58 1001.36,466.59 1007.40,466.60 1013.44,466.61 1019.48,466.62 1025.52,466.63 1031.56,466.63 1037.60,466.64 1043.64,466.65 1049.68,466.66 1055.72,466.67 1061.76,466.68 1067.80,466.69 1073.84,466.69 1079.88,466.70 1085.92,466.71 1091.96,466.72 1098.00,466.72 1104.04,466.73 1110.08,466.74 1116.12,466.75 1122.16,466.75 1128.20,466.76 1134.24,466.77 1140.28,466.77 1146.32,466.78 1152.36,466.78 1158.40,466.79 1164.44,466.80 1170.48,466.80 1176.52,466.81 1182.56,466.81 1188.60,466.82 1194.64,466.82 1200.68,466.83 1206.72,466.83 1212.76,466.84 1218.80,466.84 1224.84,466.85 1230.88,466.85 1236.92,466.86 1242.96,466.86 1249.00,466.86 1255.04,466.87 1261.08,466.87 1267.12,466.88 1273.16,466.88 1279.20,466.88 1285.24,466.89 1291.28,466.89 1297.32,466.89 1303.36,466.90 1309.40,466.90 1315.44,466.90 1321.48,466.91 1327.52,466.91 1333.56,466.91 1339.60,466.92 1345.64,466.92 1351.68,466.92 1357.72,466.93 1363.76,466.93 1369.80,466.93 1375.84,466.93 1381.88,466.94 1387.92,466.94 1393.96,466.94 1400.00,466.94" fill="none" stroke="#d95f02" stroke-width="2.2"/>
<polyline points="802.04,361.00 808.08,361.00 814.12,361.00 820.16,361.00 826.20,361.00 832.24,361.00 838.28,361.00 844.32,363.07 850.36,389.88 856.40,410.94 862.44,425.30 868.48,435.64 874.52,443.35 880.56,449.18 886.60,453.59 892.64,456.93 898.68,459.45 904.72,461.35 910.76,462.78 916.80,463.85 922.84,464.66 928.88,465.26 934.92,465.71 940.96,466.05 947.00,466.31 953.04,466.50 959.08,466.64 965.12,466.74 971.16,466.82 977.20,466.88 983.24,466.93 989.28,466.96 995.32,466.98 1001.36,467.00 1007.40,467.02 1013.44,467.03 1019.48,467.03 1025.52,467.04 1031.56,467.04 1037.60,467.05 1043.64,467.05 1049.68,467.05 1055.72,467.05 1061.76,467.05 1067.80,467.05 1073.84,467.05 1079.88,467.06 1085.92,467.06 1091.96,467.06 1098.00,467.06 1104.04,467.06 1110.08,467.06 1116.12,467.06 1122.16,467.06 1128.20,467.06 1134.24,467.06 1140.28,467.06 1146.32,467.06 1152.36,467.06 1158.40,467.06 1164.44,467.06 1170.48,467.06 1176.52,467.06 1182.56,467.06 1188.60,467.06 1194.64,467.06 1200.68,467.06 1206.72,467.06 1212.76,467.06 1218.80,467.06 1224.84,467.06 1230.88,467.06 1236.92,467.06 1242.96,467.06 1249.00,467.06 1255.04,467.06 1261.08,467.06 1267.12,467.06 1273.16,467.06 1279.20,467.06 1285.24,467.06 1291.28,467.06 1297.32,467.06 1303.36,467.06 1309.40,467.06 1315.44,467.06 1321.48,467.06 1327.52,467.06 1333.56,467.06 1339.60,467.06 1345.64,467.06 1351.68,467.06 1357.72,467.06 1363.76,467.06 1369.80,467.06 1375.84,467.06 1381.88,467.06 1387.92,467.06 1393.96,467.06 1400.00,467.06" fill="none" stroke="#1b75bb" stroke-width="2.2"/>
</g>
<text class="panel-title" x="796.0" y="570">Closest state-boundary distance [fraction]</text>
<defs><clipPath id="panel-clip-5"><rect x="796.0" y="586.0" width="604.0" height="144.0"/></clipPath></defs>
<line class="grid" x1="796.00" y1="586.00" x2="796.00" y2="730.00"/>
<text class="tick" text-anchor="middle" x="796.00" y="748.00">0</text>
<line class="grid" x1="947.00" y1="586.00" x2="947.00" y2="730.00"/>
<text class="tick" text-anchor="middle" x="947.00" y="748.00">25</text>
<line class="grid" x1="1098.00" y1="586.00" x2="1098.00" y2="730.00"/>
<text class="tick" text-anchor="middle" x="1098.00" y="748.00">50</text>
<line class="grid" x1="1249.00" y1="586.00" x2="1249.00" y2="730.00"/>
<text class="tick" text-anchor="middle" x="1249.00" y="748.00">75</text>
<line class="grid" x1="1400.00" y1="586.00" x2="1400.00" y2="730.00"/>
<text class="tick" text-anchor="middle" x="1400.00" y="748.00">100</text>
<line class="grid" x1="796.0" y1="730.00" x2="1400.0" y2="730.00"/>
<text class="tick" text-anchor="end" x="788.0" y="734.00">0</text>
<line class="grid" x1="796.0" y1="682.00" x2="1400.0" y2="682.00"/>
<text class="tick" text-anchor="end" x="788.0" y="686.00">0.0279</text>
<line class="grid" x1="796.0" y1="634.00" x2="1400.0" y2="634.00"/>
<text class="tick" text-anchor="end" x="788.0" y="638.00">0.0558</text>
<line class="grid" x1="796.0" y1="586.00" x2="1400.0" y2="586.00"/>
<text class="tick" text-anchor="end" x="788.0" y="590.00">0.0837</text>
<line class="axis" x1="796.0" y1="730.0" x2="1400.0" y2="730.0"/>
<line class="axis" x1="796.0" y1="586.0" x2="796.0" y2="730.0"/>
<text class="tick" text-anchor="middle" x="1098.00" y="764.0">time [s]</text>
<g clip-path="url(#panel-clip-5)">
<line x1="796.0" y1="730.00" x2="1400.0" y2="730.00" stroke="#c62828" stroke-width="1.5" stroke-dasharray="6 5"/>
<polyline points="802.04,650.40 808.08,652.74 814.12,651.75 820.16,648.44 826.20,643.45 832.24,637.16 838.28,629.84 844.32,621.70 850.36,614.91 856.40,609.07 862.44,604.20 868.48,600.47 874.52,597.78 880.56,595.93 886.60,594.71 892.64,593.92 898.68,593.43 904.72,593.13 910.76,592.97 916.80,592.89 922.84,592.86 928.88,592.86 934.92,592.87 940.96,592.90 947.00,592.94 953.04,592.97 959.08,593.01 965.12,593.05 971.16,593.09 977.20,593.12 983.24,593.16 989.28,593.20 995.32,593.23 1001.36,593.26 1007.40,593.30 1013.44,593.33 1019.48,593.36 1025.52,593.40 1031.56,593.43 1037.60,593.46 1043.64,593.49 1049.68,593.52 1055.72,593.55 1061.76,593.57 1067.80,593.60 1073.84,593.63 1079.88,593.65 1085.92,593.68 1091.96,593.71 1098.00,593.73 1104.04,593.76 1110.08,593.78 1116.12,593.80 1122.16,593.83 1128.20,593.85 1134.24,593.87 1140.28,593.89 1146.32,593.91 1152.36,593.93 1158.40,593.95 1164.44,593.97 1170.48,593.99 1176.52,594.01 1182.56,594.03 1188.60,594.05 1194.64,594.07 1200.68,594.09 1206.72,594.10 1212.76,594.12 1218.80,594.14 1224.84,594.15 1230.88,594.17 1236.92,594.18 1242.96,594.20 1249.00,594.21 1255.04,594.23 1261.08,594.24 1267.12,594.26 1273.16,594.27 1279.20,594.29 1285.24,594.30 1291.28,594.31 1297.32,594.32 1303.36,594.34 1309.40,594.35 1315.44,594.36 1321.48,594.37 1327.52,594.38 1333.56,594.40 1339.60,594.41 1345.64,594.42 1351.68,594.43 1357.72,594.44 1363.76,594.45 1369.80,594.46 1375.84,594.47 1381.88,594.48 1387.92,594.49 1393.96,594.50 1400.00,594.50" fill="none" stroke="#d95f02" stroke-width="2.2"/>
<circle cx="808.08" cy="652.74" r="4.5" fill="#d95f02" stroke="#ffffff" stroke-width="1.5"><title>pid: reactant concentration lower, 0.0449 @ 2 s</title></circle>
<polyline points="802.04,650.40 808.08,652.74 814.12,651.75 820.16,648.44 826.20,643.45 832.24,637.16 838.28,629.84 844.32,621.70 850.36,614.13 856.40,608.43 862.44,604.39 868.48,601.58 874.52,599.63 880.56,598.26 886.60,597.30 892.64,596.63 898.68,596.15 904.72,595.81 910.76,595.56 916.80,595.39 922.84,595.26 928.88,595.17 934.92,595.11 940.96,595.06 947.00,595.02 953.04,595.00 959.08,594.98 965.12,594.97 971.16,594.96 977.20,594.95 983.24,594.94 989.28,594.94 995.32,594.94 1001.36,594.94 1007.40,594.93 1013.44,594.93 1019.48,594.93 1025.52,594.93 1031.56,594.93 1037.60,594.93 1043.64,594.93 1049.68,594.93 1055.72,594.93 1061.76,594.93 1067.80,594.93 1073.84,594.93 1079.88,594.93 1085.92,594.93 1091.96,594.93 1098.00,594.93 1104.04,594.93 1110.08,594.93 1116.12,594.93 1122.16,594.93 1128.20,594.93 1134.24,594.93 1140.28,594.93 1146.32,594.93 1152.36,594.93 1158.40,594.93 1164.44,594.93 1170.48,594.93 1176.52,594.93 1182.56,594.93 1188.60,594.93 1194.64,594.93 1200.68,594.93 1206.72,594.93 1212.76,594.93 1218.80,594.93 1224.84,594.93 1230.88,594.93 1236.92,594.93 1242.96,594.93 1249.00,594.93 1255.04,594.93 1261.08,594.93 1267.12,594.93 1273.16,594.93 1279.20,594.93 1285.24,594.93 1291.28,594.93 1297.32,594.93 1303.36,594.93 1309.40,594.93 1315.44,594.93 1321.48,594.93 1327.52,594.93 1333.56,594.93 1339.60,594.93 1345.64,594.93 1351.68,594.93 1357.72,594.93 1363.76,594.93 1369.80,594.93 1375.84,594.93 1381.88,594.93 1387.92,594.93 1393.96,594.93 1400.00,594.93" fill="none" stroke="#1b75bb" stroke-width="2.2"/>
<circle cx="808.08" cy="652.74" r="4.5" fill="#1b75bb" stroke="#ffffff" stroke-width="1.5"><title>mpc: reactant concentration lower, 0.0449 @ 2 s</title></circle>
</g>
<rect x="1070.00" y="590.00" width="330.00" height="36.00" rx="4" fill="#ffffff" fill-opacity="0.88" stroke="#dadce0"/>
<text class="tick" text-anchor="end" x="1393.00" y="603.00" style="fill:#d95f02">pid: reactant concentration lower, 0.0449 fraction @ 2 s</text>
<text class="tick" text-anchor="end" x="1393.00" y="617.00" style="fill:#1b75bb">mpc: reactant concentration lower, 0.0449 fraction @ 2 s</text>
<text class="panel-title" x="76" y="797">Cumulative return by policy</text>
<text class="tick" x="720" y="797">circles: all return seeds; diamond: median</text>
<line class="grid" x1="160.00" y1="817.00" x2="160.00" y2="885.00"/>
<text class="tick" text-anchor="middle" x="160.00" y="903.00">-1.19</text>
<line class="grid" x1="470.00" y1="817.00" x2="470.00" y2="885.00"/>
<text class="tick" text-anchor="middle" x="470.00" y="903.00">-1.07</text>
<line class="grid" x1="780.00" y1="817.00" x2="780.00" y2="885.00"/>
<text class="tick" text-anchor="middle" x="780.00" y="903.00">-0.942</text>
<line class="grid" x1="1090.00" y1="817.00" x2="1090.00" y2="885.00"/>
<text class="tick" text-anchor="middle" x="1090.00" y="903.00">-0.82</text>
<line class="grid" x1="1400.00" y1="817.00" x2="1400.00" y2="885.00"/>
<text class="tick" text-anchor="middle" x="1400.00" y="903.00">-0.697</text>
<line class="grid" x1="160.0" y1="834.00" x2="1400.0" y2="834.00"/>
<text class="legend" text-anchor="end" x="148.0" y="838.00">pid</text>
<circle cx="1141.61" cy="828.00" r="4" fill="#d95f02" fill-opacity="0.48"><title>seed 0: -0.799</title></circle>
<circle cx="1021.78" cy="828.63" r="4" fill="#d95f02" fill-opacity="0.48"><title>seed 1: -0.847</title></circle>
<circle cx="412.67" cy="829.26" r="4" fill="#d95f02" fill-opacity="0.48"><title>seed 2: -1.09</title></circle>
<circle cx="922.87" cy="829.89" r="4" fill="#d95f02" fill-opacity="0.48"><title>seed 3: -0.886</title></circle>
<circle cx="651.91" cy="830.53" r="4" fill="#d95f02" fill-opacity="0.48"><title>seed 4: -0.993</title></circle>
<circle cx="417.36" cy="831.16" r="4" fill="#d95f02" fill-opacity="0.48"><title>seed 5: -1.09</title></circle>
<circle cx="1084.84" cy="831.79" r="4" fill="#d95f02" fill-opacity="0.48"><title>seed 6: -0.822</title></circle>
<circle cx="749.24" cy="832.42" r="4" fill="#d95f02" fill-opacity="0.48"><title>seed 7: -0.955</title></circle>
<circle cx="649.98" cy="833.05" r="4" fill="#d95f02" fill-opacity="0.48"><title>seed 8: -0.994</title></circle>
<circle cx="1343.64" cy="833.68" r="4" fill="#d95f02" fill-opacity="0.48"><title>seed 9: -0.72</title></circle>
<circle cx="668.79" cy="834.32" r="4" fill="#d95f02" fill-opacity="0.48"><title>seed 10: -0.986</title></circle>
<circle cx="1266.11" cy="834.95" r="4" fill="#d95f02" fill-opacity="0.48"><title>seed 11: -0.75</title></circle>
<circle cx="468.70" cy="835.58" r="4" fill="#d95f02" fill-opacity="0.48"><title>seed 12: -1.07</title></circle>
<circle cx="815.21" cy="836.21" r="4" fill="#d95f02" fill-opacity="0.48"><title>seed 13: -0.929</title></circle>
<circle cx="1048.84" cy="836.84" r="4" fill="#d95f02" fill-opacity="0.48"><title>seed 14: -0.836</title></circle>
<circle cx="235.87" cy="837.47" r="4" fill="#d95f02" fill-opacity="0.48"><title>seed 15: -1.16</title></circle>
<circle cx="859.64" cy="838.11" r="4" fill="#d95f02" fill-opacity="0.48"><title>seed 16: -0.911</title></circle>
<circle cx="411.12" cy="838.74" r="4" fill="#d95f02" fill-opacity="0.48"><title>seed 17: -1.09</title></circle>
<circle cx="845.39" cy="839.37" r="4" fill="#d95f02" fill-opacity="0.48"><title>seed 18: -0.917</title></circle>
<circle cx="478.22" cy="840.00" r="4" fill="#d95f02" fill-opacity="0.48"><title>seed 19: -1.06</title></circle>
<polygon points="782.22,827.00 789.22,834.00 782.22,841.00 775.22,834.00" fill="#d95f02" stroke="#202124" stroke-width="1"/>
<line class="grid" x1="160.0" y1="868.00" x2="1400.0" y2="868.00"/>
<text class="legend" text-anchor="end" x="148.0" y="872.00">mpc</text>
<circle cx="1127.54" cy="862.00" r="4" fill="#1b75bb" fill-opacity="0.48"><title>seed 0: -0.805</title></circle>
<circle cx="1006.84" cy="862.63" r="4" fill="#1b75bb" fill-opacity="0.48"><title>seed 1: -0.853</title></circle>
<circle cx="393.40" cy="863.26" r="4" fill="#1b75bb" fill-opacity="0.48"><title>seed 2: -1.1</title></circle>
<circle cx="908.29" cy="863.89" r="4" fill="#1b75bb" fill-opacity="0.48"><title>seed 3: -0.892</title></circle>
<circle cx="635.28" cy="864.53" r="4" fill="#1b75bb" fill-opacity="0.48"><title>seed 4: -1</title></circle>
<circle cx="398.51" cy="865.16" r="4" fill="#1b75bb" fill-opacity="0.48"><title>seed 5: -1.09</title></circle>
<circle cx="1068.26" cy="865.79" r="4" fill="#1b75bb" fill-opacity="0.48"><title>seed 6: -0.828</title></circle>
<circle cx="733.94" cy="866.42" r="4" fill="#1b75bb" fill-opacity="0.48"><title>seed 7: -0.961</title></circle>
<circle cx="633.34" cy="867.05" r="4" fill="#1b75bb" fill-opacity="0.48"><title>seed 8: -1</title></circle>
<circle cx="1331.79" cy="867.68" r="4" fill="#1b75bb" fill-opacity="0.48"><title>seed 9: -0.724</title></circle>
<circle cx="652.40" cy="868.32" r="4" fill="#1b75bb" fill-opacity="0.48"><title>seed 10: -0.993</title></circle>
<circle cx="1251.72" cy="868.95" r="4" fill="#1b75bb" fill-opacity="0.48"><title>seed 11: -0.756</title></circle>
<circle cx="449.85" cy="869.58" r="4" fill="#1b75bb" fill-opacity="0.48"><title>seed 12: -1.07</title></circle>
<circle cx="799.77" cy="870.21" r="4" fill="#1b75bb" fill-opacity="0.48"><title>seed 13: -0.935</title></circle>
<circle cx="1033.50" cy="870.84" r="4" fill="#1b75bb" fill-opacity="0.48"><title>seed 14: -0.842</title></circle>
<circle cx="216.36" cy="871.47" r="4" fill="#1b75bb" fill-opacity="0.48"><title>seed 15: -1.17</title></circle>
<circle cx="843.55" cy="872.11" r="4" fill="#1b75bb" fill-opacity="0.48"><title>seed 16: -0.917</title></circle>
<circle cx="391.86" cy="872.74" r="4" fill="#1b75bb" fill-opacity="0.48"><title>seed 17: -1.1</title></circle>
<circle cx="830.58" cy="873.37" r="4" fill="#1b75bb" fill-opacity="0.48"><title>seed 18: -0.922</title></circle>
<circle cx="459.36" cy="874.00" r="4" fill="#1b75bb" fill-opacity="0.48"><title>seed 19: -1.07</title></circle>
<polygon points="766.86,861.00 773.86,868.00 766.86,875.00 759.86,868.00" fill="#1b75bb" stroke="#202124" stroke-width="1"/>
<line class="axis" x1="160.0" y1="885.0" x2="1400.0" y2="885.0"/>
<text class="tick" text-anchor="middle" x="780.00" y="921.0">episode return (higher is better)</text>
</svg>
