<?xml version="1.0" encoding="UTF-8"?>
<svg xmlns="http://www.w3.org/2000/svg" width="1440" height="1060" viewBox="0 0 1440 1060">
<style>
text{font-family:-apple-system,BlinkMacSystemFont,'Segoe UI',sans-serif;fill:#202124}
.title{font-size:24px;font-weight:650}.panel-title{font-size:15px;font-weight:600}
.axis{stroke:#5f6368;stroke-width:1}.grid{stroke:#dadce0;stroke-width:1}
.tick{font-size:11px;fill:#5f6368}.legend{font-size:12px}
</style>
<rect width="100%" height="100%" fill="#ffffff"/>
<text class="title" x="64" y="38">cstr policy comparison</text>
<text class="tick" x="64" y="62">trajectory seed: 0; return seeds: 0, 1, 2, 3, 4, 5, 6, 7, 8, 9, 10, 11, 12, 13, 14, 15, 16, 17, 18, 19</text>
<line x1="720" y1="34" x2="744" y2="34" stroke="#d95f02" stroke-width="3"/>
<text class="legend" x="750" y="38">pid</text>
<line x1="865" y1="34" x2="889" y2="34" stroke="#1b75bb" stroke-width="3"/>
<text class="legend" x="895" y="38">mpc</text>
<line x1="1010" y1="34" x2="1034" y2="34" stroke="#111111" stroke-width="2" stroke-dasharray="7 5"/>
<text class="legend" x="1040" y="38">reference</text>
<text class="panel-title" x="76.0" y="120">Output: reactant_concentration [mol/L]</text>
<defs><clipPath id="panel-clip-0"><rect x="76.0" y="136.0" width="604.0" height="144.0"/></clipPath></defs>
<line class="grid" x1="76.00" y1="136.00" x2="76.00" y2="280.00"/>
<text class="tick" text-anchor="middle" x="76.00" y="298.00">0</text>
<line class="grid" x1="227.00" y1="136.00" x2="227.00" y2="280.00"/>
<text class="tick" text-anchor="middle" x="227.00" y="298.00">56.2</text>
<line class="grid" x1="378.00" y1="136.00" x2="378.00" y2="280.00"/>
<text class="tick" text-anchor="middle" x="378.00" y="298.00">112</text>
<line class="grid" x1="529.00" y1="136.00" x2="529.00" y2="280.00"/>
<text class="tick" text-anchor="middle" x="529.00" y="298.00">169</text>
<line class="grid" x1="680.00" y1="136.00" x2="680.00" y2="280.00"/>
<text class="tick" text-anchor="middle" x="680.00" y="298.00">225</text>
<line class="grid" x1="76.0" y1="280.00" x2="680.0" y2="280.00"/>
<text class="tick" text-anchor="end" x="68.0" y="284.00">0.052</text>
<line class="grid" x1="76.0" y1="232.00" x2="680.0" y2="232.00"/>
<text class="tick" text-anchor="end" x="68.0" y="236.00">0.0982</text>
<line class="grid" x1="76.0" y1="184.00" x2="680.0" y2="184.00"/>
<text class="tick" text-anchor="end" x="68.0" y="188.00">0.145</text>
<line class="grid" x1="76.0" y1="136.00" x2="680.0" y2="136.00"/>
<text class="tick" text-anchor="end" x="68.0" y="140.00">0.191</text>
<line class="axis" x1="76.0" y1="280.0" x2="680.0" y2="280.0"/>
<line class="axis" x1="76.0" y1="136.0" x2="76.0" y2="280.0"/>
<text class="tick" text-anchor="middle" x="378.00" y="314.0">time [s]</text>
<g clip-path="url(#panel-clip-0)">
<polyline points="78.68,144.24 81.37,144.24 84.05,144.24 86.74,144.24 89.42,144.24 92.11,144.24 94.79,144.24 97.48,144.24 100.16,144.24 102.84,144.24 105.53,144.24 108.21,144.24 110.90,144.24 113.58,144.24 116.27,144.24 118.95,144.24 121.64,144.24 124.32,144.24 127.00,144.24 129.69,144.24 132.37,144.24 135.06,144.24 137.74,144.24 140.43,144.24 143.11,144.24 145.80,144.24 148.48,144.24 151.16,144.24 153.85,144.24 156.53,144.24 159.22,144.24 161.90,144.24 164.59,144.24 167.27,144.24 169.96,144.24 172.64,144.24 175.32,144.24 178.01,144.24 180.69,144.24 183.38,144.24 186.06,144.24 188.75,144.24 191.43,144.24 194.12,144.24 196.80,144.24 199.48,144.24 202.17,144.24 204.85,144.24 207.54,144.24 210.22,144.24 212.91,144.24 215.59,144.24 218.28,144.24 220.96,144.24 223.64,144.24 226.33,144.24 229.01,144.24 231.70,144.24 234.38,144.24 237.07,144.24 239.75,144.24 242.44,144.24 245.12,144.24 247.80,144.24 250.49,144.24 253.17,144.24 255.86,144.24 258.54,144.24 261.23,144.24 263.91,144.24 266.60,144.24 269.28,144.24 271.96,144.24 274.65,144.24 277.33,144.24 280.02,144.24 282.70,144.24 285.39,144.24 288.07,144.24 290.76,144.24 293.44,144.24 296.12,144.24 298.81,144.24 301.49,144.24 304.18,144.24 306.86,144.24 309.55,144.24 312.23,144.24 314.92,144.24 317.60,144.24 320.28,144.24 322.97,144.24 325.65,144.24 328.34,144.24 331.02,144.24 333.71,144.24 336.39,144.24 339.08,144.24 341.76,144.24 344.44,144.24 347.13,144.24 349.81,144.24 352.50,144.24 355.18,144.24 357.87,144.24 360.55,144.24 363.24,144.24 365.92,144.24 368.60,144.24 371.29,144.24 373.97,144.24 376.66,144.24 379.34,144.24 382.03,144.24 384.71,144.24 387.40,144.24 390.08,144.24 392.76,144.24 395.45,144.24 398.13,144.24 400.82,144.24 403.50,144.24 406.19,144.24 408.87,144.24 411.56,144.24 414.24,144.24 416.92,144.24 419.61,144.24 422.29,144.24 424.98,144.24 427.66,144.24 430.35,144.24 433.03,144.24 435.72,144.24 438.40,144.24 441.08,144.24 443.77,144.24 446.45,144.24 449.14,144.24 451.82,144.24 454.51,144.24 457.19,144.24 459.88,144.24 462.56,144.24 465.24,144.24 467.93,144.24 470.61,144.24 473.30,144.24 475.98,144.24 478.67,144.24 481.35,144.24 484.04,144.24 486.72,144.24 489.40,144.24 492.09,144.24 494.77,144.24 497.46,144.24 500.14,144.24 502.83,144.24 505.51,144.24 508.20,144.24 510.88,144.24 513.56,144.24 516.25,144.24 518.93,144.24 521.62,144.24 524.30,144.24 526.99,144.24 529.67,144.24 532.36,144.24 535.04,144.24 537.72,144.24 540.41,144.24 543.09,144.24 545.78,144.24 548.46,144.24 551.15,144.24 553.83,144.24 556.52,144.24 559.20,144.24 561.88,144.24 564.57,144.24 567.25,144.24 569.94,144.24 572.62,144.24 575.31,144.24 577.99,144.24 580.68,144.24 583.36,144.24 586.04,144.24 588.73,144.24 591.41,144.24 594.10,144.24 596.78,144.24 599.47,144.24 602.15,144.24 604.84,144.24 607.52,144.24 610.20,144.24 612.89,144.24 615.57,144.24 618.26,144.24 620.94,144.24 623.63,144.24 626.31,144.24 629.00,144.24 631.68,144.24 634.36,144.24 637.05,144.24 639.73,144.24 642.42,144.24 645.10,144.24 647.79,144.24 650.47,144.24 653.16,144.24 655.84,144.24 658.52,144.24 661.21,144.24 663.89,144.24 666.58,144.24 669.26,144.24 671.95,144.24 674.63,144.24 677.32,144.24 680.00,144.24" fill="none" stroke="#111111" stroke-width="1.8" stroke-dasharray="7 5"/>
<polyline points="78.68,273.45 81.37,264.91 84.05,256.06 86.74,246.90 89.42,237.41 92.11,227.62 94.79,217.54 97.48,207.20 100.16,196.62 102.84,185.90 105.53,175.28 108.21,165.16 110.90,157.99 113.58,152.95 116.27,149.45 118.95,147.05 121.64,145.42 124.32,144.34 127.00,143.63 129.69,143.17 132.37,142.88 135.06,142.71 137.74,142.61 140.43,142.56 143.11,142.55 145.80,142.55 148.48,142.56 151.16,142.58 153.85,142.60 156.53,142.62 159.22,142.65 161.90,142.67 164.59,142.70 167.27,142.72 169.96,142.75 172.64,142.77 175.32,142.79 178.01,142.82 180.69,142.84 183.38,142.86 186.06,142.89 188.75,142.91 191.43,142.93 194.12,142.95 196.80,142.97 199.48,143.00 202.17,143.02 204.85,143.04 207.54,143.06 210.22,143.08 212.91,143.10 215.59,143.12 218.28,143.14 220.96,143.16 223.64,143.17 226.33,143.19 229.01,143.21 231.70,143.23 234.38,143.25 237.07,143.26 239.75,143.28 242.44,143.30 245.12,143.31 247.80,143.33 250.49,143.35 253.17,143.36 255.86,143.38 258.54,143.39 261.23,143.41 263.91,143.42 266.60,143.44 269.28,143.45 271.96,143.47 274.65,143.48 277.33,143.49 280.02,143.51 282.70,143.52 285.39,143.53 288.07,143.55 290.76,143.56 293.44,143.57 296.12,143.59 298.81,143.60 301.49,143.61 304.18,143.62 306.86,143.63 309.55,143.64 312.23,143.65 314.92,143.67 317.60,143.68 320.28,143.69 322.97,143.70 325.65,143.71 328.34,143.72 331.02,143.73 333.71,143.74 336.39,143.75 339.08,143.76 341.76,143.77 344.44,143.77 347.13,143.78 349.81,143.79 352.50,143.80 355.18,143.81 357.87,143.82 360.55,143.83 363.24,143.83 365.92,143.84 368.60,143.85 371.29,143.86 373.97,143.86 376.66,143.87 379.34,143.88 382.03,143.89 384.71,143.89 387.40,143.90 390.08,143.91 392.76,143.91 395.45,143.92 398.13,143.93 400.82,143.93 403.50,143.94 406.19,143.94 408.87,143.95 411.56,143.96 414.24,143.96 416.92,143.97 419.61,143.97 422.29,143.98 424.98,143.98 427.66,143.99 430.35,143.99 433.03,144.00 435.72,144.00 438.40,144.01 441.08,144.01 443.77,144.02 446.45,144.02 449.14,144.03 451.82,144.03 454.51,144.03 457.19,144.04 459.88,144.04 462.56,144.05 465.24,144.05 467.93,144.05 470.61,144.06 473.30,144.06 475.98,144.07 478.67,144.07 481.35,144.07 484.04,144.08 486.72,144.08 489.40,144.08 492.09,144.09 494.77,144.09 497.46,144.09 500.14,144.10 502.83,144.10 505.51,144.10 508.20,144.10 510.88,144.11 513.56,144.11 516.25,144.11 518.93,144.11 521.62,144.12 524.30,144.12 526.99,144.12 529.67,144.12 532.36,144.13 535.04,144.13 537.72,144.13 540.41,144.13 543.09,144.14 545.78,144.14 548.46,144.14 551.15,144.14 553.83,144.14 556.52,144.15 559.20,144.15 561.88,144.15 564.57,144.15 567.25,144.15 569.94,144.16 572.62,144.16 575.31,144.16 577.99,144.16 580.68,144.16 583.36,144.16 586.04,144.17 588.73,144.17 591.41,144.17 594.10,144.17 596.78,144.17 599.47,144.17 602.15,144.18 604.84,144.18 607.52,144.18 610.20,144.18 612.89,144.18 615.57,144.18 618.26,144.18 620.94,144.18 623.63,144.19 626.31,144.19 629.00,144.19 631.68,144.19 634.36,144.19 637.05,144.19 639.73,144.19 642.42,144.19 645.10,144.19 647.79,144.20 650.47,144.20 653.16,144.20 655.84,144.20 658.52,144.20 661.21,144.20 663.89,144.20 666.58,144.20 669.26,144.20 671.95,144.20 674.63,144.20 677.32,144.21 680.00,144.21" fill="none" stroke="#d95f02" stroke-width="2.2"/>
<polyline points="78.68,273.45 81.37,264.91 84.05,256.06 86.74,246.90 89.42,237.41 92.11,227.62 94.79,217.54 97.48,207.31 100.16,197.13 102.84,187.13 105.53,177.39 108.21,167.97 110.90,160.68 113.58,155.50 116.27,151.93 118.95,149.50 121.64,147.85 124.32,146.72 127.00,145.95 129.69,145.42 132.37,145.06 135.06,144.81 137.74,144.64 140.43,144.52 143.11,144.43 145.80,144.38 148.48,144.34 151.16,144.31 153.85,144.29 156.53,144.28 159.22,144.27 161.90,144.26 164.59,144.25 167.27,144.25 169.96,144.25 172.64,144.25 175.32,144.25 178.01,144.24 180.69,144.24 183.38,144.24 186.06,144.24 188.75,144.24 191.43,144.24 194.12,144.24 196.80,144.24 199.48,144.24 202.17,144.24 204.85,144.24 207.54,144.24 210.22,144.24 212.91,144.24 215.59,144.24 218.28,144.24 220.96,144.24 223.64,144.24 226.33,144.24 229.01,144.24 231.70,144.24 234.38,144.24 237.07,144.24 239.75,144.24 242.44,144.24 245.12,144.24 247.80,144.24 250.49,144.24 253.17,144.24 255.86,144.24 258.54,144.24 261.23,144.24 263.91,144.24 266.60,144.24 269.28,144.24 271.96,144.24 274.65,144.24 277.33,144.24 280.02,144.24 282.70,144.24 285.39,144.24 288.07,144.24 290.76,144.24 293.44,144.24 296.12,144.24 298.81,144.24 301.49,144.24 304.18,144.24 306.86,144.24 309.55,144.24 312.23,144.24 314.92,144.24 317.60,144.24 320.28,144.24 322.97,144.24 325.65,144.24 328.34,144.24 331.02,144.24 333.71,144.24 336.39,144.24 339.08,144.24 341.76,144.24 344.44,144.24 347.13,144.24 349.81,144.24 352.50,144.24 355.18,144.24 357.87,144.24 360.55,144.24 363.24,144.24 365.92,144.24 368.60,144.24 371.29,144.24 373.97,144.24 376.66,144.24 379.34,144.24 382.03,144.24 384.71,144.24 387.40,144.24 390.08,144.24 392.76,144.24 395.45,144.24 398.13,144.24 400.82,144.24 403.50,144.24 406.19,144.24 408.87,144.24 411.56,144.24 414.24,144.24 416.92,144.24 419.61,144.24 422.29,144.24 424.98,144.24 427.66,144.24 430.35,144.24 433.03,144.24 435.72,144.24 438.40,144.24 441.08,144.24 443.77,144.24 446.45,144.24 449.14,144.24 451.82,144.24 454.51,144.24 457.19,144.24 459.88,144.24 462.56,144.24 465.24,144.24 467.93,144.24 470.61,144.24 473.30,144.24 475.98,144.24 478.67,144.24 481.35,144.24 484.04,144.24 486.72,144.24 489.40,144.24 492.09,144.24 494.77,144.24 497.46,144.24 500.14,144.24 502.83,144.24 505.51,144.24 508.20,144.24 510.88,144.24 513.56,144.24 516.25,144.24 518.93,144.24 521.62,144.24 524.30,144.24 526.99,144.24 529.67,144.24 532.36,144.24 535.04,144.24 537.72,144.24 540.41,144.24 543.09,144.24 545.78,144.24 548.46,144.24 551.15,144.24 553.83,144.24 556.52,144.24 559.20,144.24 561.88,144.24 564.57,144.24 567.25,144.24 569.94,144.24 572.62,144.24 575.31,144.24 577.99,144.24 580.68,144.24 583.36,144.24 586.04,144.24 588.73,144.24 591.41,144.24 594.10,144.24 596.78,144.24 599.47,144.24 602.15,144.24 604.84,144.24 607.52,144.24 610.20,144.24 612.89,144.24 615.57,144.24 618.26,144.24 620.94,144.24 623.63,144.24 626.31,144.24 629.00,144.24 631.68,144.24 634.36,144.24 637.05,144.24 639.73,144.24 642.42,144.24 645.10,144.24 647.79,144.24 650.47,144.24 653.16,144.24 655.84,144.24 658.52,144.24 661.21,144.24 663.89,144.24 666.58,144.24 669.26,144.24 671.95,144.24 674.63,144.24 677.32,144.24 680.00,144.24" fill="none" stroke="#1b75bb" stroke-width="2.2"/>
</g>
<text class="panel-title" x="76.0" y="345">Output: reactor_temperature [degC]</text>
<defs><clipPath id="panel-clip-2"><rect x="76.0" y="361.0" width="604.0" height="144.0"/></clipPath></defs>
<line class="grid" x1="76.00" y1="361.00" x2="76.00" y2="505.00"/>
<text class="tick" text-anchor="middle" x="76.00" y="523.00">0</text>
<line class="grid" x1="227.00" y1="361.00" x2="227.00" y2="505.00"/>
<text class="tick" text-anchor="middle" x="227.00" y="523.00">56.2</text>
<line class="grid" x1="378.00" y1="361.00" x2="378.00" y2="505.00"/>
<text class="tick" text-anchor="middle" x="378.00" y="523.00">112</text>
<line class="grid" x1="529.00" y1="361.00" x2="529.00" y2="505.00"/>
<text class="tick" text-anchor="middle" x="529.00" y="523.00">169</text>
<line class="grid" x1="680.00" y1="361.00" x2="680.00" y2="505.00"/>
<text class="tick" text-anchor="middle" x="680.00" y="523.00">225</text>
<line class="grid" x1="76.0" y1="505.00" x2="680.0" y2="505.00"/>
<text class="tick" text-anchor="end" x="68.0" y="509.00">50.2</text>
<line class="grid" x1="76.0" y1="457.00" x2="680.0" y2="457.00"/>
<text class="tick" text-anchor="end" x="68.0" y="461.00">58.8</text>
<line class="grid" x1="76.0" y1="409.00" x2="680.0" y2="409.00"/>
<text class="tick" text-anchor="end" x="68.0" y="413.00">67.4</text>
<line class="grid" x1="76.0" y1="361.00" x2="680.0" y2="361.00"/>
<text class="tick" text-anchor="end" x="68.0" y="365.00">76.1</text>
<line class="axis" x1="76.0" y1="505.0" x2="680.0" y2="505.0"/>
<line class="axis" x1="76.0" y1="361.0" x2="76.0" y2="505.0"/>
<text class="tick" text-anchor="middle" x="378.00" y="539.0">time [s]</text>
<g clip-path="url(#panel-clip-2)">
<polyline points="78.68,496.20 81.37,496.20 84.05,496.20 86.74,496.20 89.42,496.20 92.11,496.20 94.79,496.20 97.48,496.20 100.16,496.20 102.84,496.20 105.53,496.20 108.21,496.20 110.90,496.20 113.58,496.20 116.27,496.20 118.95,496.20 121.64,496.20 124.32,496.20 127.00,496.20 129.69,496.20 132.37,496.20 135.06,496.20 137.74,496.20 140.43,496.20 143.11,496.20 145.80,496.20 148.48,496.20 151.16,496.20 153.85,496.20 156.53,496.20 159.22,496.20 161.90,496.20 164.59,496.20 167.27,496.20 169.96,496.20 172.64,496.20 175.32,496.20 178.01,496.20 180.69,496.20 183.38,496.20 186.06,496.20 188.75,496.20 191.43,496.20 194.12,496.20 196.80,496.20 199.48,496.20 202.17,496.20 204.85,496.20 207.54,496.20 210.22,496.20 212.91,496.20 215.59,496.20 218.28,496.20 220.96,496.20 223.64,496.20 226.33,496.20 229.01,496.20 231.70,496.20 234.38,496.20 237.07,496.20 239.75,496.20 242.44,496.20 245.12,496.20 247.80,496.20 250.49,496.20 253.17,496.20 255.86,496.20 258.54,496.20 261.23,496.20 263.91,496.20 266.60,496.20 269.28,496.20 271.96,496.20 274.65,496.20 277.33,496.20 280.02,496.20 282.70,496.20 285.39,496.20 288.07,496.20 290.76,496.20 293.44,496.20 296.12,496.20 298.81,496.20 301.49,496.20 304.18,496.20 306.86,496.20 309.55,496.20 312.23,496.20 314.92,496.20 317.60,496.20 320.28,496.20 322.97,496.20 325.65,496.20 328.34,496.20 331.02,496.20 333.71,496.20 336.39,496.20 339.08,496.20 341.76,496.20 344.44,496.20 347.13,496.20 349.81,496.20 352.50,496.20 355.18,496.20 357.87,496.20 360.55,496.20 363.24,496.20 365.92,496.20 368.60,496.20 371.29,496.20 373.97,496.20 376.66,496.20 379.34,496.20 382.03,496.20 384.71,496.20 387.40,496.20 390.08,496.20 392.76,496.20 395.45,496.20 398.13,496.20 400.82,496.20 403.50,496.20 406.19,496.20 408.87,496.20 411.56,496.20 414.24,496.20 416.92,496.20 419.61,496.20 422.29,496.20 424.98,496.20 427.66,496.20 430.35,496.20 433.03,496.20 435.72,496.20 438.40,496.20 441.08,496.20 443.77,496.20 446.45,496.20 449.14,496.20 451.82,496.20 454.51,496.20 457.19,496.20 459.88,496.20 462.56,496.20 465.24,496.20 467.93,496.20 470.61,496.20 473.30,496.20 475.98,496.20 478.67,496.20 481.35,496.20 484.04,496.20 486.72,496.20 489.40,496.20 492.09,496.20 494.77,496.20 497.46,496.20 500.14,496.20 502.83,496.20 505.51,496.20 508.20,496.20 510.88,496.20 513.56,496.20 516.25,496.20 518.93,496.20 521.62,496.20 524.30,496.20 526.99,496.20 529.67,496.20 532.36,496.20 535.04,496.20 537.72,496.20 540.41,496.20 543.09,496.20 545.78,496.20 548.46,496.20 551.15,496.20 553.83,496.20 556.52,496.20 559.20,496.20 561.88,496.20 564.57,496.20 567.25,496.20 569.94,496.20 572.62,496.20 575.31,496.20 577.99,496.20 580.68,496.20 583.36,496.20 586.04,496.20 588.73,496.20 591.41,496.20 594.10,496.20 596.78,496.20 599.47,496.20 602.15,496.20 604.84,496.20 607.52,496.20 610.20,496.20 612.89,496.20 615.57,496.20 618.26,496.20 620.94,496.20 623.63,496.20 626.31,496.20 629.00,496.20 631.68,496.20 634.36,496.20 637.05,496.20 639.73,496.20 642.42,496.20 645.10,496.20 647.79,496.20 650.47,496.20 653.16,496.20 655.84,496.20 658.52,496.20 661.21,496.20 663.89,496.20 666.58,496.20 669.26,496.20 671.95,496.20 674.63,496.20 677.32,496.20 680.00,496.20" fill="none" stroke="#111111" stroke-width="1.8" stroke-dasharray="7 5"/>
<polyline points="78.68,367.55 81.37,384.08 84.05,399.80 86.74,414.76 89.42,429.02 92.11,442.63 94.79,455.62 97.48,468.03 100.16,479.87 102.84,489.55 105.53,494.80 108.21,497.57 110.90,498.45 113.58,498.43 116.27,498.01 118.95,497.46 121.64,496.92 124.32,496.46 127.00,496.08 129.69,495.79 132.37,495.59 135.06,495.44 137.74,495.34 140.43,495.28 143.11,495.25 145.80,495.24 148.48,495.24 151.16,495.24 153.85,495.26 156.53,495.28 159.22,495.30 161.90,495.32 164.59,495.35 167.27,495.37 169.96,495.39 172.64,495.41 175.32,495.44 178.01,495.46 180.69,495.48 183.38,495.50 186.06,495.52 188.75,495.54 191.43,495.56 194.12,495.58 196.80,495.60 199.48,495.62 202.17,495.63 204.85,495.65 207.54,495.67 210.22,495.68 212.91,495.70 215.59,495.71 218.28,495.73 220.96,495.74 223.64,495.75 226.33,495.77 229.01,495.78 231.70,495.79 234.38,495.80 237.07,495.82 239.75,495.83 242.44,495.84 245.12,495.85 247.80,495.86 250.49,495.87 253.17,495.88 255.86,495.89 258.54,495.90 261.23,495.91 263.91,495.92 266.60,495.93 269.28,495.93 271.96,495.94 274.65,495.95 277.33,495.96 280.02,495.97 282.70,495.97 285.39,495.98 288.07,495.99 290.76,495.99 293.44,496.00 296.12,496.01 298.81,496.01 301.49,496.02 304.18,496.02 306.86,496.03 309.55,496.03 312.23,496.04 314.92,496.05 317.60,496.05 320.28,496.05 322.97,496.06 325.65,496.06 328.34,496.07 331.02,496.07 333.71,496.08 336.39,496.08 339.08,496.08 341.76,496.09 344.44,496.09 347.13,496.10 349.81,496.10 352.50,496.10 355.18,496.11 357.87,496.11 360.55,496.11 363.24,496.11 365.92,496.12 368.60,496.12 371.29,496.12 373.97,496.13 376.66,496.13 379.34,496.13 382.03,496.13 384.71,496.14 387.40,496.14 390.08,496.14 392.76,496.14 395.45,496.14 398.13,496.15 400.82,496.15 403.50,496.15 406.19,496.15 408.87,496.15 411.56,496.16 414.24,496.16 416.92,496.16 419.61,496.16 422.29,496.16 424.98,496.16 427.66,496.16 430.35,496.17 433.03,496.17 435.72,496.17 438.40,496.17 441.08,496.17 443.77,496.17 446.45,496.17 449.14,496.17 451.82,496.18 454.51,496.18 457.19,496.18 459.88,496.18 462.56,496.18 465.24,496.18 467.93,496.18 470.61,496.18 473.30,496.18 475.98,496.18 478.67,496.18 481.35,496.19 484.04,496.19 486.72,496.19 489.40,496.19 492.09,496.19 494.77,496.19 497.46,496.19 500.14,496.19 502.83,496.19 505.51,496.19 508.20,496.19 510.88,496.19 513.56,496.19 516.25,496.19 518.93,496.19 521.62,496.19 524.30,496.19 526.99,496.19 529.67,496.20 532.36,496.20 535.04,496.20 537.72,496.20 540.41,496.20 543.09,496.20 545.78,496.20 548.46,496.20 551.15,496.20 553.83,496.20 556.52,496.20 559.20,496.20 561.88,496.20 564.57,496.20 567.25,496.20 569.94,496.20 572.62,496.20 575.31,496.20 577.99,496.20 580.68,496.20 583.36,496.20 586.04,496.20 588.73,496.20 591.41,496.20 594.10,496.20 596.78,496.20 599.47,496.20 602.15,496.20 604.84,496.20 607.52,496.20 610.20,496.20 612.89,496.20 615.57,496.20 618.26,496.20 620.94,496.20 623.63,496.20 626.31,496.20 629.00,496.20 631.68,496.20 634.36,496.20 637.05,496.20 639.73,496.20 642.42,496.20 645.10,496.20 647.79,496.20 650.47,496.20 653.16,496.20 655.84,496.20 658.52,496.20 661.21,496.20 663.89,496.20 666.58,496.20 669.26,496.20 671.95,496.20 674.63,496.20 677.32,496.20 680.00,496.20" fill="none" stroke="#d95f02" stroke-width="2.2"/>
<polyline points="78.68,367.55 81.37,384.08 84.05,399.80 86.74,414.76 89.42,429.02 92.11,442.63 94.79,455.62 97.48,465.58 100.16,473.04 102.84,478.71 105.53,483.12 108.21,486.61 110.90,489.07 113.58,490.85 116.27,492.17 118.95,493.16 121.64,493.91 124.32,494.48 127.00,494.90 129.69,495.23 132.37,495.47 135.06,495.65 137.74,495.79 140.43,495.89 143.11,495.97 145.80,496.03 148.48,496.07 151.16,496.11 153.85,496.13 156.53,496.15 159.22,496.16 161.90,496.17 164.59,496.18 167.27,496.19 169.96,496.19 172.64,496.19 175.32,496.20 178.01,496.20 180.69,496.20 183.38,496.20 186.06,496.20 188.75,496.20 191.43,496.20 194.12,496.20 196.80,496.20 199.48,496.20 202.17,496.20 204.85,496.20 207.54,496.20 210.22,496.20 212.91,496.20 215.59,496.20 218.28,496.20 220.96,496.20 223.64,496.20 226.33,496.20 229.01,496.20 231.70,496.20 234.38,496.20 237.07,496.20 239.75,496.20 242.44,496.20 245.12,496.20 247.80,496.20 250.49,496.20 253.17,496.20 255.86,496.20 258.54,496.20 261.23,496.20 263.91,496.20 266.60,496.20 269.28,496.20 271.96,496.20 274.65,496.20 277.33,496.20 280.02,496.20 282.70,496.20 285.39,496.20 288.07,496.20 290.76,496.20 293.44,496.20 296.12,496.20 298.81,496.20 301.49,496.20 304.18,496.20 306.86,496.20 309.55,496.20 312.23,496.20 314.92,496.20 317.60,496.20 320.28,496.20 322.97,496.20 325.65,496.20 328.34,496.20 331.02,496.20 333.71,496.20 336.39,496.20 339.08,496.20 341.76,496.20 344.44,496.20 347.13,496.20 349.81,496.20 352.50,496.20 355.18,496.20 357.87,496.20 360.55,496.20 363.24,496.20 365.92,496.20 368.60,496.20 371.29,496.20 373.97,496.20 376.66,496.20 379.34,496.20 382.03,496.20 384.71,496.20 387.40,496.20 390.08,496.20 392.76,496.20 395.45,496.20 398.13,496.20 400.82,496.20 403.50,496.20 406.19,496.20 408.87,496.20 411.56,496.20 414.24,496.20 416.92,496.20 419.61,496.20 422.29,496.20 424.98,496.20 427.66,496.20 430.35,496.20 433.03,496.20 435.72,496.20 438.40,496.20 441.08,496.20 443.77,496.20 446.45,496.20 449.14,496.20 451.82,496.20 454.51,496.20 457.19,496.20 459.88,496.20 462.56,496.20 465.24,496.20 467.93,496.20 470.61,496.20 473.30,496.20 475.98,496.20 478.67,496.20 481.35,496.20 484.04,496.20 486.72,496.20 489.40,496.20 492.09,496.20 494.77,496.20 497.46,496.20 500.14,496.20 502.83,496.20 505.51,496.20 508.20,496.20 510.88,496.20 513.56,496.20 516.25,496.20 518.93,496.20 521.62,496.20 524.30,496.20 526.99,496.20 529.67,496.20 532.36,496.20 535.04,496.20 537.72,496.20 540.41,496.20 543.09,496.20 545.78,496.20 548.46,496.20 551.15,496.20 553.83,496.20 556.52,496.20 559.20,496.20 561.88,496.20 564.57,496.20 567.25,496.20 569.94,496.20 572.62,496.20 575.31,496.20 577.99,496.20 580.68,496.20 583.36,496.20 586.04,496.20 588.73,496.20 591.41,496.20 594.10,496.20 596.78,496.20 599.47,496.20 602.15,496.20 604.84,496.20 607.52,496.20 610.20,496.20 612.89,496.20 615.57,496.20 618.26,496.20 620.94,496.20 623.63,496.20 626.31,496.20 629.00,496.20 631.68,496.20 634.36,496.20 637.05,496.20 639.73,496.20 642.42,496.20 645.10,496.20 647.79,496.20 650.47,496.20 653.16,496.20 655.84,496.20 658.52,496.20 661.21,496.20 663.89,496.20 666.58,496.20 669.26,496.20 671.95,496.20 674.63,496.20 677.32,496.20 680.00,496.20" fill="none" stroke="#1b75bb" stroke-width="2.2"/>
</g>
<text class="panel-title" x="796.0" y="120">Applied action: feed_pump [normalized_flow]</text>
<defs><clipPath id="panel-clip-1"><rect x="796.0" y="136.0" width="604.0" height="144.0"/></clipPath></defs>
<line class="grid" x1="796.00" y1="136.00" x2="796.00" y2="280.00"/>
<text class="tick" text-anchor="middle" x="796.00" y="298.00">0</text>
<line class="grid" x1="947.00" y1="136.00" x2="947.00" y2="280.00"/>
<text class="tick" text-anchor="middle" x="947.00" y="298.00">56.2</text>
<line class="grid" x1="1098.00" y1="136.00" x2="1098.00" y2="280.00"/>
<text class="tick" text-anchor="middle" x="1098.00" y="298.00">112</text>
<line class="grid" x1="1249.00" y1="136.00" x2="1249.00" y2="280.00"/>
<text class="tick" text-anchor="middle" x="1249.00" y="298.00">169</text>
<line class="grid" x1="1400.00" y1="136.00" x2="1400.00" y2="280.00"/>
<text class="tick" text-anchor="middle" x="1400.00" y="298.00">225</text>
<line class="grid" x1="796.0" y1="280.00" x2="1400.0" y2="280.00"/>
<text class="tick" text-anchor="end" x="788.0" y="284.00">0</text>
<line class="grid" x1="796.0" y1="232.00" x2="1400.0" y2="232.00"/>
<text class="tick" text-anchor="end" x="788.0" y="236.00">0.333</text>
<line class="grid" x1="796.0" y1="184.00" x2="1400.0" y2="184.00"/>
<text class="tick" text-anchor="end" x="788.0" y="188.00">0.667</text>
<line class="grid" x1="796.0" y1="136.00" x2="1400.0" y2="136.00"/>
<text class="tick" text-anchor="end" x="788.0" y="140.00">1</text>
<line class="axis" x1="796.0" y1="280.0" x2="1400.0" y2="280.0"/>
<line class="axis" x1="796.0" y1="136.0" x2="796.0" y2="280.0"/>
<text class="tick" text-anchor="middle" x="1098.00" y="314.0">time [s]</text>
<g clip-path="url(#panel-clip-1)">
<polyline points="798.68,136.00 801.37,136.00 804.05,136.00 806.74,136.00 809.42,136.00 812.11,136.00 814.79,136.00 817.48,136.00 820.16,136.00 822.84,136.00 825.53,136.00 828.21,137.33 830.90,158.65 833.58,173.82 836.27,184.52 838.95,192.01 841.64,197.19 844.32,200.74 847.00,203.14 849.69,204.76 852.37,205.83 855.06,206.54 857.74,207.01 860.43,207.31 863.11,207.51 865.80,207.65 868.48,207.75 871.16,207.81 873.85,207.87 876.53,207.91 879.22,207.94 881.90,207.98 884.59,208.01 887.27,208.04 889.96,208.07 892.64,208.10 895.32,208.12 898.01,208.15 900.69,208.18 903.38,208.20 906.06,208.23 908.75,208.25 911.43,208.28 914.12,208.30 916.80,208.33 919.48,208.35 922.17,208.37 924.85,208.39 927.54,208.41 930.22,208.43 932.91,208.45 935.59,208.47 938.28,208.49 940.96,208.51 943.64,208.53 946.33,208.55 949.01,208.56 951.70,208.58 954.38,208.60 957.07,208.61 959.75,208.63 962.44,208.64 965.12,208.66 967.80,208.67 970.49,208.69 973.17,208.70 975.86,208.72 978.54,208.73 981.23,208.74 983.91,208.75 986.60,208.77 989.28,208.78 991.96,208.79 994.65,208.80 997.33,208.81 1000.02,208.82 1002.70,208.83 1005.39,208.84 1008.07,208.85 1010.76,208.86 1013.44,208.87 1016.12,208.88 1018.81,208.89 1021.49,208.90 1024.18,208.91 1026.86,208.92 1029.55,208.93 1032.23,208.93 1034.92,208.94 1037.60,208.95 1040.28,208.96 1042.97,208.97 1045.65,208.97 1048.34,208.98 1051.02,208.99 1053.71,208.99 1056.39,209.00 1059.08,209.01 1061.76,209.01 1064.44,209.02 1067.13,209.02 1069.81,209.03 1072.50,209.03 1075.18,209.04 1077.87,209.05 1080.55,209.05 1083.24,209.06 1085.92,209.06 1088.60,209.06 1091.29,209.07 1093.97,209.07 1096.66,209.08 1099.34,209.08 1102.03,209.09 1104.71,209.09 1107.40,209.10 1110.08,209.10 1112.76,209.10 1115.45,209.11 1118.13,209.11 1120.82,209.11 1123.50,209.12 1126.19,209.12 1128.87,209.12 1131.56,209.13 1134.24,209.13 1136.92,209.13 1139.61,209.14 1142.29,209.14 1144.98,209.14 1147.66,209.14 1150.35,209.15 1153.03,209.15 1155.72,209.15 1158.40,209.16 1161.08,209.16 1163.77,209.16 1166.45,209.16 1169.14,209.16 1171.82,209.17 1174.51,209.17 1177.19,209.17 1179.88,209.17 1182.56,209.17 1185.24,209.18 1187.93,209.18 1190.61,209.18 1193.30,209.18 1195.98,209.18 1198.67,209.19 1201.35,209.19 1204.04,209.19 1206.72,209.19 1209.40,209.19 1212.09,209.19 1214.77,209.20 1217.46,209.20 1220.14,209.20 1222.83,209.20 1225.51,209.20 1228.20,209.20 1230.88,209.20 1233.56,209.20 1236.25,209.21 1238.93,209.21 1241.62,209.21 1244.30,209.21 1246.99,209.21 1249.67,209.21 1252.36,209.21 1255.04,209.21 1257.72,209.21 1260.41,209.22 1263.09,209.22 1265.78,209.22 1268.46,209.22 1271.15,209.22 1273.83,209.22 1276.52,209.22 1279.20,209.22 1281.88,209.22 1284.57,209.22 1287.25,209.22 1289.94,209.22 1292.62,209.23 1295.31,209.23 1297.99,209.23 1300.68,209.23 1303.36,209.23 1306.04,209.23 1308.73,209.23 1311.41,209.23 1314.10,209.23 1316.78,209.23 1319.47,209.23 1322.15,209.23 1324.84,209.23 1327.52,209.23 1330.20,209.23 1332.89,209.23 1335.57,209.23 1338.26,209.23 1340.94,209.24 1343.63,209.24 1346.31,209.24 1349.00,209.24 1351.68,209.24 1354.36,209.24 1357.05,209.24 1359.73,209.24 1362.42,209.24 1365.10,209.24 1367.79,209.24 1370.47,209.24 1373.16,209.24 1375.84,209.24 1378.52,209.24 1381.21,209.24 1383.89,209.24 1386.58,209.24 1389.26,209.24 1391.95,209.24 1394.63,209.24 1397.32,209.24 1400.00,209.24" fill="none" stroke="#d95f02" stroke-width="2.2"/>
<polyline points="798.68,136.00 801.37,136.00 804.05,136.00 806.74,136.00 809.42,136.00 812.11,136.00 814.79,136.00 817.48,136.00 820.16,136.00 822.84,136.00 825.53,136.00 828.21,136.00 830.90,151.29 833.58,167.23 836.27,179.75 838.95,188.76 841.64,195.06 844.32,199.41 847.00,202.41 849.69,204.48 852.37,205.91 855.06,206.91 857.74,207.60 860.43,208.09 863.11,208.43 865.80,208.67 868.48,208.84 871.16,208.96 873.85,209.04 876.53,209.10 879.22,209.14 881.90,209.17 884.59,209.20 887.27,209.21 889.96,209.22 892.64,209.23 895.32,209.24 898.01,209.24 900.69,209.24 903.38,209.25 906.06,209.25 908.75,209.25 911.43,209.25 914.12,209.25 916.80,209.25 919.48,209.25 922.17,209.25 924.85,209.25 927.54,209.25 930.22,209.25 932.91,209.25 935.59,209.25 938.28,209.25 940.96,209.25 943.64,209.25 946.33,209.25 949.01,209.25 951.70,209.25 954.38,209.25 957.07,209.25 959.75,209.25 962.44,209.25 965.12,209.25 967.80,209.25 970.49,209.25 973.17,209.25 975.86,209.25 978.54,209.25 981.23,209.25 983.91,209.25 986.60,209.25 989.28,209.25 991.96,209.25 994.65,209.25 997.33,209.25 1000.02,209.25 1002.70,209.25 1005.39,209.25 1008.07,209.25 1010.76,209.25 1013.44,209.25 1016.12,209.25 1018.81,209.25 1021.49,209.25 1024.18,209.25 1026.86,209.25 1029.55,209.25 1032.23,209.25 1034.92,209.25 1037.60,209.25 1040.28,209.25 1042.97,209.25 1045.65,209.25 1048.34,209.25 1051.02,209.25 1053.71,209.25 1056.39,209.25 1059.08,209.25 1061.76,209.25 1064.44,209.25 1067.13,209.25 1069.81,209.25 1072.50,209.25 1075.18,209.25 1077.87,209.25 1080.55,209.25 1083.24,209.25 1085.92,209.25 1088.60,209.25 1091.29,209.25 1093.97,209.25 1096.66,209.25 1099.34,209.25 1102.03,209.25 1104.71,209.25 1107.40,209.25 1110.08,209.25 1112.76,209.25 1115.45,209.25 1118.13,209.25 1120.82,209.25 1123.50,209.25 1126.19,209.25 1128.87,209.25 1131.56,209.25 1134.24,209.25 1136.92,209.25 1139.61,209.25 1142.29,209.25 1144.98,209.25 1147.66,209.25 1150.35,209.25 1153.03,209.25 1155.72,209.25 1158.40,209.25 1161.08,209.25 1163.77,209.25 1166.45,209.25 1169.14,209.25 1171.82,209.25 1174.51,209.25 1177.19,209.25 1179.88,209.25 1182.56,209.25 1185.24,209.25 1187.93,209.25 1190.61,209.25 1193.30,209.25 1195.98,209.25 1198.67,209.25 1201.35,209.25 1204.04,209.25 1206.72,209.25 1209.40,209.25 1212.09,209.25 1214.77,209.25 1217.46,209.25 1220.14,209.25 1222.83,209.25 1225.51,209.25 1228.20,209.25 1230.88,209.25 1233.56,209.25 1236.25,209.25 1238.93,209.25 1241.62,209.25 1244.30,209.25 1246.99,209.25 1249.67,209.25 1252.36,209.25 1255.04,209.25 1257.72,209.25 1260.41,209.25 1263.09,209.25 1265.78,209.25 1268.46,209.25 1271.15,209.25 1273.83,209.25 1276.52,209.25 1279.20,209.25 1281.88,209.25 1284.57,209.25 1287.25,209.25 1289.94,209.25 1292.62,209.25 1295.31,209.25 1297.99,209.25 1300.68,209.25 1303.36,209.25 1306.04,209.25 1308.73,209.25 1311.41,209.25 1314.10,209.25 1316.78,209.25 1319.47,209.25 1322.15,209.25 1324.84,209.25 1327.52,209.25 1330.20,209.25 1332.89,209.25 1335.57,209.25 1338.26,209.25 1340.94,209.25 1343.63,209.25 1346.31,209.25 1349.00,209.25 1351.68,209.25 1354.36,209.25 1357.05,209.25 1359.73,209.25 1362.42,209.25 1365.10,209.25 1367.79,209.25 1370.47,209.25 1373.16,209.25 1375.84,209.25 1378.52,209.25 1381.21,209.25 1383.89,209.25 1386.58,209.25 1389.26,209.25 1391.95,209.25 1394.63,209.25 1397.32,209.25 1400.00,209.25" fill="none" stroke="#1b75bb" stroke-width="2.2"/>
</g>
<text class="panel-title" x="796.0" y="345">Applied action: cooling [normalized_cooling]</text>
<defs><clipPath id="panel-clip-3"><rect x="796.0" y="361.0" width="604.0" height="144.0"/></clipPath></defs>
<line class="grid" x1="796.00" y1="361.00" x2="796.00" y2="505.00"/>
<text class="tick" text-anchor="middle" x="796.00" y="523.00">0</text>
<line class="grid" x1="947.00" y1="361.00" x2="947.00" y2="505.00"/>
<text class="tick" text-anchor="middle" x="947.00" y="523.00">56.2</text>
<line class="grid" x1="1098.00" y1="361.00" x2="1098.00" y2="505.00"/>
<text class="tick" text-anchor="middle" x="1098.00" y="523.00">112</text>
<line class="grid" x1="1249.00" y1="361.00" x2="1249.00" y2="505.00"/>
<text class="tick" text-anchor="middle" x="1249.00" y="523.00">169</text>
<line class="grid" x1="1400.00" y1="361.00" x2="1400.00" y2="505.00"/>
<text class="tick" text-anchor="middle" x="1400.00" y="523.00">225</text>
<line class="grid" x1="796.0" y1="505.00" x2="1400.0" y2="505.00"/>
<text class="tick" text-anchor="end" x="788.0" y="509.00">0</text>
<line class="grid" x1="796.0" y1="457.00" x2="1400.0" y2="457.00"/>
<text class="tick" text-anchor="end" x="788.0" y="461.00">0.333</text>
<line class="grid" x1="796.0" y1="409.00" x2="1400.0" y2="409.00"/>
<text class="tick" text-anchor="end" x="788.0" y="413.00">0.667</text>
<line class="grid" x1="796.0" y1="361.00" x2="1400.0" y2="361.00"/>
<text class="tick" text-anchor="end" x="788.0" y="365.00">1</text>
<line class="axis" x1="796.0" y1="505.0" x2="1400.0" y2="505.0"/>
<line class="axis" x1="796.0" y1="361.0" x2="796.0" y2="505.0"/>
<text class="tick" text-anchor="middle" x="1098.00" y="539.0">time [s]</text>
<g clip-path="url(#panel-clip-3)">
<polyline points="798.68,361.00 801.37,361.00 804.05,361.00 806.74,361.00 809.42,361.00 812.11,361.00 814.79,361.00 817.48,361.00 820.16,361.00 822.84,380.31 825.53,429.62 828.21,456.61 830.90,471.14 833.58,476.02 836.27,476.17 838.95,474.22 841.64,471.54 844.32,468.85 847.00,466.48 849.69,464.52 852.37,462.98 855.06,461.82 857.74,460.96 860.43,460.35 863.11,459.92 865.80,459.62 868.48,459.43 871.16,459.30 873.85,459.22 876.53,459.18 879.22,459.15 881.90,459.15 884.59,459.15 887.27,459.16 889.96,459.17 892.64,459.19 895.32,459.20 898.01,459.22 900.69,459.24 903.38,459.26 906.06,459.27 908.75,459.29 911.43,459.31 914.12,459.32 916.80,459.34 919.48,459.35 922.17,459.37 924.85,459.38 927.54,459.40 930.22,459.41 932.91,459.43 935.59,459.44 938.28,459.45 940.96,459.47 943.64,459.48 946.33,459.49 949.01,459.50 951.70,459.52 954.38,459.53 957.07,459.54 959.75,459.55 962.44,459.56 965.12,459.57 967.80,459.58 970.49,459.59 973.17,459.60 975.86,459.61 978.54,459.62 981.23,459.63 983.91,459.64 986.60,459.65 989.28,459.66 991.96,459.66 994.65,459.67 997.33,459.68 1000.02,459.69 1002.70,459.70 1005.39,459.70 1008.07,459.71 1010.76,459.72 1013.44,459.73 1016.12,459.73 1018.81,459.74 1021.49,459.75 1024.18,459.75 1026.86,459.76 1029.55,459.76 1032.23,459.77 1034.92,459.78 1037.60,459.78 1040.28,459.79 1042.97,459.79 1045.65,459.80 1048.34,459.80 1051.02,459.81 1053.71,459.81 1056.39,459.82 1059.08,459.82 1061.76,459.83 1064.44,459.83 1067.13,459.84 1069.81,459.84 1072.50,459.85 1075.18,459.85 1077.87,459.85 1080.55,459.86 1083.24,459.86 1085.92,459.87 1088.60,459.87 1091.29,459.87 1093.97,459.88 1096.66,459.88 1099.34,459.88 1102.03,459.89 1104.71,459.89 1107.40,459.89 1110.08,459.90 1112.76,459.90 1115.45,459.90 1118.13,459.90 1120.82,459.91 1123.50,459.91 1126.19,459.91 1128.87,459.92 1131.56,459.92 1134.24,459.92 1136.92,459.92 1139.61,459.93 1142.29,459.93 1144.98,459.93 1147.66,459.93 1150.35,459.93 1153.03,459.94 1155.72,459.94 1158.40,459.94 1161.08,459.94 1163.77,459.94 1166.45,459.95 1169.14,459.95 1171.82,459.95 1174.51,459.95 1177.19,459.95 1179.88,459.96 1182.56,459.96 1185.24,459.96 1187.93,459.96 1190.61,459.96 1193.30,459.96 1195.98,459.96 1198.67,459.97 1201.35,459.97 1204.04,459.97 1206.72,459.97 1209.40,459.97 1212.09,459.97 1214.77,459.97 1217.46,459.98 1220.14,459.98 1222.83,459.98 1225.51,459.98 1228.20,459.98 1230.88,459.98 1233.56,459.98 1236.25,459.98 1238.93,459.98 1241.62,459.98 1244.30,459.99 1246.99,459.99 1249.67,459.99 1252.36,459.99 1255.04,459.99 1257.72,459.99 1260.41,459.99 1263.09,459.99 1265.78,459.99 1268.46,459.99 1271.15,459.99 1273.83,460.00 1276.52,460.00 1279.20,460.00 1281.88,460.00 1284.57,460.00 1287.25,460.00 1289.94,460.00 1292.62,460.00 1295.31,460.00 1297.99,460.00 1300.68,460.00 1303.36,460.00 1306.04,460.00 1308.73,460.00 1311.41,460.00 1314.10,460.00 1316.78,460.01 1319.47,460.01 1322.15,460.01 1324.84,460.01 1327.52,460.01 1330.20,460.01 1332.89,460.01 1335.57,460.01 1338.26,460.01 1340.94,460.01 1343.63,460.01 1346.31,460.01 1349.00,460.01 1351.68,460.01 1354.36,460.01 1357.05,460.01 1359.73,460.01 1362.42,460.01 1365.10,460.01 1367.79,460.01 1370.47,460.01 1373.16,460.01 1375.84,460.01 1378.52,460.01 1381.21,460.01 1383.89,460.01 1386.58,460.01 1389.26,460.02 1391.95,460.02 1394.63,460.02 1397.32,460.02 1400.00,460.02" fill="none" stroke="#d95f02" stroke-width="2.2"/>
<polyline points="798.68,361.00 801.37,361.00 804.05,361.00 806.74,361.00 809.42,361.00 812.11,361.00 814.79,361.00 817.48,387.45 820.16,410.54 822.84,427.09 825.53,438.59 828.21,446.46 830.90,451.75 833.58,453.43 836.27,454.14 838.95,454.77 841.64,455.46 844.32,456.18 847.00,456.85 849.69,457.46 852.37,457.98 855.06,458.41 857.74,458.76 860.43,459.04 863.11,459.26 865.80,459.44 868.48,459.58 871.16,459.68 873.85,459.77 876.53,459.83 879.22,459.88 881.90,459.91 884.59,459.94 887.27,459.96 889.96,459.98 892.64,459.99 895.32,460.00 898.01,460.01 900.69,460.01 903.38,460.01 906.06,460.02 908.75,460.02 911.43,460.02 914.12,460.02 916.80,460.02 919.48,460.02 922.17,460.02 924.85,460.03 927.54,460.03 930.22,460.03 932.91,460.03 935.59,460.03 938.28,460.03 940.96,460.03 943.64,460.03 946.33,460.03 949.01,460.03 951.70,460.03 954.38,460.03 957.07,460.03 959.75,460.03 962.44,460.03 965.12,460.03 967.80,460.03 970.49,460.03 973.17,460.03 975.86,460.03 978.54,460.03 981.23,460.03 983.91,460.03 986.60,460.03 989.28,460.03 991.96,460.03 994.65,460.03 997.33,460.03 1000.02,460.03 1002.70,460.03 1005.39,460.03 1008.07,460.03 1010.76,460.03 1013.44,460.03 1016.12,460.03 1018.81,460.03 1021.49,460.03 1024.18,460.03 1026.86,460.03 1029.55,460.03 1032.23,460.03 1034.92,460.03 1037.60,460.03 1040.28,460.03 1042.97,460.03 1045.65,460.03 1048.34,460.03 1051.02,460.03 1053.71,460.03 1056.39,460.03 1059.08,460.03 1061.76,460.03 1064.44,460.03 1067.13,460.03 1069.81,460.03 1072.50,460.03 1075.18,460.03 1077.87,460.03 1080.55,460.03 1083.24,460.03 1085.92,460.03 1088.60,460.03 1091.29,460.03 1093.97,460.03 1096.66,460.03 1099.34,460.03 1102.03,460.03 1104.71,460.03 1107.40,460.03 1110.08,460.03 1112.76,460.03 1115.45,460.03 1118.13,460.03 1120.82,460.03 1123.50,460.03 1126.19,460.03 1128.87,460.03 1131.56,460.03 1134.24,460.03 1136.92,460.03 1139.61,460.03 1142.29,460.03 1144.98,460.03 1147.66,460.03 1150.35,460.03 1153.03,460.03 1155.72,460.03 1158.40,460.03 1161.08,460.03 1163.77,460.03 1166.45,460.03 1169.14,460.03 1171.82,460.03 1174.51,460.03 1177.19,460.03 1179.88,460.03 1182.56,460.03 1185.24,460.03 1187.93,460.03 1190.61,460.03 1193.30,460.03 1195.98,460.03 1198.67,460.03 1201.35,460.03 1204.04,460.03 1206.72,460.03 1209.40,460.03 1212.09,460.03 1214.77,460.03 1217.46,460.03 1220.14,460.03 1222.83,460.03 1225.51,460.03 1228.20,460.03 1230.88,460.03 1233.56,460.03 1236.25,460.03 1238.93,460.03 1241.62,460.03 1244.30,460.03 1246.99,460.03 1249.67,460.03 1252.36,460.03 1255.04,460.03 1257.72,460.03 1260.41,460.03 1263.09,460.03 1265.78,460.03 1268.46,460.03 1271.15,460.03 1273.83,460.03 1276.52,460.03 1279.20,460.03 1281.88,460.03 1284.57,460.03 1287.25,460.03 1289.94,460.03 1292.62,460.03 1295.31,460.03 1297.99,460.03 1300.68,460.03 1303.36,460.03 1306.04,460.03 1308.73,460.03 1311.41,460.03 1314.10,460.03 1316.78,460.03 1319.47,460.03 1322.15,460.03 1324.84,460.03 1327.52,460.03 1330.20,460.03 1332.89,460.03 1335.57,460.03 1338.26,460.03 1340.94,460.03 1343.63,460.03 1346.31,460.03 1349.00,460.03 1351.68,460.03 1354.36,460.03 1357.05,460.03 1359.73,460.03 1362.42,460.03 1365.10,460.03 1367.79,460.03 1370.47,460.03 1373.16,460.03 1375.84,460.03 1378.52,460.03 1381.21,460.03 1383.89,460.03 1386.58,460.03 1389.26,460.03 1391.95,460.03 1394.63,460.03 1397.32,460.03 1400.00,460.03" fill="none" stroke="#1b75bb" stroke-width="2.2"/>
</g>
<text class="panel-title" x="796.0" y="570">Closest state-boundary distance [fraction]</text>
<defs><clipPath id="panel-clip-5"><rect x="796.0" y="586.0" width="604.0" height="144.0"/></clipPath></defs>
<line class="grid" x1="796.00" y1="586.00" x2="796.00" y2="730.00"/>
<text class="tick" text-anchor="middle" x="796.00" y="748.00">0</text>
<line class="grid" x1="947.00" y1="586.00" x2="947.00" y2="730.00"/>
<text class="tick" text-anchor="middle" x="947.00" y="748.00">56.2</text>
<line class="grid" x1="1098.00" y1="586.00" x2="1098.00" y2="730.00"/>
<text class="tick" text-anchor="middle" x="1098.00" y="748.00">112</text>
<line class="grid" x1="1249.00" y1="586.00" x2="1249.00" y2="730.00"/>
<text class="tick" text-anchor="middle" x="1249.00" y="748.00">169</text>
<line class="grid" x1="1400.00" y1="586.00" x2="1400.00" y2="730.00"/>
<text class="tick" text-anchor="middle" x="1400.00" y="748.00">225</text>
<line class="grid" x1="796.0" y1="730.00" x2="1400.0" y2="730.00"/>
<text class="tick" text-anchor="end" x="788.0" y="734.00">0</text>
<line class="grid" x1="796.0" y1="682.00" x2="1400.0" y2="682.00"/>
<text class="tick" text-anchor="end" x="788.0" y="686.00">0.043</text>
<line class="grid" x1="796.0" y1="634.00" x2="1400.0" y2="634.00"/>
<text class="tick" text-anchor="end" x="788.0" y="638.00">0.0861</text>
<line class="grid" x1="796.0" y1="586.00" x2="1400.0" y2="586.00"/>
<text class="tick" text-anchor="end" x="788.0" y="590.00">0.129</text>
<line class="axis" x1="796.0" y1="730.0" x2="1400.0" y2="730.0"/>
<line class="axis" x1="796.0" y1="586.0" x2="796.0" y2="730.0"/>
<text class="tick" text-anchor="middle" x="1098.00" y="764.0">time [s]</text>
<g clip-path="url(#panel-clip-5)">
<line x1="796.0" y1="730.00" x2="1400.0" y2="730.00" stroke="#c62828" stroke-width="1.5" stroke-dasharray="6 5"/>
<polyline points="798.68,686.68 801.37,680.55 804.05,674.21 806.74,667.64 809.42,660.85 812.11,653.83 814.79,646.61 817.48,639.19 820.16,631.61 822.84,623.93 825.53,616.32 828.21,609.07 830.90,603.93 833.58,600.32 836.27,597.81 838.95,596.09 841.64,594.92 844.32,594.14 847.00,593.63 849.69,593.30 852.37,593.10 855.06,592.98 857.74,592.91 860.43,592.87 863.11,592.86 865.80,592.86 868.48,592.87 871.16,592.88 873.85,592.89 876.53,592.91 879.22,592.93 881.90,592.95 884.59,592.97 887.27,592.98 889.96,593.00 892.64,593.02 895.32,593.04 898.01,593.05 900.69,593.07 903.38,593.09 906.06,593.10 908.75,593.12 911.43,593.13 914.12,593.15 916.80,593.16 919.48,593.18 922.17,593.19 924.85,593.21 927.54,593.22 930.22,593.24 932.91,593.25 935.59,593.27 938.28,593.28 940.96,593.29 943.64,593.31 946.33,593.32 949.01,593.33 951.70,593.35 954.38,593.36 957.07,593.37 959.75,593.38 962.44,593.40 965.12,593.41 967.80,593.42 970.49,593.43 973.17,593.44 975.86,593.45 978.54,593.46 981.23,593.48 983.91,593.49 986.60,593.50 989.28,593.51 991.96,593.52 994.65,593.53 997.33,593.54 1000.02,593.55 1002.70,593.56 1005.39,593.57 1008.07,593.58 1010.76,593.58 1013.44,593.59 1016.12,593.60 1018.81,593.61 1021.49,593.62 1024.18,593.63 1026.86,593.64 1029.55,593.64 1032.23,593.65 1034.92,593.66 1037.60,593.67 1040.28,593.68 1042.97,593.68 1045.65,593.69 1048.34,593.70 1051.02,593.70 1053.71,593.71 1056.39,593.72 1059.08,593.73 1061.76,593.73 1064.44,593.74 1067.13,593.74 1069.81,593.75 1072.50,593.76 1075.18,593.76 1077.87,593.77 1080.55,593.77 1083.24,593.78 1085.92,593.79 1088.60,593.79 1091.29,593.80 1093.97,593.80 1096.66,593.81 1099.34,593.81 1102.03,593.82 1104.71,593.82 1107.40,593.83 1110.08,593.83 1112.76,593.84 1115.45,593.84 1118.13,593.85 1120.82,593.85 1123.50,593.86 1126.19,593.86 1128.87,593.86 1131.56,593.87 1134.24,593.87 1136.92,593.88 1139.61,593.88 1142.29,593.88 1144.98,593.89 1147.66,593.89 1150.35,593.89 1153.03,593.90 1155.72,593.90 1158.40,593.90 1161.08,593.91 1163.77,593.91 1166.45,593.91 1169.14,593.92 1171.82,593.92 1174.51,593.92 1177.19,593.93 1179.88,593.93 1182.56,593.93 1185.24,593.94 1187.93,593.94 1190.61,593.94 1193.30,593.94 1195.98,593.95 1198.67,593.95 1201.35,593.95 1204.04,593.95 1206.72,593.96 1209.40,593.96 1212.09,593.96 1214.77,593.96 1217.46,593.97 1220.14,593.97 1222.83,593.97 1225.51,593.97 1228.20,593.97 1230.88,593.98 1233.56,593.98 1236.25,593.98 1238.93,593.98 1241.62,593.98 1244.30,593.99 1246.99,593.99 1249.67,593.99 1252.36,593.99 1255.04,593.99 1257.72,593.99 1260.41,594.00 1263.09,594.00 1265.78,594.00 1268.46,594.00 1271.15,594.00 1273.83,594.00 1276.52,594.00 1279.20,594.01 1281.88,594.01 1284.57,594.01 1287.25,594.01 1289.94,594.01 1292.62,594.01 1295.31,594.01 1297.99,594.02 1300.68,594.02 1303.36,594.02 1306.04,594.02 1308.73,594.02 1311.41,594.02 1314.10,594.02 1316.78,594.02 1319.47,594.02 1322.15,594.03 1324.84,594.03 1327.52,594.03 1330.20,594.03 1332.89,594.03 1335.57,594.03 1338.26,594.03 1340.94,594.03 1343.63,594.03 1346.31,594.03 1349.00,594.03 1351.68,594.04 1354.36,594.04 1357.05,594.04 1359.73,594.04 1362.42,594.04 1365.10,594.04 1367.79,594.04 1370.47,594.04 1373.16,594.04 1375.84,594.04 1378.52,594.04 1381.21,594.04 1383.89,594.04 1386.58,594.04 1389.26,594.05 1391.95,594.05 1394.63,594.05 1397.32,594.05 1400.00,594.05" fill="none" stroke="#d95f02" stroke-width="2.2"/>
<circle cx="798.68" cy="686.68" r="4.5" fill="#d95f02" stroke="#ffffff" stroke-width="1.5"><title>pid: reactant concentration lower, 0.0388 @ 1 s</title></circle>
<polyline points="798.68,686.68 801.37,680.55 804.05,674.21 806.74,667.64 809.42,660.85 812.11,653.83 814.79,646.61 817.48,639.27 820.16,631.97 822.84,624.81 825.53,617.83 828.21,611.08 830.90,605.85 833.58,602.14 836.27,599.59 838.95,597.84 841.64,596.66 844.32,595.85 847.00,595.30 849.69,594.92 852.37,594.66 855.06,594.48 857.74,594.36 860.43,594.27 863.11,594.21 865.80,594.17 868.48,594.14 871.16,594.12 873.85,594.11 876.53,594.10 879.22,594.09 881.90,594.09 884.59,594.08 887.27,594.08 889.96,594.08 892.64,594.08 895.32,594.08 898.01,594.07 900.69,594.07 903.38,594.07 906.06,594.07 908.75,594.07 911.43,594.07 914.12,594.07 916.80,594.07 919.48,594.07 922.17,594.07 924.85,594.07 927.54,594.07 930.22,594.07 932.91,594.07 935.59,594.07 938.28,594.07 940.96,594.07 943.64,594.07 946.33,594.07 949.01,594.07 951.70,594.07 954.38,594.07 957.07,594.07 959.75,594.07 962.44,594.07 965.12,594.07 967.80,594.07 970.49,594.07 973.17,594.07 975.86,594.07 978.54,594.07 981.23,594.07 983.91,594.07 986.60,594.07 989.28,594.07 991.96,594.07 994.65,594.07 997.33,594.07 1000.02,594.07 1002.70,594.07 1005.39,594.07 1008.07,594.07 1010.76,594.07 1013.44,594.07 1016.12,594.07 1018.81,594.07 1021.49,594.07 1024.18,594.07 1026.86,594.07 1029.55,594.07 1032.23,594.07 1034.92,594.07 1037.60,594.07 1040.28,594.07 1042.97,594.07 1045.65,594.07 1048.34,594.07 1051.02,594.07 1053.71,594.07 1056.39,594.07 1059.08,594.07 1061.76,594.07 1064.44,594.07 1067.13,594.07 1069.81,594.07 1072.50,594.07 1075.18,594.07 1077.87,594.07 1080.55,594.07 1083.24,594.07 1085.92,594.07 1088.60,594.07 1091.29,594.07 1093.97,594.07 1096.66,594.07 1099.34,594.07 1102.03,594.07 1104.71,594.07 1107.40,594.07 1110.08,594.07 1112.76,594.07 1115.45,594.07 1118.13,594.07 1120.82,594.07 1123.50,594.07 1126.19,594.07 1128.87,594.07 1131.56,594.07 1134.24,594.07 1136.92,594.07 1139.61,594.07 1142.29,594.07 1144.98,594.07 1147.66,594.07 1150.35,594.07 1153.03,594.07 1155.72,594.07 1158.40,594.07 1161.08,594.07 1163.77,594.07 1166.45,594.07 1169.14,594.07 1171.82,594.07 1174.51,594.07 1177.19,594.07 1179.88,594.07 1182.56,594.07 1185.24,594.07 1187.93,594.07 1190.61,594.07 1193.30,594.07 1195.98,594.07 1198.67,594.07 1201.35,594.07 1204.04,594.07 1206.72,594.07 1209.40,594.07 1212.09,594.07 1214.77,594.07 1217.46,594.07 1220.14,594.07 1222.83,594.07 1225.51,594.07 1228.20,594.07 1230.88,594.07 1233.56,594.07 1236.25,594.07 1238.93,594.07 1241.62,594.07 1244.30,594.07 1246.99,594.07 1249.67,594.07 1252.36,594.07 1255.04,594.07 1257.72,594.07 1260.41,594.07 1263.09,594.07 1265.78,594.07 1268.46,594.07 1271.15,594.07 1273.83,594.07 1276.52,594.07 1279.20,594.07 1281.88,594.07 1284.57,594.07 1287.25,594.07 1289.94,594.07 1292.62,594.07 1295.31,594.07 1297.99,594.07 1300.68,594.07 1303.36,594.07 1306.04,594.07 1308.73,594.07 1311.41,594.07 1314.10,594.07 1316.78,594.07 1319.47,594.07 1322.15,594.07 1324.84,594.07 1327.52,594.07 1330.20,594.07 1332.89,594.07 1335.57,594.07 1338.26,594.07 1340.94,594.07 1343.63,594.07 1346.31,594.07 1349.00,594.07 1351.68,594.07 1354.36,594.07 1357.05,594.07 1359.73,594.07 1362.42,594.07 1365.10,594.07 1367.79,594.07 1370.47,594.07 1373.16,594.07 1375.84,594.07 1378.52,594.07 1381.21,594.07 1383.89,594.07 1386.58,594.07 1389.26,594.07 1391.95,594.07 1394.63,594.07 1397.32,594.07 1400.00,594.07" fill="none" stroke="#1b75bb" stroke-width="2.2"/>
<circle cx="798.68" cy="686.68" r="4.5" fill="#1b75bb" stroke="#ffffff" stroke-width="1.5"><title>mpc: reactant concentration lower, 0.0388 @ 1 s</title></circle>
</g>
<rect x="1070.00" y="590.00" width="330.00" height="36.00" rx="4" fill="#ffffff" fill-opacity="0.88" stroke="#dadce0"/>
<text class="tick" text-anchor="end" x="1393.00" y="603.00" style="fill:#d95f02">pid: reactant concentration lower, 0.0388 fraction @ 1 s</text>
<text class="tick" text-anchor="end" x="1393.00" y="617.00" style="fill:#1b75bb">mpc: reactant concentration lower, 0.0388 fraction @ 1 s</text>
<text class="panel-title" x="76" y="797">Cumulative return by policy</text>
<text class="tick" x="720" y="797">circles: all return seeds; diamond: median</text>
<line class="grid" x1="160.00" y1="817.00" x2="160.00" y2="885.00"/>
<text class="tick" text-anchor="middle" x="160.00" y="903.00">-5.05</text>
<line class="grid" x1="470.00" y1="817.00" x2="470.00" y2="885.00"/>
<text class="tick" text-anchor="middle" x="470.00" y="903.00">-3.73</text>
<line class="grid" x1="780.00" y1="817.00" x2="780.00" y2="885.00"/>
<text class="tick" text-anchor="middle" x="780.00" y="903.00">-2.42</text>
<line class="grid" x1="1090.00" y1="817.00" x2="1090.00" y2="885.00"/>
<text class="tick" text-anchor="middle" x="1090.00" y="903.00">-1.1</text>
<line class="grid" x1="1400.00" y1="817.00" x2="1400.00" y2="885.00"/>
<text class="tick" text-anchor="middle" x="1400.00" y="903.00">0.212</text>
<line class="grid" x1="160.0" y1="834.00" x2="1400.0" y2="834.00"/>
<text class="legend" text-anchor="end" x="148.0" y="838.00">pid</text>
<circle cx="956.69" cy="828.00" r="4" fill="#d95f02" fill-opacity="0.48"><title>seed 0: -1.67</title></circle>
<circle cx="1315.10" cy="828.63" r="4" fill="#d95f02" fill-opacity="0.48"><title>seed 1: -0.148</title></circle>
<circle cx="1083.97" cy="829.26" r="4" fill="#d95f02" fill-opacity="0.48"><title>seed 2: -1.13</title></circle>
<circle cx="1303.66" cy="829.89" r="4" fill="#d95f02" fill-opacity="0.48"><title>seed 3: -0.196</title></circle>
<circle cx="1153.32" cy="830.53" r="4" fill="#d95f02" fill-opacity="0.48"><title>seed 4: -0.834</title></circle>
<circle cx="1107.52" cy="831.16" r="4" fill="#d95f02" fill-opacity="0.48"><title>seed 5: -1.03</title></circle>
<circle cx="960.60" cy="831.79" r="4" fill="#d95f02" fill-opacity="0.48"><title>seed 6: -1.65</title></circle>
<circle cx="1334.45" cy="832.42" r="4" fill="#d95f02" fill-opacity="0.48"><title>seed 7: -0.0658</title></circle>
<circle cx="1291.75" cy="833.05" r="4" fill="#d95f02" fill-opacity="0.48"><title>seed 8: -0.247</title></circle>
<circle cx="1343.64" cy="833.68" r="4" fill="#d95f02" fill-opacity="0.48"><title>seed 9: -0.0268</title></circle>
<circle cx="806.57" cy="834.32" r="4" fill="#d95f02" fill-opacity="0.48"><title>seed 10: -2.3</title></circle>
<circle cx="1106.56" cy="834.95" r="4" fill="#d95f02" fill-opacity="0.48"><title>seed 11: -1.03</title></circle>
<circle cx="1251.07" cy="835.58" r="4" fill="#d95f02" fill-opacity="0.48"><title>seed 12: -0.419</title></circle>
<circle cx="937.55" cy="836.21" r="4" fill="#d95f02" fill-opacity="0.48"><title>seed 13: -1.75</title></circle>
<circle cx="1319.66" cy="836.84" r="4" fill="#d95f02" fill-opacity="0.48"><title>seed 14: -0.129</title></circle>
<circle cx="982.82" cy="837.47" r="4" fill="#d95f02" fill-opacity="0.48"><title>seed 15: -1.56</title></circle>
<circle cx="255.91" cy="838.11" r="4" fill="#d95f02" fill-opacity="0.48"><title>seed 16: -4.64</title></circle>
<circle cx="1272.37" cy="838.74" r="4" fill="#d95f02" fill-opacity="0.48"><title>seed 17: -0.329</title></circle>
<circle cx="1324.09" cy="839.37" r="4" fill="#d95f02" fill-opacity="0.48"><title>seed 18: -0.11</title></circle>
<circle cx="1191.89" cy="840.00" r="4" fill="#d95f02" fill-opacity="0.48"><title>seed 19: -0.67</title></circle>
<polygon points="1172.60,827.00 1179.60,834.00 1172.60,841.00 1165.60,834.00" fill="#d95f02" stroke="#202124" stroke-width="1"/>
<line class="grid" x1="160.0" y1="868.00" x2="1400.0" y2="868.00"/>
<text class="legend" text-anchor="end" x="148.0" y="872.00">mpc</text>
<circle cx="952.97" cy="862.00" r="4" fill="#1b75bb" fill-opacity="0.48"><title>seed 0: -1.68</title></circle>
<circle cx="1317.18" cy="862.63" r="4" fill="#1b75bb" fill-opacity="0.48"><title>seed 1: -0.139</title></circle>
<circle cx="1086.15" cy="863.26" r="4" fill="#1b75bb" fill-opacity="0.48"><title>seed 2: -1.12</title></circle>
<circle cx="1309.26" cy="863.89" r="4" fill="#1b75bb" fill-opacity="0.48"><title>seed 3: -0.173</title></circle>
<circle cx="1161.45" cy="864.53" r="4" fill="#1b75bb" fill-opacity="0.48"><title>seed 4: -0.8</title></circle>
<circle cx="1106.78" cy="865.16" r="4" fill="#1b75bb" fill-opacity="0.48"><title>seed 5: -1.03</title></circle>
<circle cx="976.38" cy="865.79" r="4" fill="#1b75bb" fill-opacity="0.48"><title>seed 6: -1.58</title></circle>
<circle cx="1335.77" cy="866.42" r="4" fill="#1b75bb" fill-opacity="0.48"><title>seed 7: -0.0602</title></circle>
<circle cx="1293.02" cy="867.05" r="4" fill="#1b75bb" fill-opacity="0.48"><title>seed 8: -0.242</title></circle>
<circle cx="1342.12" cy="867.68" r="4" fill="#1b75bb" fill-opacity="0.48"><title>seed 9: -0.0332</title></circle>
<circle cx="825.42" cy="868.32" r="4" fill="#1b75bb" fill-opacity="0.48"><title>seed 10: -2.22</title></circle>
<circle cx="1089.19" cy="868.95" r="4" fill="#1b75bb" fill-opacity="0.48"><title>seed 11: -1.11</title></circle>
<circle cx="1249.68" cy="869.58" r="4" fill="#1b75bb" fill-opacity="0.48"><title>seed 12: -0.425</title></circle>
<circle cx="936.13" cy="870.21" r="4" fill="#1b75bb" fill-opacity="0.48"><title>seed 13: -1.76</title></circle>
<circle cx="1331.56" cy="870.84" r="4" fill="#1b75bb" fill-opacity="0.48"><title>seed 14: -0.0781</title></circle>
<circle cx="990.98" cy="871.47" r="4" fill="#1b75bb" fill-opacity="0.48"><title>seed 15: -1.52</title></circle>
<circle cx="216.36" cy="872.11" r="4" fill="#1b75bb" fill-opacity="0.48"><title>seed 16: -4.81</title></circle>
<circle cx="1266.40" cy="872.74" r="4" fill="#1b75bb" fill-opacity="0.48"><title>seed 17: -0.354</title></circle>
<circle cx="1324.91" cy="873.37" r="4" fill="#1b75bb" fill-opacity="0.48"><title>seed 18: -0.106</title></circle>
<circle cx="1197.42" cy="874.00" r="4" fill="#1b75bb" fill-opacity="0.48"><title>seed 19: -0.647</title></circle>
<polygon points="1179.43,861.00 1186.43,868.00 1179.43,875.00 1172.43,868.00" fill="#1b75bb" stroke="#202124" stroke-width="1"/>
<line class="axis" x1="160.0" y1="885.0" x2="1400.0" y2="885.0"/>
<text class="tick" text-anchor="middle" x="780.00" y="921.0">episode return (higher is better)</text>
</svg>
