<?xml version="1.0" encoding="UTF-8"?>
<svg xmlns="http://www.w3.org/2000/svg" width="1440" height="1060" viewBox="0 0 1440 1060">
<style>
text{font-family:-apple-system,BlinkMacSystemFont,'Segoe UI',sans-serif;fill:#202124}
.title{font-size:24px;font-weight:650}.panel-title{font-size:15px;font-weight:600}
.axis{stroke:#5f6368;stroke-width:1}.grid{stroke:#dadce0;stroke-width:1}
.tick{font-size:11px;fill:#5f6368}.legend{font-size:12px}
</style>
<rect width="100%" height="100%" fill="#ffffff"/>
<text class="title" x="64" y="38">heater policy comparison</text>
<text class="tick" x="64" y="62">trajectory seed: 0; return seeds: 0, 1, 2, 3, 4, 5, 6, 7, 8, 9, 10, 11, 12, 13, 14, 15, 16, 17, 18, 19</text>
<line x1="720" y1="34" x2="744" y2="34" stroke="#d95f02" stroke-width="3"/>
<text class="legend" x="750" y="38">pid</text>
<line x1="865" y1="34" x2="889" y2="34" stroke="#1b75bb" stroke-width="3"/>
<text class="legend" x="895" y="38">mpc</text>
<line x1="1010" y1="34" x2="1034" y2="34" stroke="#111111" stroke-width="2" stroke-dasharray="7 5"/>
<text class="legend" x="1040" y="38">reference</text>
<text class="panel-title" x="76.0" y="120">Output: flue_oxygen [%]</text>
<defs><clipPath id="panel-clip-0"><rect x="76.0" y="136.0" width="604.0" height="144.0"/></clipPath></defs>
<line class="grid" x1="76.00" y1="136.00" x2="76.00" y2="280.00"/>
<text class="tick" text-anchor="middle" x="76.00" y="298.00">0</text>
<line class="grid" x1="227.00" y1="136.00" x2="227.00" y2="280.00"/>
<text class="tick" text-anchor="middle" x="227.00" y="298.00">75</text>
<line class="grid" x1="378.00" y1="136.00" x2="378.00" y2="280.00"/>
<text class="tick" text-anchor="middle" x="378.00" y="298.00">150</text>
<line class="grid" x1="529.00" y1="136.00" x2="529.00" y2="280.00"/>
<text class="tick" text-anchor="middle" x="529.00" y="298.00">225</text>
<line class="grid" x1="680.00" y1="136.00" x2="680.00" y2="280.00"/>
<text class="tick" text-anchor="middle" x="680.00" y="298.00">300</text>
<line class="grid" x1="76.0" y1="280.00" x2="680.0" y2="280.00"/>
<text class="tick" text-anchor="end" x="68.0" y="284.00">2.98</text>
<line class="grid" x1="76.0" y1="232.00" x2="680.0" y2="232.00"/>
<text class="tick" text-anchor="end" x="68.0" y="236.00">3.74</text>
<line class="grid" x1="76.0" y1="184.00" x2="680.0" y2="184.00"/>
<text class="tick" text-anchor="end" x="68.0" y="188.00">4.5</text>
<line class="grid" x1="76.0" y1="136.00" x2="680.0" y2="136.00"/>
<text class="tick" text-anchor="end" x="68.0" y="140.00">5.27</text>
<line class="axis" x1="76.0" y1="280.0" x2="680.0" y2="280.0"/>
<line class="axis" x1="76.0" y1="136.0" x2="76.0" y2="280.0"/>
<text class="tick" text-anchor="middle" x="378.00" y="314.0">time [s]</text>
<g clip-path="url(#panel-clip-0)">
<polyline points="78.01,167.85 80.03,167.85 82.04,167.85 84.05,167.85 86.07,167.85 88.08,167.85 90.09,167.85 92.11,167.85 94.12,167.85 96.13,167.85 98.15,167.85 100.16,167.85 102.17,167.85 104.19,167.85 106.20,167.85 108.21,167.85 110.23,167.85 112.24,167.85 114.25,167.85 116.27,167.85 118.28,167.85 120.29,167.85 122.31,167.85 124.32,167.85 126.33,167.85 128.35,167.85 130.36,167.85 132.37,167.85 134.39,167.85 136.40,167.85 138.41,167.85 140.43,167.85 142.44,167.85 144.45,167.85 146.47,167.85 148.48,167.85 150.49,167.85 152.51,167.85 154.52,167.85 156.53,167.85 158.55,167.85 160.56,167.85 162.57,167.85 164.59,167.85 166.60,167.85 168.61,167.85 170.63,167.85 172.64,167.85 174.65,167.85 176.67,167.85 178.68,167.85 180.69,167.85 182.71,167.85 184.72,167.85 186.73,167.85 188.75,167.85 190.76,167.85 192.77,167.85 194.79,167.85 196.80,167.85 198.81,167.85 200.83,167.85 202.84,167.85 204.85,167.85 206.87,167.85 208.88,167.85 210.89,167.85 212.91,167.85 214.92,167.85 216.93,167.85 218.95,167.85 220.96,167.85 222.97,167.85 224.99,167.85 227.00,167.85 229.01,167.85 231.03,167.85 233.04,167.85 235.05,167.85 237.07,167.85 239.08,167.85 241.09,167.85 243.11,167.85 245.12,167.85 247.13,167.85 249.15,167.85 251.16,167.85 253.17,167.85 255.19,167.85 257.20,167.85 259.21,167.85 261.23,167.85 263.24,167.85 265.25,167.85 267.27,167.85 269.28,167.85 271.29,167.85 273.31,167.85 275.32,167.85 277.33,167.85 279.35,167.85 281.36,167.85 283.37,167.85 285.39,167.85 287.40,167.85 289.41,167.85 291.43,167.85 293.44,167.85 295.45,167.85 297.47,167.85 299.48,167.85 301.49,167.85 303.51,167.85 305.52,167.85 307.53,167.85 309.55,167.85 311.56,167.85 313.57,167.85 315.59,167.85 317.60,167.85 319.61,167.85 321.63,167.85 323.64,167.85 325.65,167.85 327.67,167.85 329.68,167.85 331.69,167.85 333.71,167.85 335.72,167.85 337.73,167.85 339.75,167.85 341.76,167.85 343.77,167.85 345.79,167.85 347.80,167.85 349.81,167.85 351.83,167.85 353.84,167.85 355.85,167.85 357.87,167.85 359.88,167.85 361.89,167.85 363.91,167.85 365.92,167.85 367.93,167.85 369.95,167.85 371.96,167.85 373.97,167.85 375.99,167.85 378.00,167.85 380.01,167.85 382.03,167.85 384.04,167.85 386.05,167.85 388.07,167.85 390.08,167.85 392.09,167.85 394.11,167.85 396.12,167.85 398.13,167.85 400.15,167.85 402.16,167.85 404.17,167.85 406.19,167.85 408.20,167.85 410.21,167.85 412.23,167.85 414.24,167.85 416.25,167.85 418.27,167.85 420.28,167.85 422.29,167.85 424.31,167.85 426.32,167.85 428.33,167.85 430.35,167.85 432.36,167.85 434.37,167.85 436.39,167.85 438.40,167.85 440.41,167.85 442.43,167.85 444.44,167.85 446.45,167.85 448.47,167.85 450.48,167.85 452.49,167.85 454.51,167.85 456.52,167.85 458.53,167.85 460.55,167.85 462.56,167.85 464.57,167.85 466.59,167.85 468.60,167.85 470.61,167.85 472.63,167.85 474.64,167.85 476.65,167.85 478.67,167.85 480.68,167.85 482.69,167.85 484.71,167.85 486.72,167.85 488.73,167.85 490.75,167.85 492.76,167.85 494.77,167.85 496.79,167.85 498.80,167.85 500.81,167.85 502.83,167.85 504.84,167.85 506.85,167.85 508.87,167.85 510.88,167.85 512.89,167.85 514.91,167.85 516.92,167.85 518.93,167.85 520.95,167.85 522.96,167.85 524.97,167.85 526.99,167.85 529.00,167.85 531.01,167.85 533.03,167.85 535.04,167.85 537.05,167.85 539.07,167.85 541.08,167.85 543.09,167.85 545.11,167.85 547.12,167.85 549.13,167.85 551.15,167.85 553.16,167.85 555.17,167.85 557.19,167.85 559.20,167.85 561.21,167.85 563.23,167.85 565.24,167.85 567.25,167.85 569.27,167.85 571.28,167.85 573.29,167.85 575.31,167.85 577.32,167.85 579.33,167.85 581.35,167.85 583.36,167.85 585.37,167.85 587.39,167.85 589.40,167.85 591.41,167.85 593.43,167.85 595.44,167.85 597.45,167.85 599.47,167.85 601.48,167.85 603.49,167.85 605.51,167.85 607.52,167.85 609.53,167.85 611.55,167.85 613.56,167.85 615.57,167.85 617.59,167.85 619.60,167.85 621.61,167.85 623.63,167.85 625.64,167.85 627.65,167.85 629.67,167.85 631.68,167.85 633.69,167.85 635.71,167.85 637.72,167.85 639.73,167.85 641.75,167.85 643.76,167.85 645.77,167.85 647.79,167.85 649.80,167.85 651.81,167.85 653.83,167.85 655.84,167.85 657.85,167.85 659.87,167.85 661.88,167.85 663.89,167.85 665.91,167.85 667.92,167.85 669.93,167.85 671.95,167.85 673.96,167.85 675.97,167.85 677.99,167.85 680.00,167.85" fill="none" stroke="#111111" stroke-width="1.8" stroke-dasharray="7 5"/>
<polyline points="78.01,258.86 80.03,237.29 82.04,218.63 84.05,202.71 86.07,189.31 88.08,178.22 90.09,169.19 92.11,161.96 94.12,156.27 96.13,151.89 98.15,148.60 100.16,146.20 102.17,144.53 104.19,143.44 106.20,142.81 108.21,142.55 110.23,142.57 112.24,142.83 114.25,143.27 116.27,143.85 118.28,144.54 120.29,145.31 122.31,146.15 124.32,147.04 126.33,147.98 128.35,148.94 130.36,149.92 132.37,150.92 134.39,151.93 136.40,152.95 138.41,153.97 140.43,154.99 142.44,156.01 144.45,157.02 146.47,158.03 148.48,159.03 150.49,160.01 152.51,160.99 154.52,161.95 156.53,162.91 158.55,163.84 160.56,164.76 162.57,165.67 164.59,166.56 166.60,167.43 168.61,168.29 170.63,169.12 172.64,169.94 174.65,170.74 176.67,171.52 178.68,172.28 180.69,173.01 182.71,173.73 184.72,174.43 186.73,175.11 188.75,175.76 190.76,176.40 192.77,177.01 194.79,177.61 196.80,178.18 198.81,178.73 200.83,179.26 202.84,179.77 204.85,180.26 206.87,180.73 208.88,181.18 210.89,181.61 212.91,182.02 214.92,182.40 216.93,182.77 218.95,183.12 220.96,183.45 222.97,183.77 224.99,184.06 227.00,184.33 229.01,184.59 231.03,184.83 233.04,185.06 235.05,185.26 237.07,185.45 239.08,185.63 241.09,185.78 243.11,185.93 245.12,186.05 247.13,186.17 249.15,186.27 251.16,186.35 253.17,186.42 255.19,186.48 257.20,186.53 259.21,186.56 261.23,186.58 263.24,186.59 265.25,186.59 267.27,186.58 269.28,186.56 271.29,186.53 273.31,186.48 275.32,186.43 277.33,186.37 279.35,186.31 281.36,186.23 283.37,186.15 285.39,186.06 287.40,185.96 289.41,185.86 291.43,185.74 293.44,185.63 295.45,185.51 297.47,185.38 299.48,185.25 301.49,185.11 303.51,184.97 305.52,184.82 307.53,184.67 309.55,184.52 311.56,184.36 313.57,184.20 315.59,184.04 317.60,183.88 319.61,183.71 321.63,183.54 323.64,183.37 325.65,183.20 327.67,183.03 329.68,182.86 331.69,182.68 333.71,182.51 335.72,182.33 337.73,182.16 339.75,181.98 341.76,181.80 343.77,181.63 345.79,181.45 347.80,181.28 349.81,181.10 351.83,180.93 353.84,180.76 355.85,180.59 357.87,180.42 359.88,180.25 361.89,180.08 363.91,179.91 365.92,179.75 367.93,179.59 369.95,179.43 371.96,179.27 373.97,179.11 375.99,178.95 378.00,178.80 380.01,178.65 382.03,178.50 384.04,178.35 386.05,178.21 388.07,178.06 390.08,177.92 392.09,177.79 394.11,177.65 396.12,177.52 398.13,177.38 400.15,177.26 402.16,177.13 404.17,177.00 406.19,176.88 408.20,176.76 410.21,176.65 412.23,176.53 414.24,176.42 416.25,176.31 418.27,176.20 420.28,176.10 422.29,175.99 424.31,175.89 426.32,175.79 428.33,175.70 430.35,175.60 432.36,175.51 434.37,175.42 436.39,175.33 438.40,175.25 440.41,175.16 442.43,175.08 444.44,175.00 446.45,174.92 448.47,174.85 450.48,174.77 452.49,174.70 454.51,174.63 456.52,174.56 458.53,174.50 460.55,174.43 462.56,174.37 464.57,174.31 466.59,174.25 468.60,174.19 470.61,174.13 472.63,174.07 474.64,174.02 476.65,173.97 478.67,173.92 480.68,173.87 482.69,173.82 484.71,173.77 486.72,173.72 488.73,173.68 490.75,173.63 492.76,173.59 494.77,173.55 496.79,173.51 498.80,173.47 500.81,173.43 502.83,173.39 504.84,173.35 506.85,173.31 508.87,173.28 510.88,173.24 512.89,173.21 514.91,173.18 516.92,173.14 518.93,173.11 520.95,173.08 522.96,173.05 524.97,173.02 526.99,172.99 529.00,172.96 531.01,172.93 533.03,172.90 535.04,172.87 537.05,172.85 539.07,172.82 541.08,172.79 543.09,172.77 545.11,172.74 547.12,172.71 549.13,172.69 551.15,172.66 553.16,172.64 555.17,172.61 557.19,172.59 559.20,172.57 561.21,172.54 563.23,172.52 565.24,172.49 567.25,172.47 569.27,172.45 571.28,172.43 573.29,172.40 575.31,172.38 577.32,172.36 579.33,172.33 581.35,172.31 583.36,172.29 585.37,172.27 587.39,172.25 589.40,172.22 591.41,172.20 593.43,172.18 595.44,172.16 597.45,172.13 599.47,172.11 601.48,172.09 603.49,172.07 605.51,172.05 607.52,172.03 609.53,172.00 611.55,171.98 613.56,171.96 615.57,171.94 617.59,171.92 619.60,171.89 621.61,171.87 623.63,171.85 625.64,171.83 627.65,171.81 629.67,171.79 631.68,171.76 633.69,171.74 635.71,171.72 637.72,171.70 639.73,171.68 641.75,171.66 643.76,171.63 645.77,171.61 647.79,171.59 649.80,171.57 651.81,171.55 653.83,171.53 655.84,171.50 657.85,171.48 659.87,171.46 661.88,171.44 663.89,171.42 665.91,171.40 667.92,171.38 669.93,171.35 671.95,171.33 673.96,171.31 675.97,171.29 677.99,171.27 680.00,171.25" fill="none" stroke="#d95f02" stroke-width="2.2"/>
<polyline points="78.01,273.45 80.03,263.93 82.04,255.60 84.05,247.68 86.07,240.59 88.08,233.85 90.09,227.81 92.11,222.08 94.12,216.95 96.13,212.08 98.15,207.73 100.16,203.60 102.17,199.93 104.19,196.43 106.20,193.33 108.21,190.37 110.23,187.76 112.24,185.28 114.25,183.09 116.27,181.01 118.28,179.18 120.29,177.44 122.31,175.91 124.32,174.47 126.33,173.21 128.35,172.01 130.36,170.98 132.37,170.00 134.39,169.16 136.40,168.36 138.41,167.68 140.43,167.03 142.44,166.49 144.45,165.98 146.47,165.55 148.48,165.15 150.49,164.82 152.51,164.52 154.52,164.27 156.53,164.04 158.55,163.87 160.56,163.71 162.57,163.59 164.59,163.49 166.60,163.42 168.61,163.36 170.63,163.33 172.64,163.30 174.65,163.31 176.67,163.32 178.68,163.35 180.69,163.38 182.71,163.43 184.72,163.48 186.73,163.55 188.75,163.62 190.76,163.70 192.77,163.78 194.79,163.87 196.80,163.95 198.81,164.05 200.83,164.14 202.84,164.25 204.85,164.34 206.87,164.45 208.88,164.55 210.89,164.65 212.91,164.75 214.92,164.86 216.93,164.96 218.95,165.06 220.96,165.16 222.97,165.26 224.99,165.36 227.00,165.46 229.01,165.55 231.03,165.64 233.04,165.74 235.05,165.83 237.07,165.91 239.08,166.00 241.09,166.08 243.11,166.17 245.12,166.24 247.13,166.32 249.15,166.40 251.16,166.47 253.17,166.54 255.19,166.61 257.20,166.68 259.21,166.74 261.23,166.80 263.24,166.86 265.25,166.92 267.27,166.98 269.28,167.03 271.29,167.08 273.31,167.13 275.32,167.18 277.33,167.23 279.35,167.27 281.36,167.31 283.37,167.35 285.39,167.39 287.40,167.43 289.41,167.47 291.43,167.50 293.44,167.53 295.45,167.56 297.47,167.59 299.48,167.62 301.49,167.65 303.51,167.67 305.52,167.70 307.53,167.72 309.55,167.74 311.56,167.76 313.57,167.78 315.59,167.80 317.60,167.82 319.61,167.83 321.63,167.85 323.64,167.86 325.65,167.88 327.67,167.89 329.68,167.90 331.69,167.91 333.71,167.92 335.72,167.93 337.73,167.94 339.75,167.95 341.76,167.96 343.77,167.96 345.79,167.97 347.80,167.98 349.81,167.98 351.83,167.99 353.84,167.99 355.85,167.99 357.87,168.00 359.88,168.00 361.89,168.00 363.91,168.01 365.92,168.01 367.93,168.01 369.95,168.01 371.96,168.01 373.97,168.01 375.99,168.01 378.00,168.01 380.01,168.01 382.03,168.01 384.04,168.01 386.05,168.01 388.07,168.01 390.08,168.01 392.09,168.01 394.11,168.01 396.12,168.01 398.13,168.00 400.15,168.00 402.16,168.00 404.17,168.00 406.19,168.00 408.20,167.99 410.21,167.99 412.23,167.99 414.24,167.99 416.25,167.99 418.27,167.98 420.28,167.98 422.29,167.98 424.31,167.98 426.32,167.97 428.33,167.97 430.35,167.97 432.36,167.97 434.37,167.96 436.39,167.96 438.40,167.96 440.41,167.96 442.43,167.95 444.44,167.95 446.45,167.95 448.47,167.95 450.48,167.94 452.49,167.94 454.51,167.94 456.52,167.94 458.53,167.94 460.55,167.93 462.56,167.93 464.57,167.93 466.59,167.93 468.60,167.92 470.61,167.92 472.63,167.92 474.64,167.92 476.65,167.92 478.67,167.91 480.68,167.91 482.69,167.91 484.71,167.91 486.72,167.91 488.73,167.91 490.75,167.90 492.76,167.90 494.77,167.90 496.79,167.90 498.80,167.90 500.81,167.90 502.83,167.89 504.84,167.89 506.85,167.89 508.87,167.89 510.88,167.89 512.89,167.89 514.91,167.89 516.92,167.88 518.93,167.88 520.95,167.88 522.96,167.88 524.97,167.88 526.99,167.88 529.00,167.88 531.01,167.88 533.03,167.88 535.04,167.87 537.05,167.87 539.07,167.87 541.08,167.87 543.09,167.87 545.11,167.87 547.12,167.87 549.13,167.87 551.15,167.87 553.16,167.87 555.17,167.87 557.19,167.87 559.20,167.87 561.21,167.87 563.23,167.86 565.24,167.86 567.25,167.86 569.27,167.86 571.28,167.86 573.29,167.86 575.31,167.86 577.32,167.86 579.33,167.86 581.35,167.86 583.36,167.86 585.37,167.86 587.39,167.86 589.40,167.86 591.41,167.86 593.43,167.86 595.44,167.86 597.45,167.86 599.47,167.86 601.48,167.86 603.49,167.86 605.51,167.86 607.52,167.86 609.53,167.86 611.55,167.86 613.56,167.86 615.57,167.86 617.59,167.85 619.60,167.85 621.61,167.85 623.63,167.85 625.64,167.85 627.65,167.85 629.67,167.85 631.68,167.85 633.69,167.85 635.71,167.85 637.72,167.85 639.73,167.85 641.75,167.85 643.76,167.85 645.77,167.85 647.79,167.85 649.80,167.85 651.81,167.85 653.83,167.85 655.84,167.85 657.85,167.85 659.87,167.85 661.88,167.85 663.89,167.85 665.91,167.85 667.92,167.85 669.93,167.85 671.95,167.85 673.96,167.85 675.97,167.85 677.99,167.85 680.00,167.85" fill="none" stroke="#1b75bb" stroke-width="2.2"/>
</g>
<text class="panel-title" x="76.0" y="345">Output: outlet_temperature [degC]</text>
<defs><clipPath id="panel-clip-2"><rect x="76.0" y="361.0" width="604.0" height="144.0"/></clipPath></defs>
<line class="grid" x1="76.00" y1="361.00" x2="76.00" y2="505.00"/>
<text class="tick" text-anchor="middle" x="76.00" y="523.00">0</text>
<line class="grid" x1="227.00" y1="361.00" x2="227.00" y2="505.00"/>
<text class="tick" text-anchor="middle" x="227.00" y="523.00">75</text>
<line class="grid" x1="378.00" y1="361.00" x2="378.00" y2="505.00"/>
<text class="tick" text-anchor="middle" x="378.00" y="523.00">150</text>
<line class="grid" x1="529.00" y1="361.00" x2="529.00" y2="505.00"/>
<text class="tick" text-anchor="middle" x="529.00" y="523.00">225</text>
<line class="grid" x1="680.00" y1="361.00" x2="680.00" y2="505.00"/>
<text class="tick" text-anchor="middle" x="680.00" y="523.00">300</text>
<line class="grid" x1="76.0" y1="505.00" x2="680.0" y2="505.00"/>
<text class="tick" text-anchor="end" x="68.0" y="509.00">363</text>
<line class="grid" x1="76.0" y1="457.00" x2="680.0" y2="457.00"/>
<text class="tick" text-anchor="end" x="68.0" y="461.00">365</text>
<line class="grid" x1="76.0" y1="409.00" x2="680.0" y2="409.00"/>
<text class="tick" text-anchor="end" x="68.0" y="413.00">368</text>
<line class="grid" x1="76.0" y1="361.00" x2="680.0" y2="361.00"/>
<text class="tick" text-anchor="end" x="68.0" y="365.00">371</text>
<line class="axis" x1="76.0" y1="505.0" x2="680.0" y2="505.0"/>
<line class="axis" x1="76.0" y1="361.0" x2="76.0" y2="505.0"/>
<text class="tick" text-anchor="middle" x="378.00" y="539.0">time [s]</text>
<g clip-path="url(#panel-clip-2)">
<polyline points="78.01,474.22 80.03,474.22 82.04,474.22 84.05,474.22 86.07,474.22 88.08,474.22 90.09,474.22 92.11,474.22 94.12,474.22 96.13,474.22 98.15,474.22 100.16,474.22 102.17,474.22 104.19,474.22 106.20,474.22 108.21,474.22 110.23,474.22 112.24,474.22 114.25,474.22 116.27,474.22 118.28,474.22 120.29,474.22 122.31,474.22 124.32,474.22 126.33,474.22 128.35,474.22 130.36,474.22 132.37,474.22 134.39,474.22 136.40,474.22 138.41,474.22 140.43,474.22 142.44,474.22 144.45,474.22 146.47,474.22 148.48,474.22 150.49,474.22 152.51,474.22 154.52,474.22 156.53,474.22 158.55,474.22 160.56,474.22 162.57,474.22 164.59,474.22 166.60,474.22 168.61,474.22 170.63,474.22 172.64,474.22 174.65,474.22 176.67,474.22 178.68,474.22 180.69,474.22 182.71,474.22 184.72,474.22 186.73,474.22 188.75,474.22 190.76,474.22 192.77,474.22 194.79,474.22 196.80,474.22 198.81,474.22 200.83,474.22 202.84,474.22 204.85,474.22 206.87,474.22 208.88,474.22 210.89,474.22 212.91,474.22 214.92,474.22 216.93,474.22 218.95,474.22 220.96,474.22 222.97,474.22 224.99,474.22 227.00,474.22 229.01,474.22 231.03,474.22 233.04,474.22 235.05,474.22 237.07,474.22 239.08,474.22 241.09,474.22 243.11,474.22 245.12,474.22 247.13,474.22 249.15,474.22 251.16,474.22 253.17,474.22 255.19,474.22 257.20,474.22 259.21,474.22 261.23,474.22 263.24,474.22 265.25,474.22 267.27,474.22 269.28,474.22 271.29,474.22 273.31,474.22 275.32,474.22 277.33,474.22 279.35,474.22 281.36,474.22 283.37,474.22 285.39,474.22 287.40,474.22 289.41,474.22 291.43,474.22 293.44,474.22 295.45,474.22 297.47,474.22 299.48,474.22 301.49,474.22 303.51,474.22 305.52,474.22 307.53,474.22 309.55,474.22 311.56,474.22 313.57,474.22 315.59,474.22 317.60,474.22 319.61,474.22 321.63,474.22 323.64,474.22 325.65,474.22 327.67,474.22 329.68,474.22 331.69,474.22 333.71,474.22 335.72,474.22 337.73,474.22 339.75,474.22 341.76,474.22 343.77,474.22 345.79,474.22 347.80,474.22 349.81,474.22 351.83,474.22 353.84,474.22 355.85,474.22 357.87,474.22 359.88,474.22 361.89,474.22 363.91,474.22 365.92,474.22 367.93,474.22 369.95,474.22 371.96,474.22 373.97,474.22 375.99,474.22 378.00,474.22 380.01,474.22 382.03,474.22 384.04,474.22 386.05,474.22 388.07,474.22 390.08,474.22 392.09,474.22 394.11,474.22 396.12,474.22 398.13,474.22 400.15,474.22 402.16,474.22 404.17,474.22 406.19,474.22 408.20,474.22 410.21,474.22 412.23,474.22 414.24,474.22 416.25,474.22 418.27,474.22 420.28,474.22 422.29,474.22 424.31,474.22 426.32,474.22 428.33,474.22 430.35,474.22 432.36,474.22 434.37,474.22 436.39,474.22 438.40,474.22 440.41,474.22 442.43,474.22 444.44,474.22 446.45,474.22 448.47,474.22 450.48,474.22 452.49,474.22 454.51,474.22 456.52,474.22 458.53,474.22 460.55,474.22 462.56,474.22 464.57,474.22 466.59,474.22 468.60,474.22 470.61,474.22 472.63,474.22 474.64,474.22 476.65,474.22 478.67,474.22 480.68,474.22 482.69,474.22 484.71,474.22 486.72,474.22 488.73,474.22 490.75,474.22 492.76,474.22 494.77,474.22 496.79,474.22 498.80,474.22 500.81,474.22 502.83,474.22 504.84,474.22 506.85,474.22 508.87,474.22 510.88,474.22 512.89,474.22 514.91,474.22 516.92,474.22 518.93,474.22 520.95,474.22 522.96,474.22 524.97,474.22 526.99,474.22 529.00,474.22 531.01,474.22 533.03,474.22 535.04,474.22 537.05,474.22 539.07,474.22 541.08,474.22 543.09,474.22 545.11,474.22 547.12,474.22 549.13,474.22 551.15,474.22 553.16,474.22 555.17,474.22 557.19,474.22 559.20,474.22 561.21,474.22 563.23,474.22 565.24,474.22 567.25,474.22 569.27,474.22 571.28,474.22 573.29,474.22 575.31,474.22 577.32,474.22 579.33,474.22 581.35,474.22 583.36,474.22 585.37,474.22 587.39,474.22 589.40,474.22 591.41,474.22 593.43,474.22 595.44,474.22 597.45,474.22 599.47,474.22 601.48,474.22 603.49,474.22 605.51,474.22 607.52,474.22 609.53,474.22 611.55,474.22 613.56,474.22 615.57,474.22 617.59,474.22 619.60,474.22 621.61,474.22 623.63,474.22 625.64,474.22 627.65,474.22 629.67,474.22 631.68,474.22 633.69,474.22 635.71,474.22 637.72,474.22 639.73,474.22 641.75,474.22 643.76,474.22 645.77,474.22 647.79,474.22 649.80,474.22 651.81,474.22 653.83,474.22 655.84,474.22 657.85,474.22 659.87,474.22 661.88,474.22 663.89,474.22 665.91,474.22 667.92,474.22 669.93,474.22 671.95,474.22 673.96,474.22 675.97,474.22 677.99,474.22 680.00,474.22" fill="none" stroke="#111111" stroke-width="1.8" stroke-dasharray="7 5"/>
<polyline points="78.01,367.66 80.03,368.24 82.04,369.13 84.05,370.30 86.07,371.69 88.08,373.29 90.09,375.04 92.11,376.94 94.12,378.96 96.13,381.08 98.15,383.28 100.16,385.55 102.17,387.88 104.19,390.25 106.20,392.67 108.21,395.12 110.23,397.60 112.24,400.09 114.25,402.60 116.27,405.12 118.28,407.64 120.29,410.16 122.31,412.68 124.32,415.20 126.33,417.70 128.35,420.19 130.36,422.66 132.37,425.11 134.39,427.54 136.40,429.95 138.41,432.33 140.43,434.68 142.44,437.00 144.45,439.29 146.47,441.54 148.48,443.76 150.49,445.94 152.51,448.08 154.52,450.17 156.53,452.23 158.55,454.25 160.56,456.22 162.57,458.14 164.59,460.02 166.60,461.86 168.61,463.64 170.63,465.38 172.64,467.08 174.65,468.72 176.67,470.32 178.68,471.86 180.69,473.36 182.71,474.81 184.72,476.22 186.73,477.57 188.75,478.87 190.76,480.13 192.77,481.34 194.79,482.50 196.80,483.62 198.81,484.69 200.83,485.71 202.84,486.68 204.85,487.61 206.87,488.50 208.88,489.34 210.89,490.14 212.91,490.90 214.92,491.61 216.93,492.29 218.95,492.92 220.96,493.51 222.97,494.07 224.99,494.59 227.00,495.07 229.01,495.51 231.03,495.92 233.04,496.29 235.05,496.63 237.07,496.94 239.08,497.22 241.09,497.47 243.11,497.68 245.12,497.87 247.13,498.03 249.15,498.16 251.16,498.27 253.17,498.35 255.19,498.41 257.20,498.44 259.21,498.45 261.23,498.44 263.24,498.41 265.25,498.36 267.27,498.29 269.28,498.21 271.29,498.10 273.31,497.98 275.32,497.85 277.33,497.69 279.35,497.53 281.36,497.35 283.37,497.16 285.39,496.96 287.40,496.74 289.41,496.52 291.43,496.29 293.44,496.05 295.45,495.80 297.47,495.54 299.48,495.27 301.49,495.00 303.51,494.72 305.52,494.44 307.53,494.15 309.55,493.86 311.56,493.57 313.57,493.27 315.59,492.97 317.60,492.67 319.61,492.36 321.63,492.06 323.64,491.75 325.65,491.45 327.67,491.14 329.68,490.83 331.69,490.53 333.71,490.22 335.72,489.92 337.73,489.61 339.75,489.31 341.76,489.02 343.77,488.72 345.79,488.43 347.80,488.14 349.81,487.85 351.83,487.57 353.84,487.28 355.85,487.01 357.87,486.73 359.88,486.47 361.89,486.20 363.91,485.94 365.92,485.68 367.93,485.43 369.95,485.18 371.96,484.94 373.97,484.70 375.99,484.47 378.00,484.24 380.01,484.01 382.03,483.79 384.04,483.58 386.05,483.37 388.07,483.17 390.08,482.97 392.09,482.77 394.11,482.58 396.12,482.40 398.13,482.22 400.15,482.04 402.16,481.87 404.17,481.71 406.19,481.55 408.20,481.39 410.21,481.24 412.23,481.09 414.24,480.95 416.25,480.81 418.27,480.68 420.28,480.55 422.29,480.43 424.31,480.31 426.32,480.19 428.33,480.08 430.35,479.98 432.36,479.87 434.37,479.77 436.39,479.68 438.40,479.58 440.41,479.50 442.43,479.41 444.44,479.33 446.45,479.25 448.47,479.18 450.48,479.10 452.49,479.04 454.51,478.97 456.52,478.91 458.53,478.85 460.55,478.79 462.56,478.74 464.57,478.69 466.59,478.64 468.60,478.59 470.61,478.54 472.63,478.50 474.64,478.46 476.65,478.42 478.67,478.39 480.68,478.35 482.69,478.32 484.71,478.29 486.72,478.26 488.73,478.23 490.75,478.21 492.76,478.18 494.77,478.16 496.79,478.14 498.80,478.12 500.81,478.10 502.83,478.08 504.84,478.06 506.85,478.05 508.87,478.03 510.88,478.02 512.89,478.01 514.91,477.99 516.92,477.98 518.93,477.97 520.95,477.96 522.96,477.95 524.97,477.94 526.99,477.93 529.00,477.92 531.01,477.91 533.03,477.91 535.04,477.90 537.05,477.89 539.07,477.88 541.08,477.88 543.09,477.87 545.11,477.86 547.12,477.86 549.13,477.85 551.15,477.85 553.16,477.84 555.17,477.83 557.19,477.83 559.20,477.82 561.21,477.81 563.23,477.81 565.24,477.80 567.25,477.79 569.27,477.79 571.28,477.78 573.29,477.77 575.31,477.77 577.32,477.76 579.33,477.75 581.35,477.74 583.36,477.74 585.37,477.73 587.39,477.72 589.40,477.71 591.41,477.70 593.43,477.69 595.44,477.68 597.45,477.67 599.47,477.66 601.48,477.65 603.49,477.64 605.51,477.63 607.52,477.62 609.53,477.61 611.55,477.60 613.56,477.59 615.57,477.58 617.59,477.56 619.60,477.55 621.61,477.54 623.63,477.52 625.64,477.51 627.65,477.50 629.67,477.48 631.68,477.47 633.69,477.46 635.71,477.44 637.72,477.43 639.73,477.41 641.75,477.40 643.76,477.38 645.77,477.37 647.79,477.35 649.80,477.34 651.81,477.32 653.83,477.30 655.84,477.29 657.85,477.27 659.87,477.26 661.88,477.24 663.89,477.22 665.91,477.21 667.92,477.19 669.93,477.17 671.95,477.15 673.96,477.14 675.97,477.12 677.99,477.10 680.00,477.09" fill="none" stroke="#d95f02" stroke-width="2.2"/>
<polyline points="78.01,367.55 80.03,367.79 82.04,368.19 84.05,368.73 86.07,369.39 88.08,370.16 90.09,371.05 92.11,372.03 94.12,373.10 96.13,374.25 98.15,375.48 100.16,376.78 102.17,378.13 104.19,379.55 106.20,381.01 108.21,382.51 110.23,384.05 112.24,385.63 114.25,387.23 116.27,388.86 118.28,390.51 120.29,392.18 122.31,393.86 124.32,395.55 126.33,397.24 128.35,398.94 130.36,400.64 132.37,402.33 134.39,404.02 136.40,405.71 138.41,407.39 140.43,409.05 142.44,410.70 144.45,412.34 146.47,413.97 148.48,415.57 150.49,417.16 152.51,418.73 154.52,420.28 156.53,421.81 158.55,423.31 160.56,424.79 162.57,426.25 164.59,427.68 166.60,429.09 168.61,430.47 170.63,431.83 172.64,433.16 174.65,434.47 176.67,435.75 178.68,437.00 180.69,438.22 182.71,439.42 184.72,440.59 186.73,441.74 188.75,442.86 190.76,443.95 192.77,445.01 194.79,446.05 196.80,447.06 198.81,448.05 200.83,449.01 202.84,449.95 204.85,450.86 206.87,451.74 208.88,452.60 210.89,453.44 212.91,454.25 214.92,455.04 216.93,455.81 218.95,456.55 220.96,457.27 222.97,457.97 224.99,458.65 227.00,459.30 229.01,459.94 231.03,460.56 233.04,461.15 235.05,461.73 237.07,462.28 239.08,462.82 241.09,463.34 243.11,463.84 245.12,464.33 247.13,464.80 249.15,465.25 251.16,465.68 253.17,466.10 255.19,466.51 257.20,466.90 259.21,467.27 261.23,467.63 263.24,467.98 265.25,468.31 267.27,468.63 269.28,468.94 271.29,469.24 273.31,469.52 275.32,469.80 277.33,470.06 279.35,470.31 281.36,470.55 283.37,470.78 285.39,471.00 287.40,471.21 289.41,471.41 291.43,471.60 293.44,471.79 295.45,471.96 297.47,472.13 299.48,472.29 301.49,472.44 303.51,472.59 305.52,472.73 307.53,472.86 309.55,472.98 311.56,473.10 313.57,473.21 315.59,473.32 317.60,473.42 319.61,473.52 321.63,473.61 323.64,473.70 325.65,473.78 327.67,473.85 329.68,473.92 331.69,473.99 333.71,474.06 335.72,474.12 337.73,474.17 339.75,474.23 341.76,474.28 343.77,474.32 345.79,474.37 347.80,474.41 349.81,474.44 351.83,474.48 353.84,474.51 355.85,474.54 357.87,474.57 359.88,474.59 361.89,474.61 363.91,474.63 365.92,474.65 367.93,474.67 369.95,474.69 371.96,474.70 373.97,474.71 375.99,474.72 378.00,474.73 380.01,474.74 382.03,474.75 384.04,474.75 386.05,474.76 388.07,474.76 390.08,474.76 392.09,474.76 394.11,474.76 396.12,474.76 398.13,474.76 400.15,474.76 402.16,474.76 404.17,474.76 406.19,474.75 408.20,474.75 410.21,474.74 412.23,474.74 414.24,474.73 416.25,474.73 418.27,474.72 420.28,474.71 422.29,474.71 424.31,474.70 426.32,474.69 428.33,474.69 430.35,474.68 432.36,474.67 434.37,474.66 436.39,474.65 438.40,474.65 440.41,474.64 442.43,474.63 444.44,474.62 446.45,474.61 448.47,474.60 450.48,474.60 452.49,474.59 454.51,474.58 456.52,474.57 458.53,474.56 460.55,474.55 462.56,474.54 464.57,474.54 466.59,474.53 468.60,474.52 470.61,474.51 472.63,474.50 474.64,474.50 476.65,474.49 478.67,474.48 480.68,474.47 482.69,474.47 484.71,474.46 486.72,474.45 488.73,474.45 490.75,474.44 492.76,474.43 494.77,474.43 496.79,474.42 498.80,474.41 500.81,474.41 502.83,474.40 504.84,474.39 506.85,474.39 508.87,474.38 510.88,474.38 512.89,474.37 514.91,474.37 516.92,474.36 518.93,474.36 520.95,474.35 522.96,474.35 524.97,474.34 526.99,474.34 529.00,474.33 531.01,474.33 533.03,474.32 535.04,474.32 537.05,474.32 539.07,474.31 541.08,474.31 543.09,474.30 545.11,474.30 547.12,474.30 549.13,474.29 551.15,474.29 553.16,474.29 555.17,474.28 557.19,474.28 559.20,474.28 561.21,474.28 563.23,474.27 565.24,474.27 567.25,474.27 569.27,474.27 571.28,474.26 573.29,474.26 575.31,474.26 577.32,474.26 579.33,474.26 581.35,474.25 583.36,474.25 585.37,474.25 587.39,474.25 589.40,474.25 591.41,474.25 593.43,474.24 595.44,474.24 597.45,474.24 599.47,474.24 601.48,474.24 603.49,474.24 605.51,474.24 607.52,474.23 609.53,474.23 611.55,474.23 613.56,474.23 615.57,474.23 617.59,474.23 619.60,474.23 621.61,474.23 623.63,474.23 625.64,474.23 627.65,474.23 629.67,474.22 631.68,474.22 633.69,474.22 635.71,474.22 637.72,474.22 639.73,474.22 641.75,474.22 643.76,474.22 645.77,474.22 647.79,474.22 649.80,474.22 651.81,474.22 653.83,474.22 655.84,474.22 657.85,474.22 659.87,474.22 661.88,474.22 663.89,474.22 665.91,474.22 667.92,474.22 669.93,474.22 671.95,474.22 673.96,474.22 675.97,474.22 677.99,474.22 680.00,474.22" fill="none" stroke="#1b75bb" stroke-width="2.2"/>
</g>
<text class="panel-title" x="796.0" y="120">Applied action: air_damper [fraction]</text>
<defs><clipPath id="panel-clip-1"><rect x="796.0" y="136.0" width="604.0" height="144.0"/></clipPath></defs>
<line class="grid" x1="796.00" y1="136.00" x2="796.00" y2="280.00"/>
<text class="tick" text-anchor="middle" x="796.00" y="298.00">0</text>
<line class="grid" x1="947.00" y1="136.00" x2="947.00" y2="280.00"/>
<text class="tick" text-anchor="middle" x="947.00" y="298.00">75</text>
<line class="grid" x1="1098.00" y1="136.00" x2="1098.00" y2="280.00"/>
<text class="tick" text-anchor="middle" x="1098.00" y="298.00">150</text>
<line class="grid" x1="1249.00" y1="136.00" x2="1249.00" y2="280.00"/>
<text class="tick" text-anchor="middle" x="1249.00" y="298.00">225</text>
<line class="grid" x1="1400.00" y1="136.00" x2="1400.00" y2="280.00"/>
<text class="tick" text-anchor="middle" x="1400.00" y="298.00">300</text>
<line class="grid" x1="796.0" y1="280.00" x2="1400.0" y2="280.00"/>
<text class="tick" text-anchor="end" x="788.0" y="284.00">0</text>
<line class="grid" x1="796.0" y1="232.00" x2="1400.0" y2="232.00"/>
<text class="tick" text-anchor="end" x="788.0" y="236.00">0.333</text>
<line class="grid" x1="796.0" y1="184.00" x2="1400.0" y2="184.00"/>
<text class="tick" text-anchor="end" x="788.0" y="188.00">0.667</text>
<line class="grid" x1="796.0" y1="136.00" x2="1400.0" y2="136.00"/>
<text class="tick" text-anchor="end" x="788.0" y="140.00">1</text>
<line class="axis" x1="796.0" y1="280.0" x2="1400.0" y2="280.0"/>
<line class="axis" x1="796.0" y1="136.0" x2="796.0" y2="280.0"/>
<text class="tick" text-anchor="middle" x="1098.00" y="314.0">time [s]</text>
<g clip-path="url(#panel-clip-1)">
<polyline points="798.01,200.59 800.03,205.47 802.04,209.76 804.05,213.49 806.07,216.70 808.08,219.41 810.09,221.68 812.11,223.54 814.12,225.05 816.13,226.25 818.15,227.19 820.16,227.91 822.17,228.45 824.19,228.85 826.20,229.13 828.21,229.32 830.23,229.43 832.24,229.49 834.25,229.49 836.27,229.46 838.28,229.39 840.29,229.30 842.31,229.20 844.32,229.07 846.33,228.93 848.35,228.79 850.36,228.63 852.37,228.47 854.39,228.30 856.40,228.13 858.41,227.96 860.43,227.78 862.44,227.60 864.45,227.41 866.47,227.23 868.48,227.04 870.49,226.86 872.51,226.67 874.52,226.49 876.53,226.30 878.55,226.12 880.56,225.93 882.57,225.75 884.59,225.57 886.60,225.39 888.61,225.21 890.63,225.03 892.64,224.85 894.65,224.68 896.67,224.51 898.68,224.34 900.69,224.17 902.71,224.01 904.72,223.85 906.73,223.69 908.75,223.53 910.76,223.38 912.77,223.23 914.79,223.08 916.80,222.93 918.81,222.79 920.83,222.65 922.84,222.52 924.85,222.39 926.87,222.26 928.88,222.13 930.89,222.01 932.91,221.89 934.92,221.77 936.93,221.66 938.95,221.55 940.96,221.44 942.97,221.34 944.99,221.23 947.00,221.14 949.01,221.04 951.03,220.95 953.04,220.86 955.05,220.78 957.07,220.69 959.08,220.61 961.09,220.54 963.11,220.46 965.12,220.39 967.13,220.32 969.15,220.26 971.16,220.20 973.17,220.14 975.19,220.08 977.20,220.02 979.21,219.97 981.23,219.92 983.24,219.88 985.25,219.83 987.27,219.79 989.28,219.75 991.29,219.71 993.31,219.67 995.32,219.64 997.33,219.61 999.35,219.58 1001.36,219.55 1003.37,219.52 1005.39,219.50 1007.40,219.47 1009.41,219.45 1011.43,219.43 1013.44,219.41 1015.45,219.40 1017.47,219.38 1019.48,219.37 1021.49,219.36 1023.51,219.34 1025.52,219.33 1027.53,219.32 1029.55,219.32 1031.56,219.31 1033.57,219.30 1035.59,219.30 1037.60,219.30 1039.61,219.29 1041.63,219.29 1043.64,219.29 1045.65,219.29 1047.67,219.29 1049.68,219.29 1051.69,219.29 1053.71,219.29 1055.72,219.30 1057.73,219.30 1059.75,219.30 1061.76,219.31 1063.77,219.31 1065.79,219.32 1067.80,219.32 1069.81,219.33 1071.83,219.33 1073.84,219.34 1075.85,219.34 1077.87,219.35 1079.88,219.36 1081.89,219.36 1083.91,219.37 1085.92,219.38 1087.93,219.38 1089.95,219.39 1091.96,219.40 1093.97,219.40 1095.99,219.41 1098.00,219.42 1100.01,219.42 1102.03,219.43 1104.04,219.44 1106.05,219.44 1108.07,219.45 1110.08,219.45 1112.09,219.46 1114.11,219.47 1116.12,219.47 1118.13,219.48 1120.15,219.48 1122.16,219.49 1124.17,219.49 1126.19,219.50 1128.20,219.50 1130.21,219.51 1132.23,219.51 1134.24,219.51 1136.25,219.52 1138.27,219.52 1140.28,219.52 1142.29,219.53 1144.31,219.53 1146.32,219.53 1148.33,219.53 1150.35,219.53 1152.36,219.54 1154.37,219.54 1156.39,219.54 1158.40,219.54 1160.41,219.54 1162.43,219.54 1164.44,219.54 1166.45,219.54 1168.47,219.54 1170.48,219.54 1172.49,219.54 1174.51,219.54 1176.52,219.54 1178.53,219.54 1180.55,219.54 1182.56,219.53 1184.57,219.53 1186.59,219.53 1188.60,219.53 1190.61,219.53 1192.63,219.52 1194.64,219.52 1196.65,219.52 1198.67,219.51 1200.68,219.51 1202.69,219.51 1204.71,219.50 1206.72,219.50 1208.73,219.50 1210.75,219.49 1212.76,219.49 1214.77,219.48 1216.79,219.48 1218.80,219.48 1220.81,219.47 1222.83,219.47 1224.84,219.46 1226.85,219.46 1228.87,219.45 1230.88,219.45 1232.89,219.44 1234.91,219.44 1236.92,219.43 1238.93,219.43 1240.95,219.42 1242.96,219.41 1244.97,219.41 1246.99,219.40 1249.00,219.40 1251.01,219.39 1253.03,219.39 1255.04,219.38 1257.05,219.38 1259.07,219.37 1261.08,219.36 1263.09,219.36 1265.11,219.35 1267.12,219.35 1269.13,219.34 1271.15,219.33 1273.16,219.33 1275.17,219.32 1277.19,219.32 1279.20,219.31 1281.21,219.31 1283.23,219.30 1285.24,219.29 1287.25,219.29 1289.27,219.28 1291.28,219.28 1293.29,219.27 1295.31,219.26 1297.32,219.26 1299.33,219.25 1301.35,219.25 1303.36,219.24 1305.37,219.24 1307.39,219.23 1309.40,219.23 1311.41,219.22 1313.43,219.21 1315.44,219.21 1317.45,219.20 1319.47,219.20 1321.48,219.19 1323.49,219.19 1325.51,219.18 1327.52,219.18 1329.53,219.17 1331.55,219.17 1333.56,219.16 1335.57,219.16 1337.59,219.15 1339.60,219.15 1341.61,219.14 1343.63,219.14 1345.64,219.13 1347.65,219.13 1349.67,219.12 1351.68,219.12 1353.69,219.12 1355.71,219.11 1357.72,219.11 1359.73,219.10 1361.75,219.10 1363.76,219.09 1365.77,219.09 1367.79,219.09 1369.80,219.08 1371.81,219.08 1373.83,219.07 1375.84,219.07 1377.85,219.07 1379.87,219.06 1381.88,219.06 1383.89,219.05 1385.91,219.05 1387.92,219.05 1389.93,219.04 1391.95,219.04 1393.96,219.04 1395.97,219.03 1397.99,219.03 1400.00,219.03" fill="none" stroke="#d95f02" stroke-width="2.2"/>
<polyline points="798.01,222.55 800.03,222.55 802.04,222.83 804.05,222.83 806.07,223.08 808.08,223.08 810.09,223.20 812.11,223.20 814.12,223.24 816.13,223.24 818.15,223.22 820.16,223.22 822.17,223.15 824.19,223.15 826.20,223.05 828.21,223.05 830.23,222.92 832.24,222.92 834.25,222.76 836.27,222.76 838.28,222.59 840.29,222.59 842.31,222.41 844.32,222.41 846.33,222.23 848.35,222.23 850.36,222.04 852.37,222.04 854.39,221.85 856.40,221.85 858.41,221.66 860.43,221.66 862.44,221.47 864.45,221.47 866.47,221.28 868.48,221.28 870.49,221.10 872.51,221.10 874.52,220.93 876.53,220.93 878.55,220.76 880.56,220.76 882.57,220.60 884.59,220.60 886.60,220.45 888.61,220.45 890.63,220.30 892.64,220.30 894.65,220.16 896.67,220.16 898.68,220.03 900.69,220.03 902.71,219.91 904.72,219.91 906.73,219.79 908.75,219.79 910.76,219.68 912.77,219.68 914.79,219.58 916.80,219.58 918.81,219.48 920.83,219.48 922.84,219.39 924.85,219.39 926.87,219.31 928.88,219.31 930.89,219.23 932.91,219.23 934.92,219.16 936.93,219.16 938.95,219.09 940.96,219.09 942.97,219.03 944.99,219.03 947.00,218.98 949.01,218.98 951.03,218.93 953.04,218.93 955.05,218.88 957.07,218.88 959.08,218.83 961.09,218.83 963.11,218.79 965.12,218.79 967.13,218.76 969.15,218.76 971.16,218.73 973.17,218.73 975.19,218.70 977.20,218.70 979.21,218.67 981.23,218.67 983.24,218.65 985.25,218.65 987.27,218.62 989.28,218.62 991.29,218.61 993.31,218.61 995.32,218.59 997.33,218.59 999.35,218.57 1001.36,218.57 1003.37,218.56 1005.39,218.56 1007.40,218.55 1009.41,218.55 1011.43,218.54 1013.44,218.54 1015.45,218.53 1017.47,218.53 1019.48,218.52 1021.49,218.52 1023.51,218.52 1025.52,218.52 1027.53,218.51 1029.55,218.51 1031.56,218.51 1033.57,218.51 1035.59,218.50 1037.60,218.50 1039.61,218.50 1041.63,218.50 1043.64,218.50 1045.65,218.50 1047.67,218.50 1049.68,218.50 1051.69,218.50 1053.71,218.50 1055.72,218.50 1057.73,218.50 1059.75,218.50 1061.76,218.50 1063.77,218.50 1065.79,218.50 1067.80,218.50 1069.81,218.50 1071.83,218.50 1073.84,218.50 1075.85,218.50 1077.87,218.50 1079.88,218.50 1081.89,218.50 1083.91,218.50 1085.92,218.50 1087.93,218.50 1089.95,218.50 1091.96,218.50 1093.97,218.50 1095.99,218.51 1098.00,218.51 1100.01,218.51 1102.03,218.51 1104.04,218.51 1106.05,218.51 1108.07,218.51 1110.08,218.51 1112.09,218.52 1114.11,218.52 1116.12,218.52 1118.13,218.52 1120.15,218.52 1122.16,218.52 1124.17,218.52 1126.19,218.52 1128.20,218.52 1130.21,218.52 1132.23,218.53 1134.24,218.53 1136.25,218.53 1138.27,218.53 1140.28,218.53 1142.29,218.53 1144.31,218.53 1146.32,218.53 1148.33,218.53 1150.35,218.53 1152.36,218.53 1154.37,218.53 1156.39,218.54 1158.40,218.54 1160.41,218.54 1162.43,218.54 1164.44,218.54 1166.45,218.54 1168.47,218.54 1170.48,218.54 1172.49,218.54 1174.51,218.54 1176.52,218.54 1178.53,218.54 1180.55,218.55 1182.56,218.55 1184.57,218.55 1186.59,218.55 1188.60,218.55 1190.61,218.55 1192.63,218.55 1194.64,218.55 1196.65,218.55 1198.67,218.55 1200.68,218.55 1202.69,218.55 1204.71,218.55 1206.72,218.55 1208.73,218.55 1210.75,218.55 1212.76,218.55 1214.77,218.55 1216.79,218.55 1218.80,218.55 1220.81,218.56 1222.83,218.56 1224.84,218.56 1226.85,218.56 1228.87,218.56 1230.88,218.56 1232.89,218.56 1234.91,218.56 1236.92,218.56 1238.93,218.56 1240.95,218.56 1242.96,218.56 1244.97,218.56 1246.99,218.56 1249.00,218.56 1251.01,218.56 1253.03,218.56 1255.04,218.56 1257.05,218.56 1259.07,218.56 1261.08,218.56 1263.09,218.56 1265.11,218.56 1267.12,218.56 1269.13,218.56 1271.15,218.56 1273.16,218.56 1275.17,218.56 1277.19,218.56 1279.20,218.56 1281.21,218.56 1283.23,218.56 1285.24,218.56 1287.25,218.56 1289.27,218.56 1291.28,218.56 1293.29,218.56 1295.31,218.56 1297.32,218.56 1299.33,218.56 1301.35,218.56 1303.36,218.56 1305.37,218.56 1307.39,218.56 1309.40,218.56 1311.41,218.56 1313.43,218.56 1315.44,218.56 1317.45,218.56 1319.47,218.56 1321.48,218.56 1323.49,218.56 1325.51,218.56 1327.52,218.56 1329.53,218.56 1331.55,218.56 1333.56,218.56 1335.57,218.56 1337.59,218.56 1339.60,218.56 1341.61,218.56 1343.63,218.56 1345.64,218.56 1347.65,218.56 1349.67,218.56 1351.68,218.56 1353.69,218.56 1355.71,218.56 1357.72,218.56 1359.73,218.56 1361.75,218.56 1363.76,218.56 1365.77,218.56 1367.79,218.56 1369.80,218.56 1371.81,218.56 1373.83,218.56 1375.84,218.56 1377.85,218.56 1379.87,218.56 1381.88,218.56 1383.89,218.56 1385.91,218.56 1387.92,218.56 1389.93,218.56 1391.95,218.56 1393.96,218.56 1395.97,218.56 1397.99,218.56 1400.00,218.56" fill="none" stroke="#1b75bb" stroke-width="2.2"/>
</g>
<text class="panel-title" x="796.0" y="345">Applied action: fuel_valve [fraction]</text>
<defs><clipPath id="panel-clip-3"><rect x="796.0" y="361.0" width="604.0" height="144.0"/></clipPath></defs>
<line class="grid" x1="796.00" y1="361.00" x2="796.00" y2="505.00"/>
<text class="tick" text-anchor="middle" x="796.00" y="523.00">0</text>
<line class="grid" x1="947.00" y1="361.00" x2="947.00" y2="505.00"/>
<text class="tick" text-anchor="middle" x="947.00" y="523.00">75</text>
<line class="grid" x1="1098.00" y1="361.00" x2="1098.00" y2="505.00"/>
<text class="tick" text-anchor="middle" x="1098.00" y="523.00">150</text>
<line class="grid" x1="1249.00" y1="361.00" x2="1249.00" y2="505.00"/>
<text class="tick" text-anchor="middle" x="1249.00" y="523.00">225</text>
<line class="grid" x1="1400.00" y1="361.00" x2="1400.00" y2="505.00"/>
<text class="tick" text-anchor="middle" x="1400.00" y="523.00">300</text>
<line class="grid" x1="796.0" y1="505.00" x2="1400.0" y2="505.00"/>
<text class="tick" text-anchor="end" x="788.0" y="509.00">0</text>
<line class="grid" x1="796.0" y1="457.00" x2="1400.0" y2="457.00"/>
<text class="tick" text-anchor="end" x="788.0" y="461.00">0.333</text>
<line class="grid" x1="796.0" y1="409.00" x2="1400.0" y2="409.00"/>
<text class="tick" text-anchor="end" x="788.0" y="413.00">0.667</text>
<line class="grid" x1="796.0" y1="361.00" x2="1400.0" y2="361.00"/>
<text class="tick" text-anchor="end" x="788.0" y="365.00">1</text>
<line class="axis" x1="796.0" y1="505.0" x2="1400.0" y2="505.0"/>
<line class="axis" x1="796.0" y1="361.0" x2="796.0" y2="505.0"/>
<text class="tick" text-anchor="middle" x="1098.00" y="539.0">time [s]</text>
<g clip-path="url(#panel-clip-3)">
<polyline points="798.01,419.75 800.03,419.99 802.04,420.14 804.05,420.22 806.07,420.24 808.08,420.20 810.09,420.12 812.11,419.99 814.12,419.83 816.13,419.64 818.15,419.42 820.16,419.17 822.17,418.90 824.19,418.62 826.20,418.31 828.21,417.99 830.23,417.66 832.24,417.32 834.25,416.96 836.27,416.60 838.28,416.22 840.29,415.84 842.31,415.45 844.32,415.06 846.33,414.66 848.35,414.25 850.36,413.84 852.37,413.43 854.39,413.02 856.40,412.61 858.41,412.19 860.43,411.77 862.44,411.36 864.45,410.94 866.47,410.53 868.48,410.12 870.49,409.71 872.51,409.30 874.52,408.90 876.53,408.49 878.55,408.10 880.56,407.70 882.57,407.31 884.59,406.93 886.60,406.55 888.61,406.18 890.63,405.81 892.64,405.45 894.65,405.09 896.67,404.74 898.68,404.40 900.69,404.06 902.71,403.73 904.72,403.41 906.73,403.09 908.75,402.78 910.76,402.48 912.77,402.19 914.79,401.90 916.80,401.62 918.81,401.35 920.83,401.09 922.84,400.83 924.85,400.58 926.87,400.34 928.88,400.10 930.89,399.88 932.91,399.66 934.92,399.44 936.93,399.24 938.95,399.04 940.96,398.85 942.97,398.67 944.99,398.49 947.00,398.33 949.01,398.16 951.03,398.01 953.04,397.86 955.05,397.72 957.07,397.58 959.08,397.45 961.09,397.33 963.11,397.22 965.12,397.11 967.13,397.00 969.15,396.90 971.16,396.81 973.17,396.72 975.19,396.64 977.20,396.56 979.21,396.49 981.23,396.42 983.24,396.36 985.25,396.30 987.27,396.25 989.28,396.20 991.29,396.16 993.31,396.12 995.32,396.08 997.33,396.05 999.35,396.02 1001.36,395.99 1003.37,395.97 1005.39,395.95 1007.40,395.94 1009.41,395.92 1011.43,395.91 1013.44,395.91 1015.45,395.90 1017.47,395.90 1019.48,395.90 1021.49,395.90 1023.51,395.91 1025.52,395.92 1027.53,395.92 1029.55,395.94 1031.56,395.95 1033.57,395.96 1035.59,395.98 1037.60,395.99 1039.61,396.01 1041.63,396.03 1043.64,396.05 1045.65,396.07 1047.67,396.09 1049.68,396.12 1051.69,396.14 1053.71,396.17 1055.72,396.19 1057.73,396.22 1059.75,396.24 1061.76,396.27 1063.77,396.30 1065.79,396.32 1067.80,396.35 1069.81,396.38 1071.83,396.40 1073.84,396.43 1075.85,396.46 1077.87,396.49 1079.88,396.51 1081.89,396.54 1083.91,396.57 1085.92,396.59 1087.93,396.62 1089.95,396.65 1091.96,396.67 1093.97,396.70 1095.99,396.72 1098.00,396.75 1100.01,396.77 1102.03,396.80 1104.04,396.82 1106.05,396.84 1108.07,396.86 1110.08,396.88 1112.09,396.91 1114.11,396.93 1116.12,396.95 1118.13,396.96 1120.15,396.98 1122.16,397.00 1124.17,397.02 1126.19,397.04 1128.20,397.05 1130.21,397.07 1132.23,397.08 1134.24,397.10 1136.25,397.11 1138.27,397.12 1140.28,397.13 1142.29,397.15 1144.31,397.16 1146.32,397.17 1148.33,397.18 1150.35,397.19 1152.36,397.19 1154.37,397.20 1156.39,397.21 1158.40,397.22 1160.41,397.22 1162.43,397.23 1164.44,397.23 1166.45,397.24 1168.47,397.24 1170.48,397.25 1172.49,397.25 1174.51,397.25 1176.52,397.25 1178.53,397.25 1180.55,397.25 1182.56,397.25 1184.57,397.25 1186.59,397.25 1188.60,397.25 1190.61,397.25 1192.63,397.25 1194.64,397.25 1196.65,397.25 1198.67,397.24 1200.68,397.24 1202.69,397.24 1204.71,397.23 1206.72,397.23 1208.73,397.23 1210.75,397.22 1212.76,397.22 1214.77,397.21 1216.79,397.21 1218.80,397.20 1220.81,397.19 1222.83,397.19 1224.84,397.18 1226.85,397.17 1228.87,397.17 1230.88,397.16 1232.89,397.15 1234.91,397.15 1236.92,397.14 1238.93,397.13 1240.95,397.13 1242.96,397.12 1244.97,397.11 1246.99,397.10 1249.00,397.09 1251.01,397.09 1253.03,397.08 1255.04,397.07 1257.05,397.06 1259.07,397.05 1261.08,397.05 1263.09,397.04 1265.11,397.03 1267.12,397.02 1269.13,397.01 1271.15,397.00 1273.16,397.00 1275.17,396.99 1277.19,396.98 1279.20,396.97 1281.21,396.96 1283.23,396.96 1285.24,396.95 1287.25,396.94 1289.27,396.93 1291.28,396.92 1293.29,396.91 1295.31,396.91 1297.32,396.90 1299.33,396.89 1301.35,396.88 1303.36,396.88 1305.37,396.87 1307.39,396.86 1309.40,396.85 1311.41,396.85 1313.43,396.84 1315.44,396.83 1317.45,396.82 1319.47,396.82 1321.48,396.81 1323.49,396.80 1325.51,396.80 1327.52,396.79 1329.53,396.78 1331.55,396.78 1333.56,396.77 1335.57,396.76 1337.59,396.76 1339.60,396.75 1341.61,396.75 1343.63,396.74 1345.64,396.73 1347.65,396.73 1349.67,396.72 1351.68,396.72 1353.69,396.71 1355.71,396.71 1357.72,396.70 1359.73,396.69 1361.75,396.69 1363.76,396.68 1365.77,396.68 1367.79,396.67 1369.80,396.67 1371.81,396.66 1373.83,396.66 1375.84,396.65 1377.85,396.65 1379.87,396.65 1381.88,396.64 1383.89,396.64 1385.91,396.63 1387.92,396.63 1389.93,396.62 1391.95,396.62 1393.96,396.62 1395.97,396.61 1397.99,396.61 1400.00,396.60" fill="none" stroke="#d95f02" stroke-width="2.2"/>
<polyline points="798.01,412.56 800.03,412.56 802.04,411.45 804.05,411.45 806.07,410.91 808.08,410.91 810.09,410.29 812.11,410.29 814.12,409.66 816.13,409.66 818.15,409.01 820.16,409.01 822.17,408.35 824.19,408.35 826.20,407.70 828.21,407.70 830.23,407.06 832.24,407.06 834.25,406.43 836.27,406.43 838.28,405.81 840.29,405.81 842.31,405.21 844.32,405.21 846.33,404.63 848.35,404.63 850.36,404.08 852.37,404.08 854.39,403.54 856.40,403.54 858.41,403.02 860.43,403.02 862.44,402.53 864.45,402.53 866.47,402.07 868.48,402.07 870.49,401.62 872.51,401.62 874.52,401.20 876.53,401.20 878.55,400.81 880.56,400.81 882.57,400.43 884.59,400.43 886.60,400.08 888.61,400.08 890.63,399.75 892.64,399.75 894.65,399.43 896.67,399.43 898.68,399.14 900.69,399.14 902.71,398.87 904.72,398.87 906.73,398.62 908.75,398.62 910.76,398.38 912.77,398.38 914.79,398.16 916.80,398.16 918.81,397.95 920.83,397.95 922.84,397.77 924.85,397.77 926.87,397.59 928.88,397.59 930.89,397.43 932.91,397.43 934.92,397.28 936.93,397.28 938.95,397.14 940.96,397.14 942.97,397.02 944.99,397.02 947.00,396.90 949.01,396.90 951.03,396.80 953.04,396.80 955.05,396.70 957.07,396.70 959.08,396.61 961.09,396.61 963.11,396.54 965.12,396.54 967.13,396.46 969.15,396.46 971.16,396.40 973.17,396.40 975.19,396.34 977.20,396.34 979.21,396.29 981.23,396.29 983.24,396.24 985.25,396.24 987.27,396.20 989.28,396.20 991.29,396.16 993.31,396.16 995.32,396.13 997.33,396.13 999.35,396.10 1001.36,396.10 1003.37,396.08 1005.39,396.08 1007.40,396.06 1009.41,396.06 1011.43,396.04 1013.44,396.04 1015.45,396.02 1017.47,396.02 1019.48,396.01 1021.49,396.01 1023.51,396.00 1025.52,396.00 1027.53,395.99 1029.55,395.99 1031.56,395.98 1033.57,395.98 1035.59,395.98 1037.60,395.98 1039.61,395.97 1041.63,395.97 1043.64,395.97 1045.65,395.97 1047.67,395.97 1049.68,395.97 1051.69,395.97 1053.71,395.97 1055.72,395.97 1057.73,395.97 1059.75,395.97 1061.76,395.97 1063.77,395.97 1065.79,395.97 1067.80,395.97 1069.81,395.97 1071.83,395.97 1073.84,395.97 1075.85,395.98 1077.87,395.98 1079.88,395.98 1081.89,395.98 1083.91,395.99 1085.92,395.99 1087.93,395.99 1089.95,395.99 1091.96,395.99 1093.97,395.99 1095.99,396.00 1098.00,396.00 1100.01,396.00 1102.03,396.00 1104.04,396.01 1106.05,396.01 1108.07,396.01 1110.08,396.01 1112.09,396.02 1114.11,396.02 1116.12,396.02 1118.13,396.02 1120.15,396.03 1122.16,396.03 1124.17,396.03 1126.19,396.03 1128.20,396.04 1130.21,396.04 1132.23,396.04 1134.24,396.04 1136.25,396.04 1138.27,396.04 1140.28,396.05 1142.29,396.05 1144.31,396.05 1146.32,396.05 1148.33,396.06 1150.35,396.06 1152.36,396.06 1154.37,396.06 1156.39,396.06 1158.40,396.06 1160.41,396.07 1162.43,396.07 1164.44,396.07 1166.45,396.07 1168.47,396.07 1170.48,396.07 1172.49,396.08 1174.51,396.08 1176.52,396.08 1178.53,396.08 1180.55,396.08 1182.56,396.08 1184.57,396.08 1186.59,396.08 1188.60,396.09 1190.61,396.09 1192.63,396.09 1194.64,396.09 1196.65,396.09 1198.67,396.09 1200.68,396.09 1202.69,396.09 1204.71,396.09 1206.72,396.09 1208.73,396.10 1210.75,396.10 1212.76,396.10 1214.77,396.10 1216.79,396.10 1218.80,396.10 1220.81,396.10 1222.83,396.10 1224.84,396.10 1226.85,396.10 1228.87,396.10 1230.88,396.10 1232.89,396.11 1234.91,396.11 1236.92,396.11 1238.93,396.11 1240.95,396.11 1242.96,396.11 1244.97,396.11 1246.99,396.11 1249.00,396.11 1251.01,396.11 1253.03,396.11 1255.04,396.11 1257.05,396.11 1259.07,396.11 1261.08,396.11 1263.09,396.11 1265.11,396.11 1267.12,396.11 1269.13,396.11 1271.15,396.11 1273.16,396.11 1275.17,396.11 1277.19,396.11 1279.20,396.11 1281.21,396.11 1283.23,396.11 1285.24,396.11 1287.25,396.11 1289.27,396.12 1291.28,396.12 1293.29,396.12 1295.31,396.12 1297.32,396.12 1299.33,396.12 1301.35,396.12 1303.36,396.12 1305.37,396.12 1307.39,396.12 1309.40,396.12 1311.41,396.12 1313.43,396.12 1315.44,396.12 1317.45,396.12 1319.47,396.12 1321.48,396.12 1323.49,396.12 1325.51,396.12 1327.52,396.12 1329.53,396.12 1331.55,396.12 1333.56,396.12 1335.57,396.12 1337.59,396.12 1339.60,396.12 1341.61,396.12 1343.63,396.12 1345.64,396.12 1347.65,396.12 1349.67,396.12 1351.68,396.12 1353.69,396.12 1355.71,396.12 1357.72,396.12 1359.73,396.12 1361.75,396.12 1363.76,396.12 1365.77,396.12 1367.79,396.12 1369.80,396.12 1371.81,396.12 1373.83,396.12 1375.84,396.12 1377.85,396.12 1379.87,396.12 1381.88,396.12 1383.89,396.12 1385.91,396.12 1387.92,396.12 1389.93,396.12 1391.95,396.12 1393.96,396.12 1395.97,396.12 1397.99,396.12 1400.00,396.12" fill="none" stroke="#1b75bb" stroke-width="2.2"/>
</g>
<text class="panel-title" x="796.0" y="570">Closest state-boundary distance [fraction]</text>
<defs><clipPath id="panel-clip-5"><rect x="796.0" y="586.0" width="604.0" height="144.0"/></clipPath></defs>
<line class="grid" x1="796.00" y1="586.00" x2="796.00" y2="730.00"/>
<text class="tick" text-anchor="middle" x="796.00" y="748.00">0</text>
<line class="grid" x1="947.00" y1="586.00" x2="947.00" y2="730.00"/>
<text class="tick" text-anchor="middle" x="947.00" y="748.00">75</text>
<line class="grid" x1="1098.00" y1="586.00" x2="1098.00" y2="730.00"/>
<text class="tick" text-anchor="middle" x="1098.00" y="748.00">150</text>
<line class="grid" x1="1249.00" y1="586.00" x2="1249.00" y2="730.00"/>
<text class="tick" text-anchor="middle" x="1249.00" y="748.00">225</text>
<line class="grid" x1="1400.00" y1="586.00" x2="1400.00" y2="730.00"/>
<text class="tick" text-anchor="middle" x="1400.00" y="748.00">300</text>
<line class="grid" x1="796.0" y1="730.00" x2="1400.0" y2="730.00"/>
<text class="tick" text-anchor="end" x="788.0" y="734.00">0</text>
<line class="grid" x1="796.0" y1="682.00" x2="1400.0" y2="682.00"/>
<text class="tick" text-anchor="end" x="788.0" y="686.00">0.0865</text>
<line class="grid" x1="796.0" y1="634.00" x2="1400.0" y2="634.00"/>
<text class="tick" text-anchor="end" x="788.0" y="638.00">0.173</text>
<line class="grid" x1="796.0" y1="586.00" x2="1400.0" y2="586.00"/>
<text class="tick" text-anchor="end" x="788.0" y="590.00">0.259</text>
<line class="axis" x1="796.0" y1="730.0" x2="1400.0" y2="730.0"/>
<line class="axis" x1="796.0" y1="586.0" x2="796.0" y2="730.0"/>
<text class="tick" text-anchor="middle" x="1098.00" y="764.0">time [s]</text>
<g clip-path="url(#panel-clip-5)">
<line x1="796.0" y1="730.00" x2="1400.0" y2="730.00" stroke="#c62828" stroke-width="1.5" stroke-dasharray="6 5"/>
<polyline points="798.01,642.04 800.03,632.92 802.04,625.03 804.05,618.30 806.07,612.63 808.08,607.94 810.09,604.12 812.11,601.07 814.12,598.66 816.13,596.81 818.15,595.42 820.16,594.40 822.17,593.70 824.19,593.23 826.20,592.97 828.21,592.86 830.23,592.87 832.24,592.98 834.25,593.16 836.27,593.41 838.28,593.70 840.29,594.03 842.31,594.38 844.32,594.76 846.33,595.15 848.35,595.56 850.36,595.98 852.37,596.40 854.39,596.83 856.40,597.26 858.41,597.69 860.43,598.12 862.44,598.55 864.45,598.98 866.47,599.40 868.48,599.83 870.49,600.24 872.51,600.66 874.52,601.06 876.53,601.47 878.55,601.86 880.56,602.25 882.57,602.64 884.59,603.01 886.60,603.38 888.61,603.74 890.63,604.10 892.64,604.44 894.65,604.78 896.67,605.11 898.68,605.43 900.69,605.74 902.71,606.05 904.72,606.34 906.73,606.63 908.75,606.90 910.76,607.17 912.77,607.43 914.79,607.68 916.80,607.93 918.81,608.16 920.83,608.38 922.84,608.60 924.85,608.81 926.87,609.00 928.88,609.19 930.89,609.38 932.91,609.55 934.92,609.71 936.93,609.87 938.95,610.02 940.96,610.16 942.97,610.29 944.99,610.41 947.00,610.53 949.01,610.64 951.03,610.74 953.04,610.83 955.05,610.92 957.07,611.00 959.08,611.07 961.09,611.14 963.11,611.20 965.12,611.26 967.13,611.30 969.15,611.35 971.16,611.38 973.17,611.41 975.19,611.44 977.20,611.46 979.21,611.47 981.23,611.48 983.24,611.48 985.25,611.48 987.27,611.48 989.28,611.47 991.29,611.46 993.31,611.44 995.32,611.42 997.33,611.39 999.35,611.36 1001.36,611.33 1003.37,611.30 1005.39,611.26 1007.40,611.22 1009.41,611.17 1011.43,611.13 1013.44,611.08 1015.45,611.02 1017.47,610.97 1019.48,610.91 1021.49,610.86 1023.51,610.80 1025.52,610.73 1027.53,610.67 1029.55,610.61 1031.56,610.54 1033.57,610.47 1035.59,610.41 1037.60,610.34 1039.61,610.27 1041.63,610.19 1043.64,610.12 1045.65,610.05 1047.67,609.98 1049.68,609.90 1051.69,609.83 1053.71,609.76 1055.72,609.68 1057.73,609.61 1059.75,609.53 1061.76,609.46 1063.77,609.38 1065.79,609.31 1067.80,609.24 1069.81,609.16 1071.83,609.09 1073.84,609.02 1075.85,608.94 1077.87,608.87 1079.88,608.80 1081.89,608.73 1083.91,608.66 1085.92,608.59 1087.93,608.52 1089.95,608.45 1091.96,608.39 1093.97,608.32 1095.99,608.25 1098.00,608.19 1100.01,608.12 1102.03,608.06 1104.04,608.00 1106.05,607.94 1108.07,607.88 1110.08,607.82 1112.09,607.76 1114.11,607.70 1116.12,607.65 1118.13,607.59 1120.15,607.54 1122.16,607.48 1124.17,607.43 1126.19,607.38 1128.20,607.33 1130.21,607.28 1132.23,607.23 1134.24,607.18 1136.25,607.13 1138.27,607.09 1140.28,607.04 1142.29,607.00 1144.31,606.96 1146.32,606.92 1148.33,606.88 1150.35,606.84 1152.36,606.80 1154.37,606.76 1156.39,606.72 1158.40,606.69 1160.41,606.65 1162.43,606.62 1164.44,606.58 1166.45,606.55 1168.47,606.52 1170.48,606.49 1172.49,606.46 1174.51,606.43 1176.52,606.40 1178.53,606.37 1180.55,606.34 1182.56,606.31 1184.57,606.29 1186.59,606.26 1188.60,606.24 1190.61,606.21 1192.63,606.19 1194.64,606.17 1196.65,606.14 1198.67,606.12 1200.68,606.10 1202.69,606.08 1204.71,606.06 1206.72,606.04 1208.73,606.02 1210.75,606.00 1212.76,605.98 1214.77,605.97 1216.79,605.95 1218.80,605.93 1220.81,605.92 1222.83,605.90 1224.84,605.88 1226.85,605.87 1228.87,605.85 1230.88,605.84 1232.89,605.82 1234.91,605.81 1236.92,605.80 1238.93,605.78 1240.95,605.77 1242.96,605.76 1244.97,605.74 1246.99,605.73 1249.00,605.72 1251.01,605.71 1253.03,605.69 1255.04,605.68 1257.05,605.67 1259.07,605.66 1261.08,605.65 1263.09,605.64 1265.11,605.63 1267.12,605.61 1269.13,605.60 1271.15,605.59 1273.16,605.58 1275.17,605.57 1277.19,605.56 1279.20,605.55 1281.21,605.54 1283.23,605.53 1285.24,605.52 1287.25,605.51 1289.27,605.50 1291.28,605.49 1293.29,605.48 1295.31,605.47 1297.32,605.46 1299.33,605.45 1301.35,605.44 1303.36,605.44 1305.37,605.43 1307.39,605.42 1309.40,605.41 1311.41,605.40 1313.43,605.39 1315.44,605.38 1317.45,605.37 1319.47,605.36 1321.48,605.35 1323.49,605.34 1325.51,605.33 1327.52,605.32 1329.53,605.31 1331.55,605.31 1333.56,605.30 1335.57,605.29 1337.59,605.28 1339.60,605.27 1341.61,605.26 1343.63,605.25 1345.64,605.24 1347.65,605.23 1349.67,605.22 1351.68,605.21 1353.69,605.20 1355.71,605.19 1357.72,605.19 1359.73,605.18 1361.75,605.17 1363.76,605.16 1365.77,605.15 1367.79,605.14 1369.80,605.13 1371.81,605.12 1373.83,605.11 1375.84,605.10 1377.85,605.09 1379.87,605.08 1381.88,605.08 1383.89,605.07 1385.91,605.06 1387.92,605.05 1389.93,605.04 1391.95,605.03 1393.96,605.02 1395.97,605.01 1397.99,605.00 1400.00,604.99" fill="none" stroke="#d95f02" stroke-width="2.2"/>
<circle cx="798.01" cy="642.04" r="4.5" fill="#d95f02" stroke="#ffffff" stroke-width="1.5"><title>pid: flue oxygen lower, 0.158 @ 1 s</title></circle>
<polyline points="798.01,648.22 800.03,644.19 802.04,640.66 804.05,637.32 806.07,634.32 808.08,631.47 810.09,628.92 812.11,626.49 814.12,624.32 816.13,622.26 818.15,620.42 820.16,618.68 822.17,617.12 824.19,615.64 826.20,614.33 828.21,613.08 830.23,611.98 832.24,610.93 834.25,610.00 836.27,609.12 838.28,608.35 840.29,607.61 842.31,606.97 844.32,606.36 846.33,605.82 848.35,605.32 850.36,604.88 852.37,604.47 854.39,604.11 856.40,603.77 858.41,603.48 860.43,603.21 862.44,602.98 864.45,602.77 866.47,602.59 868.48,602.42 870.49,602.28 872.51,602.15 874.52,602.05 876.53,601.95 878.55,601.88 880.56,601.81 882.57,601.76 884.59,601.71 886.60,601.68 888.61,601.66 890.63,601.65 892.64,601.64 894.65,601.64 896.67,601.64 898.68,601.65 900.69,601.67 902.71,601.69 904.72,601.71 906.73,601.74 908.75,601.77 910.76,601.80 912.77,601.83 914.79,601.87 916.80,601.91 918.81,601.95 920.83,601.99 922.84,602.03 924.85,602.07 926.87,602.12 928.88,602.16 930.89,602.21 932.91,602.25 934.92,602.29 936.93,602.33 938.95,602.38 940.96,602.42 942.97,602.46 944.99,602.50 947.00,602.55 949.01,602.59 951.03,602.63 953.04,602.66 955.05,602.70 957.07,602.74 959.08,602.78 961.09,602.81 963.11,602.85 965.12,602.88 967.13,602.91 969.15,602.94 971.16,602.97 973.17,603.00 975.19,603.03 977.20,603.06 979.21,603.09 981.23,603.11 983.24,603.14 985.25,603.16 987.27,603.19 989.28,603.21 991.29,603.23 993.31,603.25 995.32,603.27 997.33,603.29 999.35,603.31 1001.36,603.33 1003.37,603.35 1005.39,603.36 1007.40,603.38 1009.41,603.40 1011.43,603.41 1013.44,603.42 1015.45,603.44 1017.47,603.45 1019.48,603.46 1021.49,603.47 1023.51,603.48 1025.52,603.49 1027.53,603.50 1029.55,603.51 1031.56,603.52 1033.57,603.53 1035.59,603.54 1037.60,603.54 1039.61,603.55 1041.63,603.56 1043.64,603.56 1045.65,603.57 1047.67,603.57 1049.68,603.58 1051.69,603.58 1053.71,603.59 1055.72,603.59 1057.73,603.60 1059.75,603.60 1061.76,603.60 1063.77,603.61 1065.79,603.61 1067.80,603.61 1069.81,603.61 1071.83,603.62 1073.84,603.62 1075.85,603.62 1077.87,603.62 1079.88,603.62 1081.89,603.62 1083.91,603.62 1085.92,603.62 1087.93,603.63 1089.95,603.63 1091.96,603.63 1093.97,603.63 1095.99,603.63 1098.00,603.63 1100.01,603.63 1102.03,603.63 1104.04,603.63 1106.05,603.63 1108.07,603.63 1110.08,603.63 1112.09,603.62 1114.11,603.62 1116.12,603.62 1118.13,603.62 1120.15,603.62 1122.16,603.62 1124.17,603.62 1126.19,603.62 1128.20,603.62 1130.21,603.62 1132.23,603.62 1134.24,603.62 1136.25,603.62 1138.27,603.61 1140.28,603.61 1142.29,603.61 1144.31,603.61 1146.32,603.61 1148.33,603.61 1150.35,603.61 1152.36,603.61 1154.37,603.61 1156.39,603.60 1158.40,603.60 1160.41,603.60 1162.43,603.60 1164.44,603.60 1166.45,603.60 1168.47,603.60 1170.48,603.60 1172.49,603.60 1174.51,603.60 1176.52,603.59 1178.53,603.59 1180.55,603.59 1182.56,603.59 1184.57,603.59 1186.59,603.59 1188.60,603.59 1190.61,603.59 1192.63,603.59 1194.64,603.59 1196.65,603.59 1198.67,603.58 1200.68,603.58 1202.69,603.58 1204.71,603.58 1206.72,603.58 1208.73,603.58 1210.75,603.58 1212.76,603.58 1214.77,603.58 1216.79,603.58 1218.80,603.58 1220.81,603.58 1222.83,603.58 1224.84,603.58 1226.85,603.58 1228.87,603.57 1230.88,603.57 1232.89,603.57 1234.91,603.57 1236.92,603.57 1238.93,603.57 1240.95,603.57 1242.96,603.57 1244.97,603.57 1246.99,603.57 1249.00,603.57 1251.01,603.57 1253.03,603.57 1255.04,603.57 1257.05,603.57 1259.07,603.57 1261.08,603.57 1263.09,603.57 1265.11,603.57 1267.12,603.57 1269.13,603.57 1271.15,603.57 1273.16,603.57 1275.17,603.56 1277.19,603.56 1279.20,603.56 1281.21,603.56 1283.23,603.56 1285.24,603.56 1287.25,603.56 1289.27,603.56 1291.28,603.56 1293.29,603.56 1295.31,603.56 1297.32,603.56 1299.33,603.56 1301.35,603.56 1303.36,603.56 1305.37,603.56 1307.39,603.56 1309.40,603.56 1311.41,603.56 1313.43,603.56 1315.44,603.56 1317.45,603.56 1319.47,603.56 1321.48,603.56 1323.49,603.56 1325.51,603.56 1327.52,603.56 1329.53,603.56 1331.55,603.56 1333.56,603.56 1335.57,603.56 1337.59,603.56 1339.60,603.56 1341.61,603.56 1343.63,603.56 1345.64,603.56 1347.65,603.56 1349.67,603.56 1351.68,603.56 1353.69,603.56 1355.71,603.56 1357.72,603.56 1359.73,603.56 1361.75,603.56 1363.76,603.56 1365.77,603.56 1367.79,603.56 1369.80,603.56 1371.81,603.56 1373.83,603.56 1375.84,603.56 1377.85,603.56 1379.87,603.56 1381.88,603.56 1383.89,603.56 1385.91,603.56 1387.92,603.56 1389.93,603.56 1391.95,603.56 1393.96,603.56 1395.97,603.56 1397.99,603.56 1400.00,603.56" fill="none" stroke="#1b75bb" stroke-width="2.2"/>
<circle cx="798.01" cy="648.22" r="4.5" fill="#1b75bb" stroke="#ffffff" stroke-width="1.5"><title>mpc: flue oxygen lower, 0.147 @ 1 s</title></circle>
</g>
<rect x="1070.00" y="590.00" width="330.00" height="36.00" rx="4" fill="#ffffff" fill-opacity="0.88" stroke="#dadce0"/>
<text class="tick" text-anchor="end" x="1393.00" y="603.00" style="fill:#d95f02">pid: flue oxygen lower, 0.158 fraction @ 1 s</text>
<text class="tick" text-anchor="end" x="1393.00" y="617.00" style="fill:#1b75bb">mpc: flue oxygen lower, 0.147 fraction @ 1 s</text>
<text class="panel-title" x="76" y="797">Cumulative return by policy</text>
<text class="tick" x="720" y="797">circles: all return seeds; diamond: median</text>
<line class="grid" x1="160.00" y1="817.00" x2="160.00" y2="885.00"/>
<text class="tick" text-anchor="middle" x="160.00" y="903.00">-13</text>
<line class="grid" x1="470.00" y1="817.00" x2="470.00" y2="885.00"/>
<text class="tick" text-anchor="middle" x="470.00" y="903.00">-9.82</text>
<line class="grid" x1="780.00" y1="817.00" x2="780.00" y2="885.00"/>
<text class="tick" text-anchor="middle" x="780.00" y="903.00">-6.67</text>
<line class="grid" x1="1090.00" y1="817.00" x2="1090.00" y2="885.00"/>
<text class="tick" text-anchor="middle" x="1090.00" y="903.00">-3.51</text>
<line class="grid" x1="1400.00" y1="817.00" x2="1400.00" y2="885.00"/>
<text class="tick" text-anchor="middle" x="1400.00" y="903.00">-0.362</text>
<line class="grid" x1="160.0" y1="834.00" x2="1400.0" y2="834.00"/>
<text class="legend" text-anchor="end" x="148.0" y="838.00">pid</text>
<circle cx="647.92" cy="828.00" r="4" fill="#d95f02" fill-opacity="0.48"><title>seed 0: -8.01</title></circle>
<circle cx="1011.20" cy="828.63" r="4" fill="#d95f02" fill-opacity="0.48"><title>seed 1: -4.32</title></circle>
<circle cx="1142.68" cy="829.26" r="4" fill="#d95f02" fill-opacity="0.48"><title>seed 2: -2.98</title></circle>
<circle cx="1187.75" cy="829.89" r="4" fill="#d95f02" fill-opacity="0.48"><title>seed 3: -2.52</title></circle>
<circle cx="1121.17" cy="830.53" r="4" fill="#d95f02" fill-opacity="0.48"><title>seed 4: -3.2</title></circle>
<circle cx="534.63" cy="831.16" r="4" fill="#d95f02" fill-opacity="0.48"><title>seed 5: -9.16</title></circle>
<circle cx="260.10" cy="831.79" r="4" fill="#d95f02" fill-opacity="0.48"><title>seed 6: -12</title></circle>
<circle cx="1343.64" cy="832.42" r="4" fill="#d95f02" fill-opacity="0.48"><title>seed 7: -0.935</title></circle>
<circle cx="1234.27" cy="833.05" r="4" fill="#d95f02" fill-opacity="0.48"><title>seed 8: -2.05</title></circle>
<circle cx="1323.29" cy="833.68" r="4" fill="#d95f02" fill-opacity="0.48"><title>seed 9: -1.14</title></circle>
<circle cx="229.52" cy="834.32" r="4" fill="#d95f02" fill-opacity="0.48"><title>seed 10: -12.3</title></circle>
<circle cx="1011.70" cy="834.95" r="4" fill="#d95f02" fill-opacity="0.48"><title>seed 11: -4.31</title></circle>
<circle cx="1254.24" cy="835.58" r="4" fill="#d95f02" fill-opacity="0.48"><title>seed 12: -1.84</title></circle>
<circle cx="453.09" cy="836.21" r="4" fill="#d95f02" fill-opacity="0.48"><title>seed 13: -9.99</title></circle>
<circle cx="365.58" cy="836.84" r="4" fill="#d95f02" fill-opacity="0.48"><title>seed 14: -10.9</title></circle>
<circle cx="470.63" cy="837.47" r="4" fill="#d95f02" fill-opacity="0.48"><title>seed 15: -9.81</title></circle>
<circle cx="922.39" cy="838.11" r="4" fill="#d95f02" fill-opacity="0.48"><title>seed 16: -5.22</title></circle>
<circle cx="988.37" cy="838.74" r="4" fill="#d95f02" fill-opacity="0.48"><title>seed 17: -4.55</title></circle>
<circle cx="1230.61" cy="839.37" r="4" fill="#d95f02" fill-opacity="0.48"><title>seed 18: -2.08</title></circle>
<circle cx="1038.10" cy="840.00" r="4" fill="#d95f02" fill-opacity="0.48"><title>seed 19: -4.04</title></circle>
<polygon points="1011.45,827.00 1018.45,834.00 1011.45,841.00 1004.45,834.00" fill="#d95f02" stroke="#202124" stroke-width="1"/>
<line class="grid" x1="160.0" y1="868.00" x2="1400.0" y2="868.00"/>
<text class="legend" text-anchor="end" x="148.0" y="872.00">mpc</text>
<circle cx="409.26" cy="862.00" r="4" fill="#1b75bb" fill-opacity="0.48"><title>seed 0: -10.4</title></circle>
<circle cx="1032.61" cy="862.63" r="4" fill="#1b75bb" fill-opacity="0.48"><title>seed 1: -4.1</title></circle>
<circle cx="1223.18" cy="863.26" r="4" fill="#1b75bb" fill-opacity="0.48"><title>seed 2: -2.16</title></circle>
<circle cx="1118.30" cy="863.89" r="4" fill="#1b75bb" fill-opacity="0.48"><title>seed 3: -3.23</title></circle>
<circle cx="1200.88" cy="864.53" r="4" fill="#1b75bb" fill-opacity="0.48"><title>seed 4: -2.39</title></circle>
<circle cx="555.70" cy="865.16" r="4" fill="#1b75bb" fill-opacity="0.48"><title>seed 5: -8.95</title></circle>
<circle cx="382.14" cy="865.79" r="4" fill="#1b75bb" fill-opacity="0.48"><title>seed 6: -10.7</title></circle>
<circle cx="1317.12" cy="866.42" r="4" fill="#1b75bb" fill-opacity="0.48"><title>seed 7: -1.21</title></circle>
<circle cx="1220.23" cy="867.05" r="4" fill="#1b75bb" fill-opacity="0.48"><title>seed 8: -2.19</title></circle>
<circle cx="1326.94" cy="867.68" r="4" fill="#1b75bb" fill-opacity="0.48"><title>seed 9: -1.11</title></circle>
<circle cx="216.36" cy="868.32" r="4" fill="#1b75bb" fill-opacity="0.48"><title>seed 10: -12.4</title></circle>
<circle cx="1047.38" cy="868.95" r="4" fill="#1b75bb" fill-opacity="0.48"><title>seed 11: -3.95</title></circle>
<circle cx="1213.44" cy="869.58" r="4" fill="#1b75bb" fill-opacity="0.48"><title>seed 12: -2.26</title></circle>
<circle cx="702.69" cy="870.21" r="4" fill="#1b75bb" fill-opacity="0.48"><title>seed 13: -7.45</title></circle>
<circle cx="536.21" cy="870.84" r="4" fill="#1b75bb" fill-opacity="0.48"><title>seed 14: -9.14</title></circle>
<circle cx="649.34" cy="871.47" r="4" fill="#1b75bb" fill-opacity="0.48"><title>seed 15: -7.99</title></circle>
<circle cx="1007.02" cy="872.11" r="4" fill="#1b75bb" fill-opacity="0.48"><title>seed 16: -4.36</title></circle>
<circle cx="1041.37" cy="872.74" r="4" fill="#1b75bb" fill-opacity="0.48"><title>seed 17: -4.01</title></circle>
<circle cx="1193.16" cy="873.37" r="4" fill="#1b75bb" fill-opacity="0.48"><title>seed 18: -2.47</title></circle>
<circle cx="1027.73" cy="874.00" r="4" fill="#1b75bb" fill-opacity="0.48"><title>seed 19: -4.15</title></circle>
<polygon points="1036.99,861.00 1043.99,868.00 1036.99,875.00 1029.99,868.00" fill="#1b75bb" stroke="#202124" stroke-width="1"/>
<line class="axis" x1="160.0" y1="885.0" x2="1400.0" y2="885.0"/>
<text class="tick" text-anchor="middle" x="780.00" y="921.0">episode return (higher is better)</text>
</svg>
